<?xml version="1.0" encoding="UTF-8"?>
<!DOCTYPE svg PUBLIC "-//W3C//DTD SVG 1.1//EN" "http://www.w3.org/Graphics/SVG/1.1/DTD/svg11.dtd">
<svg xmlns="http://www.w3.org/2000/svg" version="1.1" width="995px" height="326px" style="shape-rendering:geometricPrecision; text-rendering:geometricPrecision; image-rendering:optimizeQuality; fill-rule:evenodd; clip-rule:evenodd" xmlns:xlink="http://www.w3.org/1999/xlink">
<g><path style="opacity:1" fill="#fefefe" d="M -0.5,-0.5 C 331.167,-0.5 662.833,-0.5 994.5,-0.5C 994.5,108.167 994.5,216.833 994.5,325.5C 662.833,325.5 331.167,325.5 -0.5,325.5C -0.5,216.833 -0.5,108.167 -0.5,-0.5 Z"/></g>
<g><path style="opacity:1" fill="#e8e8e8" d="M 123.5,16.5 C 179.501,16.3333 235.501,16.5 291.5,17C 303.628,18.0413 314.628,22.0413 324.5,29C 319.309,26.747 313.975,24.4137 308.5,22C 298.653,19.5457 288.653,18.2124 278.5,18C 231.167,17.3333 183.833,17.3333 136.5,18C 117.224,16.8938 100.224,22.3938 85.5,34.5C 85.1667,34.3333 84.8333,34.1667 84.5,34C 95.7707,24.1925 108.771,18.3592 123.5,16.5 Z"/></g>
<g><path style="opacity:1" fill="#272728" d="M 653.5,35.5 C 655.346,35.2222 656.68,35.8888 657.5,37.5C 656.68,39.1112 655.346,39.7778 653.5,39.5C 653.5,38.1667 653.5,36.8333 653.5,35.5 Z"/></g>
<g><path style="opacity:1" fill="#262628" d="M 673.5,35.5 C 674.5,35.5 675.5,35.5 676.5,35.5C 676.5,36.8333 676.5,38.1667 676.5,39.5C 673.046,39.7332 672.046,38.3999 673.5,35.5 Z"/></g>
<g><path style="opacity:1" fill="#252527" d="M 394.5,36.5 C 399.765,35.5706 404.265,36.9039 408,40.5C 408.483,41.448 408.649,42.448 408.5,43.5C 407.127,43.6567 405.793,43.49 404.5,43C 399.003,37.7951 395.337,38.9618 393.5,46.5C 393.868,51.7083 396.535,54.2083 401.5,54C 403.128,50.8501 405.462,50.0168 408.5,51.5C 405.862,57.0601 401.529,58.8934 395.5,57C 390.15,53.6295 388.317,48.7961 390,42.5C 391.332,40.34 392.832,38.34 394.5,36.5 Z"/></g>
<g><path style="opacity:1" fill="#363638" d="M 429.5,36.5 C 431.167,36.5 432.833,36.5 434.5,36.5C 434.5,43.5 434.5,50.5 434.5,57.5C 432.833,57.5 431.167,57.5 429.5,57.5C 429.5,50.5 429.5,43.5 429.5,36.5 Z"/></g>
<g><path style="opacity:1" fill="#272729" d="M 528.5,36.5 C 533.765,35.5706 538.265,36.9039 542,40.5C 542.483,41.448 542.649,42.448 542.5,43.5C 539.522,42.3385 536.522,41.0052 533.5,39.5C 531.617,39.8757 530.117,40.8757 529,42.5C 527.738,46.9094 528.572,50.7428 531.5,54C 532.833,54.6667 534.167,54.6667 535.5,54C 536.881,52.375 538.548,51.2083 540.5,50.5C 542.394,53.2784 541.394,55.445 537.5,57C 526.575,58.37 522.075,53.5366 524,42.5C 525.332,40.34 526.832,38.34 528.5,36.5 Z"/></g>
<g><path style="opacity:1" fill="#2f2f31" d="M 662.5,38.5 C 663.833,38.5 665.167,38.5 666.5,38.5C 666.5,39.5 666.5,40.5 666.5,41.5C 667.5,41.5 668.5,41.5 669.5,41.5C 669.5,42.8333 669.5,44.1667 669.5,45.5C 668.5,45.5 667.5,45.5 666.5,45.5C 666.5,48.5 666.5,51.5 666.5,54.5C 667.5,54.5 668.5,54.5 669.5,54.5C 669.5,55.5 669.5,56.5 669.5,57.5C 667.208,57.7564 665.041,57.4231 663,56.5C 662.501,52.8484 662.335,49.1817 662.5,45.5C 661.5,45.5 660.5,45.5 659.5,45.5C 659.5,44.1667 659.5,42.8333 659.5,41.5C 660.5,41.5 661.5,41.5 662.5,41.5C 662.5,40.5 662.5,39.5 662.5,38.5 Z"/></g>
<g><path style="opacity:1" fill="#67676a" d="M 781.5,38.5 C 791.839,38.3335 802.172,38.5002 812.5,39C 802.5,39.3333 792.5,39.6667 782.5,40C 782,40.5 781.5,41 781,41.5C 780.667,46.1667 780.333,50.8333 780,55.5C 779.333,50.5 779.333,45.5 780,40.5C 780.717,39.9558 781.217,39.2891 781.5,38.5 Z"/></g>
<g><path style="opacity:1" fill="#252527" d="M 415.5,41.5 C 426.117,41.6159 429.117,46.4493 424.5,56C 414.32,59.66 410.154,56.16 412,45.5C 413.376,44.2949 414.542,42.9616 415.5,41.5 Z"/></g>
<g><path style="opacity:1" fill="#252527" d="M 441.5,41.5 C 452.117,41.6159 455.117,46.4493 450.5,56C 440.32,59.66 436.154,56.16 438,45.5C 439.376,44.2949 440.542,42.9616 441.5,41.5 Z"/></g>
<g><path style="opacity:1" fill="#262628" d="M 455.5,41.5 C 457.451,41.2267 458.951,41.8934 460,43.5C 463,40.8333 466,40.8333 469,43.5C 469.499,48.1548 469.666,52.8215 469.5,57.5C 468.167,57.5 466.833,57.5 465.5,57.5C 465.5,53.5 465.5,49.5 465.5,45.5C 463.533,45.2606 461.699,45.5939 460,46.5C 459.501,50.1516 459.335,53.8183 459.5,57.5C 458.167,57.5 456.833,57.5 455.5,57.5C 455.5,52.1667 455.5,46.8333 455.5,41.5 Z"/></g>
<g><path style="opacity:1" fill="#262628" d="M 473.5,41.5 C 475.451,41.2267 476.951,41.8934 478,43.5C 481,40.8333 484,40.8333 487,43.5C 487.499,48.1548 487.666,52.8215 487.5,57.5C 486.167,57.5 484.833,57.5 483.5,57.5C 483.5,53.5 483.5,49.5 483.5,45.5C 481.533,45.2606 479.699,45.5939 478,46.5C 477.501,50.1516 477.335,53.8183 477.5,57.5C 476.167,57.5 474.833,57.5 473.5,57.5C 473.5,52.1667 473.5,46.8333 473.5,41.5 Z"/></g>
<g><path style="opacity:1" fill="#2a2a2c" d="M 550.5,41.5 C 558.164,40.6662 561.664,43.9995 561,51.5C 559.171,57.1582 555.337,58.9916 549.5,57C 543.974,51.357 544.308,46.1903 550.5,41.5 Z"/></g>
<g><path style="opacity:1" fill="#2e2e30" d="M 563.5,41.5 C 564.833,41.5 566.167,41.5 567.5,41.5C 567.351,42.552 567.517,43.552 568,44.5C 571.048,40.5185 574.048,40.5185 577,44.5C 579.706,41.0221 582.706,40.6888 586,43.5C 586.499,48.1548 586.666,52.8215 586.5,57.5C 585.167,57.5 583.833,57.5 582.5,57.5C 582.5,53.5 582.5,49.5 582.5,45.5C 580.833,45.5 579.167,45.5 577.5,45.5C 577.5,49.5 577.5,53.5 577.5,57.5C 576.167,57.5 574.833,57.5 573.5,57.5C 573.5,53.5 573.5,49.5 573.5,45.5C 571.833,45.5 570.167,45.5 568.5,45.5C 568.5,49.5 568.5,53.5 568.5,57.5C 566.833,57.5 565.167,57.5 563.5,57.5C 563.5,52.1667 563.5,46.8333 563.5,41.5 Z"/></g>
<g><path style="opacity:1" fill="#29292a" d="M 590.5,41.5 C 592.451,41.2267 593.951,41.8934 595,43.5C 597.795,40.887 600.629,40.887 603.5,43.5C 606.416,41.1823 609.416,41.0156 612.5,43C 613.469,47.7367 613.803,52.57 613.5,57.5C 612.167,57.5 610.833,57.5 609.5,57.5C 609.5,53.5 609.5,49.5 609.5,45.5C 607.533,45.2606 605.699,45.5939 604,46.5C 603.501,50.1516 603.335,53.8183 603.5,57.5C 602.167,57.5 600.833,57.5 599.5,57.5C 599.5,53.5 599.5,49.5 599.5,45.5C 597.856,45.2865 596.356,45.6198 595,46.5C 594.501,50.1516 594.335,53.8183 594.5,57.5C 593.167,57.5 591.833,57.5 590.5,57.5C 590.5,52.1667 590.5,46.8333 590.5,41.5 Z"/></g>
<g><path style="opacity:1" fill="#262628" d="M 684.5,41.5 C 691.063,41.0675 694.396,44.0675 694.5,50.5C 690.774,50.1774 687.107,50.5108 683.5,51.5C 684.27,53.2718 685.603,54.2718 687.5,54.5C 689.167,53.8333 690.833,53.1667 692.5,52.5C 693.167,52.8333 693.833,53.1667 694.5,53.5C 691.813,57.3137 688.147,58.4804 683.5,57C 677.974,51.357 678.308,46.1903 684.5,41.5 Z"/></g>
<g><path style="opacity:1" fill="#28282a" d="M 700.5,41.5 C 704.741,40.7498 708.074,42.0831 710.5,45.5C 709.833,45.8333 709.167,46.1667 708.5,46.5C 706.423,45.0629 704.09,44.3962 701.5,44.5C 701.281,45.675 701.614,46.675 702.5,47.5C 705.167,48.123 707.667,49.123 710,50.5C 711.14,53.5282 710.306,55.6949 707.5,57C 704.833,57.6667 702.167,57.6667 699.5,57C 697.963,55.8904 697.297,54.3904 697.5,52.5C 699.747,52.9153 701.914,53.5819 704,54.5C 704.833,54.1667 705.667,53.8333 706.5,53.5C 703.629,52.0512 700.795,50.3846 698,48.5C 696.916,45.3411 697.75,43.0078 700.5,41.5 Z"/></g>
<g><path style="opacity:1" fill="#272729" d="M 723.5,41.5 C 726.93,41.1065 730.096,41.7732 733,43.5C 733.499,48.1548 733.666,52.8215 733.5,57.5C 730.616,56.6174 727.783,56.6174 725,57.5C 719.806,57.1515 718.306,54.6515 720.5,50C 723.351,48.7114 726.351,48.2114 729.5,48.5C 729.67,47.1779 729.337,46.0113 728.5,45C 726.323,44.6551 724.323,45.1551 722.5,46.5C 721.833,46.1667 721.167,45.8333 720.5,45.5C 721.524,44.1482 722.524,42.8149 723.5,41.5 Z"/></g>
<g><path style="opacity:1" fill="#232325" d="M 737.5,41.5 C 739.451,41.2267 740.951,41.8934 742,43.5C 745.607,40.7312 748.94,41.0645 752,44.5C 752.667,47.8333 752.667,51.1667 752,54.5C 748.952,58.0095 745.619,58.3428 742,55.5C 741.503,57.8098 741.337,60.1432 741.5,62.5C 740.167,62.5 738.833,62.5 737.5,62.5C 737.5,55.5 737.5,48.5 737.5,41.5 Z"/></g>
<g><path style="opacity:1" fill="#2d2d2f" d="M 490.5,41.5 C 492.144,41.2865 493.644,41.6198 495,42.5C 496.202,45.7735 497.202,49.1069 498,52.5C 499.466,49.2686 500.633,45.9353 501.5,42.5C 502.689,41.5713 504.022,41.238 505.5,41.5C 503.84,48.3142 501.673,54.9809 499,61.5C 496.699,62.8672 494.199,63.5339 491.5,63.5C 491.5,62.1667 491.5,60.8333 491.5,59.5C 492.833,59.5 494.167,59.5 495.5,59.5C 494.249,53.4106 492.583,47.4106 490.5,41.5 Z"/></g>
<g><path style="opacity:1" fill="#38383a" d="M 509.5,42.5 C 513.961,43.0483 514.461,44.715 511,47.5C 508.491,46.347 507.991,44.6803 509.5,42.5 Z"/></g>
<g><path style="opacity:1" fill="#252527" d="M 617.5,41.5 C 618.833,41.5 620.167,41.5 621.5,41.5C 621.334,45.5138 621.501,49.5138 622,53.5C 623.938,54.8602 625.604,54.5268 627,52.5C 627.499,48.8484 627.665,45.1817 627.5,41.5C 628.833,41.5 630.167,41.5 631.5,41.5C 631.5,46.8333 631.5,52.1667 631.5,57.5C 629.549,57.7733 628.049,57.1066 627,55.5C 624,58.1667 621,58.1667 618,55.5C 617.501,50.8452 617.334,46.1785 617.5,41.5 Z"/></g>
<g><path style="opacity:1" fill="#242426" d="M 635.5,41.5 C 637.451,41.2267 638.951,41.8934 640,43.5C 642.925,40.9406 645.925,40.9406 649,43.5C 649.499,48.1548 649.666,52.8215 649.5,57.5C 648.167,57.5 646.833,57.5 645.5,57.5C 645.5,53.5 645.5,49.5 645.5,45.5C 643.533,45.2606 641.699,45.5939 640,46.5C 639.501,50.1516 639.335,53.8183 639.5,57.5C 638.167,57.5 636.833,57.5 635.5,57.5C 635.5,52.1667 635.5,46.8333 635.5,41.5 Z"/></g>
<g><path style="opacity:1" fill="#242426" d="M 653.5,41.5 C 654.833,41.5 656.167,41.5 657.5,41.5C 657.5,46.8333 657.5,52.1667 657.5,57.5C 656.167,57.5 654.833,57.5 653.5,57.5C 653.5,52.1667 653.5,46.8333 653.5,41.5 Z"/></g>
<g><path style="opacity:1" fill="#252526" d="M 672.5,41.5 C 673.833,41.5 675.167,41.5 676.5,41.5C 676.5,46.8333 676.5,52.1667 676.5,57.5C 675.167,57.5 673.833,57.5 672.5,57.5C 672.5,52.1667 672.5,46.8333 672.5,41.5 Z"/></g>
<g><path style="opacity:1" fill="#2b2b2d" d="M 761.5,56.5 C 761.44,55.9569 761.107,55.6236 760.5,55.5C 759.526,57.7427 759.192,60.076 759.5,62.5C 758.167,62.5 756.833,62.5 755.5,62.5C 755.5,55.5 755.5,48.5 755.5,41.5C 757.766,41.1412 759.599,41.8078 761,43.5C 764.973,40.5611 768.307,41.2278 771,45.5C 771.701,48.9283 771.368,52.2617 770,55.5C 767.415,57.7355 764.582,58.0688 761.5,56.5 Z"/></g>
<g><path style="opacity:1" fill="#767679" d="M 786.5,42.5 C 787.5,42.5 788.5,42.5 789.5,42.5C 789.817,45.5719 789.484,48.5719 788.5,51.5C 787.686,49.2338 787.186,46.9005 787,44.5C 786.346,45.6956 785.846,45.6956 785.5,44.5C 785.863,43.8165 786.196,43.1499 786.5,42.5 Z"/></g>
<g><path style="opacity:1" fill="#f0f0f0" d="M 417.5,44.5 C 422.151,45.1742 423.651,47.8408 422,52.5C 418.182,55.4983 416.016,54.4983 415.5,49.5C 415.437,47.4861 416.103,45.8194 417.5,44.5 Z"/></g>
<g><path style="opacity:1" fill="#f0f0f0" d="M 443.5,44.5 C 448.151,45.1742 449.651,47.8408 448,52.5C 444.182,55.4983 442.016,54.4983 441.5,49.5C 441.437,47.4861 442.103,45.8194 443.5,44.5 Z"/></g>
<g><path style="opacity:1" fill="#e9e9e9" d="M 551.5,44.5 C 552.93,44.4208 554.264,44.7542 555.5,45.5C 556.783,48.3719 556.783,51.2053 555.5,54C 553.299,54.8249 551.466,54.3249 550,52.5C 549.282,49.5929 549.782,46.9262 551.5,44.5 Z"/></g>
<g><path style="opacity:1" fill="#e9e9e9" d="M 690.5,47.5 C 688.265,47.7947 686.265,47.4614 684.5,46.5C 685.659,44.6231 687.326,44.1231 689.5,45C 690.252,45.6708 690.586,46.5041 690.5,47.5 Z"/></g>
<g><path style="opacity:1" fill="#eaeaea" d="M 743.5,44.5 C 748.151,45.1742 749.651,47.8408 748,52.5C 744.182,55.4983 742.016,54.4983 741.5,49.5C 741.437,47.4861 742.103,45.8194 743.5,44.5 Z"/></g>
<g><path style="opacity:1" fill="#e8e8e8" d="M 762.5,44.5 C 766.827,45.4804 768.327,48.1471 767,52.5C 763.469,55.4329 761.303,54.5996 760.5,50C 760.395,47.8218 761.061,45.9885 762.5,44.5 Z"/></g>
<g><path style="opacity:1" fill="#7c7c7e" d="M 803.5,44.5 C 805.078,45.0656 806.412,46.0656 807.5,47.5C 806.354,48.7187 805.354,50.0521 804.5,51.5C 803.646,50.0521 802.646,48.7187 801.5,47.5C 802.612,46.7348 803.279,45.7348 803.5,44.5 Z"/></g>
<g><path style="opacity:1" fill="#727273" d="M 684.5,46.5 C 686.265,47.4614 688.265,47.7947 690.5,47.5C 688.307,48.7969 685.973,48.7969 683.5,47.5C 683.624,46.8933 683.957,46.56 684.5,46.5 Z"/></g>
<g><path style="opacity:1" fill="#767678" d="M 792.5,43.5 C 794.265,42.5386 796.265,42.2053 798.5,42.5C 797.992,45.8515 796.658,48.8515 794.5,51.5C 794.167,51.1667 793.833,50.8333 793.5,50.5C 794.5,48.5 795.5,46.5 796.5,44.5C 795.311,43.5713 793.978,43.238 792.5,43.5 Z"/></g>
<g><path style="opacity:1" fill="#e8e8e8" d="M 724.5,50.5 C 726.167,50.5 727.833,50.5 729.5,50.5C 729.299,54.35 727.466,55.35 724,53.5C 723.53,52.4232 723.697,51.4232 724.5,50.5 Z"/></g>
<g><path style="opacity:1" fill="#059688" d="M 195.5,52.5 C 244.775,50.3776 281.275,70.711 305,113.5C 323.031,156.613 317.365,196.28 288,232.5C 251.131,268.674 208.631,277.174 160.5,258C 117.559,234.3 97.3925,197.8 100,148.5C 106.963,103.388 131.796,72.888 174.5,57C 181.613,55.4125 188.613,53.9125 195.5,52.5 Z"/></g>
<g><path style="opacity:1" fill="#2f2f31" d="M 509.5,53.5 C 510.833,53.5 512.167,53.5 513.5,53.5C 513.114,57.7376 511.448,58.4043 508.5,55.5C 508.863,54.8165 509.196,54.1499 509.5,53.5 Z"/></g>
<g><path style="opacity:1" fill="#737375" d="M 761.5,56.5 C 760.833,58.5 760.167,60.5 759.5,62.5C 759.192,60.076 759.526,57.7427 760.5,55.5C 761.107,55.6236 761.44,55.9569 761.5,56.5 Z"/></g>
<g><path style="opacity:1" fill="#747476" d="M 474.5,70.5 C 476.337,70.6395 476.67,71.3061 475.5,72.5C 474.702,72.0431 474.369,71.3764 474.5,70.5 Z"/></g>
<g><path style="opacity:1" fill="#78787a" d="M 558.5,70.5 C 559.812,72.7432 560.478,75.4098 560.5,78.5C 560.167,81.1667 559.833,83.8333 559.5,86.5C 558.505,81.2079 558.172,75.8746 558.5,70.5 Z"/></g>
<g><path style="opacity:1" fill="#747476" d="M 672.5,70.5 C 674.337,70.6395 674.67,71.3061 673.5,72.5C 672.702,72.0431 672.369,71.3764 672.5,70.5 Z"/></g>
<g><path style="opacity:1" fill="#757578" d="M 665.5,72.5 C 666.931,73.4458 668.264,74.6125 669.5,76C 667.679,78.456 667.012,81.2893 667.5,84.5C 668.675,84.281 669.675,84.6143 670.5,85.5C 668.994,86.7472 667.494,86.7472 666,85.5C 665.175,81.0223 665.009,76.689 665.5,72.5 Z"/></g>
<g><path style="opacity:1" fill="#6f6f72" d="M 393.5,70.5 C 397.539,69.6597 400.539,70.993 402.5,74.5C 402.167,74.8333 401.833,75.1667 401.5,75.5C 398.71,71.9532 395.543,71.6198 392,74.5C 389.492,81.9745 391.992,85.1412 399.5,84C 401.359,80.5736 402.193,80.7403 402,84.5C 392.122,88.6361 388.122,85.3028 390,74.5C 390.69,72.6498 391.856,71.3164 393.5,70.5 Z"/></g>
<g><path style="opacity:1" fill="#77777a" d="M 422.5,74.5 C 424.39,74.2965 425.89,74.9632 427,76.5C 427.824,79.8823 427.657,83.2156 426.5,86.5C 425.679,83.5535 425.179,80.5535 425,77.5C 423.667,76.1667 422.333,76.1667 421,77.5C 420.821,80.5535 420.321,83.5535 419.5,86.5C 418.511,82.8927 418.177,79.226 418.5,75.5C 420.099,75.7678 421.432,75.4345 422.5,74.5 Z"/></g>
<g><path style="opacity:1" fill="#7f7f82" d="M 434.5,74.5 C 436.484,74.3832 438.15,75.0499 439.5,76.5C 440.417,79.7577 440.751,83.091 440.5,86.5C 439.5,86.5 438.5,86.5 437.5,86.5C 437.5,83.1667 437.5,79.8333 437.5,76.5C 435.856,76.2865 434.356,76.6198 433,77.5C 432.821,80.5535 432.321,83.5535 431.5,86.5C 430.511,82.8927 430.177,79.226 430.5,75.5C 432.099,75.7678 433.432,75.4345 434.5,74.5 Z"/></g>
<g><path style="opacity:1" fill="#78787a" d="M 474.5,75.5 C 475.787,76.8714 476.453,78.7047 476.5,81C 476.167,82.8333 475.833,84.6667 475.5,86.5C 474.511,82.8927 474.177,79.226 474.5,75.5 Z"/></g>
<g><path style="opacity:1" fill="#7b7b7d" d="M 494.5,74.5 C 496.582,74.472 498.416,75.1387 500,76.5C 500.414,76.0426 500.914,75.7093 501.5,75.5C 502.66,79.4589 502.827,83.4589 502,87.5C 499.833,90.2868 496.999,91.1201 493.5,90C 492.289,89.1072 492.289,88.2739 493.5,87.5C 497.078,90.5917 498.911,89.925 499,85.5C 495.914,87.22 493.581,86.5534 492,83.5C 490.927,79.9003 491.76,76.9003 494.5,74.5 Z"/></g>
<g><path style="opacity:1" fill="#78787b" d="M 549.5,74.5 C 551.582,74.472 553.416,75.1387 555,76.5C 555.824,79.8823 555.657,83.2156 554.5,86.5C 552.071,86.5787 549.571,86.2453 547,85.5C 546.438,80.8875 548.605,78.5542 553.5,78.5C 551.641,75.9814 549.641,75.9814 547.5,78.5C 547.167,78.1667 546.833,77.8333 546.5,77.5C 547.34,76.265 548.34,75.265 549.5,74.5 Z"/></g>
<g><path style="opacity:1" fill="#79797b" d="M 601.5,74.5 C 603.39,74.2965 604.89,74.9632 606,76.5C 608.423,74.0062 610.756,74.0062 613,76.5C 613.824,79.8823 613.657,83.2156 612.5,86.5C 611.679,83.5535 611.179,80.5535 611,77.5C 609.667,76.1667 608.333,76.1667 607,77.5C 606,89.5 605,89.5 604,77.5C 602.413,76.273 601.079,76.6063 600,78.5C 599.818,81.2263 599.318,83.8929 598.5,86.5C 597.511,82.8927 597.177,79.226 597.5,75.5C 599.099,75.7678 600.432,75.4345 601.5,74.5 Z"/></g>
<g><path style="opacity:1" fill="#78787a" d="M 620.5,74.5 C 622.39,74.2965 623.89,74.9632 625,76.5C 627.333,73.8333 629.667,73.8333 632,76.5C 632.824,79.8823 632.657,83.2156 631.5,86.5C 630.679,83.5535 630.179,80.5535 630,77.5C 628.667,76.1667 627.333,76.1667 626,77.5C 625,89.5 624,89.5 623,77.5C 621.951,76.4829 620.784,76.3162 619.5,77C 618.87,80.1292 618.204,83.2959 617.5,86.5C 616.511,82.8927 616.177,79.226 616.5,75.5C 618.099,75.7678 619.432,75.4345 620.5,74.5 Z"/></g>
<g><path style="opacity:1" fill="#77777a" d="M 634.5,75.5 C 636.22,77.6581 637.053,80.3248 637,83.5C 638.667,84.8333 640.333,84.8333 642,83.5C 642.182,80.7737 642.682,78.1071 643.5,75.5C 644.833,79.1667 644.833,82.8333 643.5,86.5C 641.328,86.3241 638.995,86.1575 636.5,86C 636,85.5 635.5,85 635,84.5C 634.502,81.5184 634.335,78.5184 634.5,75.5 Z"/></g>
<g><path style="opacity:1" fill="#7f7f82" d="M 651.5,74.5 C 653.484,74.3832 655.15,75.0499 656.5,76.5C 657.417,79.7577 657.751,83.091 657.5,86.5C 656.5,86.5 655.5,86.5 654.5,86.5C 654.5,83.1667 654.5,79.8333 654.5,76.5C 652.856,76.2865 651.356,76.6198 650,77.5C 649.821,80.5535 649.321,83.5535 648.5,86.5C 647.511,82.8927 647.177,79.226 647.5,75.5C 649.099,75.7678 650.432,75.4345 651.5,74.5 Z"/></g>
<g><path style="opacity:1" fill="#929295" d="M 660.5,75.5 C 661.787,76.8714 662.453,78.7047 662.5,81C 662.167,82.8333 661.833,84.6667 661.5,86.5C 660.511,82.8927 660.177,79.226 660.5,75.5 Z"/></g>
<g><path style="opacity:1" fill="#78787a" d="M 672.5,75.5 C 673.787,76.8714 674.453,78.7047 674.5,81C 674.167,82.8333 673.833,84.6667 673.5,86.5C 672.511,82.8927 672.177,79.226 672.5,75.5 Z"/></g>
<g><path style="opacity:1" fill="#79797b" d="M 692.5,74.5 C 695.061,74.4469 697.061,75.4469 698.5,77.5C 698.167,77.8333 697.833,78.1667 697.5,78.5C 695.593,76.2397 693.593,76.073 691.5,78C 693.468,79.5442 695.635,80.7109 698,81.5C 698.244,85.9858 696.077,87.4858 691.5,86C 690.833,85.3333 690.167,84.6667 689.5,84C 691.107,83.8849 692.607,84.3849 694,85.5C 695.28,85.3865 696.113,84.7199 696.5,83.5C 694.434,82.0937 692.268,80.7604 690,79.5C 689.294,77.0448 690.127,75.3781 692.5,74.5 Z"/></g>
<g><path style="opacity:1" fill="#717173" d="M 467.5,72.5 C 468.931,73.4458 470.264,74.6125 471.5,76C 468.881,79.0854 468.881,82.2521 471.5,85.5C 470.349,86.731 469.183,86.731 468,85.5C 467.175,81.0223 467.009,76.689 467.5,72.5 Z"/></g>
<g><path style="opacity:1" fill="#737375" d="M 482.5,76.5 C 484.322,73.9621 486.322,73.9621 488.5,76.5C 489.757,79.8231 489.757,83.1565 488.5,86.5C 487.679,83.5535 487.179,80.5535 487,77.5C 485.644,76.6198 484.144,76.2865 482.5,76.5 Z"/></g>
<g><path style="opacity:1" fill="#f8f8f8" d="M 495.5,76.5 C 496.822,76.33 497.989,76.6634 499,77.5C 499.758,79.7695 499.591,81.9361 498.5,84C 493.917,84.9337 492.417,83.1004 494,78.5C 494.717,77.9558 495.217,77.2891 495.5,76.5 Z"/></g>
<g><path style="opacity:1" fill="#717174" d="M 482.5,76.5 C 481.907,79.8004 481.24,83.1337 480.5,86.5C 479.167,82.8333 479.167,79.1667 480.5,75.5C 481.183,75.8627 481.85,76.1961 482.5,76.5 Z"/></g>
<g><path style="opacity:1" fill="#7a7a7c" d="M 408.5,74.5 C 415.698,75.699 417.365,79.5323 413.5,86C 405.992,87.1412 403.492,83.9745 406,76.5C 406.995,75.9341 407.828,75.2674 408.5,74.5 Z"/></g>
<g><path style="opacity:1" fill="#f9f9f9" d="M 408.5,76.5 C 413.262,77.0925 414.596,79.5925 412.5,84C 410.888,84.7203 409.388,84.5536 408,83.5C 407.297,81.0709 407.463,78.7375 408.5,76.5 Z"/></g>
<g><path style="opacity:1" fill="#767679" d="M 458.5,74.5 C 461.061,74.4469 463.061,75.4469 464.5,77.5C 464.167,77.8333 463.833,78.1667 463.5,78.5C 461.287,75.9199 459.12,75.9199 457,78.5C 456.083,84.6282 458.25,85.9616 463.5,82.5C 464.594,83.868 464.26,85.0347 462.5,86C 456.333,87.1667 453.833,84.6667 455,78.5C 455.69,76.6498 456.856,75.3164 458.5,74.5 Z"/></g>
<g><path style="opacity:1" fill="#7a7a7c" d="M 525.5,74.5 C 532.698,75.699 534.365,79.5323 530.5,86C 522.992,87.1412 520.492,83.9745 523,76.5C 523.995,75.9341 524.828,75.2674 525.5,74.5 Z"/></g>
<g><path style="opacity:1" fill="#f9f9f9" d="M 525.5,76.5 C 530.262,77.0925 531.596,79.5925 529.5,84C 527.888,84.7203 526.388,84.5536 525,83.5C 524.297,81.0709 524.463,78.7375 525.5,76.5 Z"/></g>
<g><path style="opacity:1" fill="#78787b" d="M 538.5,74.5 C 541.257,74.3784 543.257,75.5451 544.5,78C 542.893,78.1151 541.393,77.6151 540,76.5C 536.548,78.0731 535.714,80.5731 537.5,84C 539.807,84.7786 541.807,84.2786 543.5,82.5C 544.594,83.868 544.26,85.0347 542.5,86C 535.806,87.176 533.306,84.3427 535,77.5C 536.145,76.3636 537.312,75.3636 538.5,74.5 Z"/></g>
<g><path style="opacity:1" fill="#767678" d="M 588.5,74.5 C 594.076,74.9736 596.243,77.9736 595,83.5C 591.619,87.4851 588.286,87.4851 585,83.5C 583.98,79.5532 585.147,76.5532 588.5,74.5 Z"/></g>
<g><path style="opacity:1" fill="#f1f1f1" d="M 588.5,76.5 C 593.262,77.0925 594.596,79.5925 592.5,84C 586.202,84.4954 584.868,81.9954 588.5,76.5 Z"/></g>
<g><path style="opacity:1" fill="#7a7a7c" d="M 680.5,74.5 C 685.167,74.5 687.5,76.8333 687.5,81.5C 684.753,81.1866 682.086,81.52 679.5,82.5C 679.709,83.086 680.043,83.586 680.5,84C 682.657,84.0781 684.657,84.2448 686.5,84.5C 686.291,85.086 685.957,85.586 685.5,86C 678.495,87.3236 675.995,84.4902 678,77.5C 679.045,76.6266 679.878,75.6266 680.5,74.5 Z"/></g>
<g><path style="opacity:1" fill="#f5f5f5" d="M 680.5,76.5 C 682.681,76.2837 684.347,77.117 685.5,79C 683.421,79.8077 681.421,79.641 679.5,78.5C 679.863,77.8165 680.196,77.1499 680.5,76.5 Z"/></g>
<g><path style="opacity:1" fill="#f7f7f7" d="M 548.5,81.5 C 550.288,81.2148 551.955,81.5481 553.5,82.5C 552.332,84.2174 550.665,84.8841 548.5,84.5C 548.5,83.5 548.5,82.5 548.5,81.5 Z"/></g>
<g><path style="opacity:1" fill="#78787b" d="M 446.5,74.5 C 450.638,74.9732 452.638,77.3065 452.5,81.5C 449.753,81.1866 447.086,81.52 444.5,82.5C 445.171,83.9458 446.338,84.6125 448,84.5C 449.55,84.0495 451.05,83.8829 452.5,84C 444.888,88.7402 441.721,86.5735 443,77.5C 444.145,76.3636 445.312,75.3636 446.5,74.5 Z"/></g>
<g><path style="opacity:1" fill="#f4f4f5" d="M 446.5,76.5 C 448.346,76.2222 449.68,76.8888 450.5,78.5C 448.579,79.641 446.579,79.8077 444.5,79C 445.381,78.2917 446.047,77.4584 446.5,76.5 Z"/></g>
<g><path style="opacity:1" fill="#79797c" d="M 572.5,70.5 C 576.849,69.5769 580.183,70.9102 582.5,74.5C 582.167,74.8333 581.833,75.1667 581.5,75.5C 573.373,70.4343 570.206,72.7676 572,82.5C 575.543,85.3802 578.71,85.0468 581.5,81.5C 582.282,83.3293 581.616,84.8293 579.5,86C 572.781,87.6218 569.115,84.9552 568.5,78C 568.927,74.9766 570.261,72.4766 572.5,70.5 Z"/></g>
<g><path style="opacity:1" fill="#6d6d70" d="M 510.5,70.5 C 512.436,74.7147 513.103,79.3814 512.5,84.5C 515.247,84.1866 517.914,84.52 520.5,85.5C 517.232,86.487 513.898,86.8204 510.5,86.5C 510.5,81.1667 510.5,75.8333 510.5,70.5 Z"/></g>
<g><path style="opacity:1" fill="#e8e8e8" d="M 333.5,37.5 C 338.537,41.8833 342.37,47.2166 345,53.5C 348.094,60.8754 350.094,68.5421 351,76.5C 351.667,132.5 351.667,188.5 351,244.5C 349.959,256.628 345.959,267.628 339,277.5C 341.253,272.309 343.586,266.975 346,261.5C 348.36,251.978 349.694,242.312 350,232.5C 350.667,184.833 350.667,137.167 350,89.5C 350.954,69.9426 345.454,52.6093 333.5,37.5 Z"/></g>
<g><path style="opacity:1" fill="#e8e8e8" d="M 75.5,43.5 C 76.0431,43.56 76.3764,43.8933 76.5,44.5C 70.1621,53.8489 66.6621,64.1823 66,75.5C 64.8991,103.816 64.3991,132.15 64.5,160.5C 64.3991,188.85 64.8991,217.184 66,245.5C 66.6813,250.892 67.6813,256.225 69,261.5C 71.4137,266.975 73.747,272.309 76,277.5C 69.0413,267.628 65.0413,256.628 64,244.5C 63.3333,188.5 63.3333,132.5 64,76.5C 65.1626,64.5099 68.9959,53.5099 75.5,43.5 Z"/></g>
<g><path style="opacity:1" fill="#4994d7" d="M 418.5,100.5 C 419.812,102.743 420.478,105.41 420.5,108.5C 420.167,111.167 419.833,113.833 419.5,116.5C 418.505,111.208 418.172,105.875 418.5,100.5 Z"/></g>
<g><path style="opacity:1" fill="#3c8ad3" d="M 592.5,100.5 C 594.337,100.639 594.67,101.306 593.5,102.5C 592.702,102.043 592.369,101.376 592.5,100.5 Z"/></g>
<g><path style="opacity:1" fill="#5498d8" d="M 616.5,100.5 C 617.376,100.369 618.043,100.702 618.5,101.5C 616.192,102.873 615.525,102.54 616.5,100.5 Z"/></g>
<g><path style="opacity:1" fill="#3181d0" d="M 529.5,102.5 C 530.931,103.446 532.264,104.612 533.5,106C 530.881,109.085 530.881,112.252 533.5,115.5C 532.349,116.731 531.183,116.731 530,115.5C 530.021,111.991 529.188,108.825 527.5,106C 528.973,105.29 529.64,104.124 529.5,102.5 Z"/></g>
<g><path style="opacity:1" fill="#3683d0" d="M 621.5,102.5 C 622.931,103.446 624.264,104.612 625.5,106C 623.679,108.456 623.012,111.289 623.5,114.5C 624.675,114.281 625.675,114.614 626.5,115.5C 624.994,116.747 623.494,116.747 622,115.5C 621.175,111.022 621.009,106.689 621.5,102.5 Z"/></g>
<g><path style="opacity:1" fill="#3685d1" d="M 426.5,104.5 C 432.076,104.974 434.243,107.974 433,113.5C 429.619,117.485 426.286,117.485 423,113.5C 421.98,109.553 423.147,106.553 426.5,104.5 Z"/></g>
<g><path style="opacity:1" fill="#8abce6" d="M 437.5,105.5 C 436.518,108.962 436.185,112.629 436.5,116.5C 435.191,112.649 435.191,108.649 436.5,104.5C 437.107,104.624 437.44,104.957 437.5,105.5 Z"/></g>
<g><path style="opacity:1" fill="#4189d3" d="M 436.5,116.5 C 436.185,112.629 436.518,108.962 437.5,105.5C 443.277,103.273 445.944,105.273 445.5,111.5C 445.167,113.167 444.833,114.833 444.5,116.5C 443.679,113.553 443.179,110.553 443,107.5C 441.951,106.483 440.784,106.316 439.5,107C 439.167,110.572 438.167,113.739 436.5,116.5 Z"/></g>
<g><path style="opacity:1" fill="#3485d1" d="M 452.5,104.5 C 454.39,104.297 455.89,104.963 457,106.5C 457.824,109.882 457.657,113.216 456.5,116.5C 455.679,113.553 455.179,110.553 455,107.5C 453.667,106.167 452.333,106.167 451,107.5C 450.821,110.553 450.321,113.553 449.5,116.5C 448.511,112.893 448.177,109.226 448.5,105.5C 450.099,105.768 451.432,105.434 452.5,104.5 Z"/></g>
<g><path style="opacity:1" fill="#2f83d0" d="M 495.5,104.5 C 497.582,104.472 499.416,105.139 501,106.5C 501.667,109.167 501.667,111.833 501,114.5C 498.925,116.648 496.592,116.982 494,115.5C 493.798,117.256 493.298,118.922 492.5,120.5C 491.167,115.5 491.167,110.5 492.5,105.5C 493.922,106.777 494.922,106.443 495.5,104.5 Z"/></g>
<g><path style="opacity:1" fill="#93c1e8" d="M 541.5,105.5 C 539.833,105.5 538.167,105.5 536.5,105.5C 536.5,109.167 536.5,112.833 536.5,116.5C 535.517,112.702 535.183,108.702 535.5,104.5C 537.735,104.205 539.735,104.539 541.5,105.5 Z"/></g>
<g><path style="opacity:1" fill="#3d85d1" d="M 541.5,105.5 C 540.828,106.267 539.995,106.934 539,107.5C 539.07,110.992 538.237,113.992 536.5,116.5C 536.5,112.833 536.5,109.167 536.5,105.5C 538.167,105.5 539.833,105.5 541.5,105.5 Z"/></g>
<g><path style="opacity:1" fill="#2e83d0" d="M 550.5,113.5 C 551.317,111.031 551.817,108.365 552,105.5C 552.499,109.152 552.665,112.818 552.5,116.5C 543.797,117.448 541.131,113.782 544.5,105.5C 545.484,108.428 545.817,111.428 545.5,114.5C 547.415,114.784 549.081,114.451 550.5,113.5 Z"/></g>
<g><path style="opacity:1" fill="#8abce6" d="M 552.5,116.5 C 552.665,112.818 552.499,109.152 552,105.5C 551.817,108.365 551.317,111.031 550.5,113.5C 550.5,110.5 550.5,107.5 550.5,104.5C 551.5,104.5 552.5,104.5 553.5,104.5C 553.817,108.702 553.483,112.702 552.5,116.5 Z"/></g>
<g><path style="opacity:1" fill="#8abce6" d="M 557.5,105.5 C 556.518,108.962 556.185,112.629 556.5,116.5C 555.191,112.649 555.191,108.649 556.5,104.5C 557.107,104.624 557.44,104.957 557.5,105.5 Z"/></g>
<g><path style="opacity:1" fill="#468cd4" d="M 556.5,116.5 C 556.185,112.629 556.518,108.962 557.5,105.5C 560.1,103.921 562.433,104.255 564.5,106.5C 566.713,103.92 568.88,103.92 571,106.5C 571.824,109.882 571.657,113.216 570.5,116.5C 569.679,113.553 569.179,110.553 569,107.5C 567.413,106.273 566.079,106.606 565,108.5C 564.818,111.226 564.318,113.893 563.5,116.5C 562.513,113.232 562.18,109.898 562.5,106.5C 561.178,106.33 560.011,106.663 559,107.5C 559.07,110.992 558.237,113.992 556.5,116.5 Z"/></g>
<g><path style="opacity:1" fill="#4793d6" d="M 592.5,105.5 C 593.787,106.871 594.453,108.705 594.5,111C 594.167,112.833 593.833,114.667 593.5,116.5C 592.511,112.893 592.177,109.226 592.5,105.5 Z"/></g>
<g><path style="opacity:1" fill="#2c83d0" d="M 601.5,104.5 C 603.39,104.297 604.89,104.963 606,106.5C 608.333,105.167 610.667,105.167 613,106.5C 613.824,109.882 613.657,113.216 612.5,116.5C 611.679,113.553 611.179,110.553 611,107.5C 609.667,106.167 608.333,106.167 607,107.5C 606,119.5 605,119.5 604,107.5C 602.951,106.483 601.784,106.316 600.5,107C 599.87,110.129 599.204,113.296 598.5,116.5C 597.511,112.893 597.177,109.226 597.5,105.5C 599.099,105.768 600.432,105.434 601.5,104.5 Z"/></g>
<g><path style="opacity:1" fill="#669fdb" d="M 616.5,105.5 C 617.787,106.871 618.453,108.705 618.5,111C 618.167,112.833 617.833,114.667 617.5,116.5C 616.511,112.893 616.177,109.226 616.5,105.5 Z"/></g>
<g><path style="opacity:1" fill="#fdfefe" d="M 259.5,209.5 C 250.167,200.833 241.167,191.833 232.5,182.5C 232.5,166.833 232.5,151.167 232.5,135.5C 216.497,135.667 200.497,135.5 184.5,135C 178.631,128.964 172.631,123.13 166.5,117.5C 163.833,114.5 161.167,111.5 158.5,108.5C 192.329,107.502 226.329,107.168 260.5,107.5C 260.832,141.671 260.498,175.671 259.5,209.5 Z"/></g>
<g><path style="opacity:1" fill="#ecf4fa" d="M 426.5,106.5 C 431.262,107.092 432.596,109.592 430.5,114C 424.202,114.495 422.868,111.995 426.5,106.5 Z"/></g>
<g><path style="opacity:1" fill="#f3f8fc" d="M 495.5,106.5 C 496.822,106.33 497.989,106.663 499,107.5C 499.497,109.81 499.663,112.143 499.5,114.5C 493.216,114.496 491.882,111.829 495.5,106.5 Z"/></g>
<g><path style="opacity:1" fill="#3d88d2" d="M 408.5,104.5 C 414.356,104.854 416.523,107.854 415,113.5C 412.339,116.966 409.339,117.299 406,114.5C 405.333,111.833 405.333,109.167 406,106.5C 406.995,105.934 407.828,105.267 408.5,104.5 Z"/></g>
<g><path style="opacity:1" fill="#f7fafd" d="M 408.5,106.5 C 413.262,107.092 414.596,109.592 412.5,114C 410.888,114.72 409.388,114.554 408,113.5C 407.297,111.071 407.463,108.738 408.5,106.5 Z"/></g>
<g><path style="opacity:1" fill="#2b80cf" d="M 479.5,100.5 C 482.602,100.154 485.435,100.821 488,102.5C 488.688,103.332 488.521,103.998 487.5,104.5C 484.448,101.689 481.781,101.856 479.5,105C 481.789,106.922 484.455,108.255 487.5,109C 489.129,115.694 486.463,118.027 479.5,116C 477.74,115.035 477.406,113.868 478.5,112.5C 480.851,114.229 483.518,114.896 486.5,114.5C 486.714,112.856 486.38,111.356 485.5,110C 478.182,109.809 476.182,106.642 479.5,100.5 Z"/></g>
<g><path style="opacity:1" fill="#3484d1" d="M 648.5,100.5 C 649.812,102.743 650.478,105.41 650.5,108.5C 650.167,111.167 649.833,113.833 649.5,116.5C 647.328,116.324 644.995,116.157 642.5,116C 640.496,113.159 639.996,109.993 641,106.5C 643.423,104.006 645.756,104.006 648,106.5C 648.495,104.527 648.662,102.527 648.5,100.5 Z"/></g>
<g><path style="opacity:1" fill="#f5f9fd" d="M 643.5,106.5 C 648.262,107.092 649.596,109.592 647.5,114C 645.888,114.72 644.388,114.554 643,113.5C 642.297,111.071 642.463,108.738 643.5,106.5 Z"/></g>
<g><path style="opacity:1" fill="#3887d2" d="M 507.5,104.5 C 512.167,104.5 514.5,106.833 514.5,111.5C 511.833,111.5 509.167,111.5 506.5,111.5C 506.5,112.5 506.5,113.5 506.5,114.5C 509.011,114.162 511.345,114.162 513.5,114.5C 510.629,117.113 507.795,117.113 505,114.5C 504.333,111.833 504.333,109.167 505,106.5C 505.995,105.934 506.828,105.267 507.5,104.5 Z"/></g>
<g><path style="opacity:1" fill="#f0f6fb" d="M 507.5,106.5 C 509.681,106.284 511.347,107.117 512.5,109C 510.421,109.808 508.421,109.641 506.5,108.5C 506.863,107.817 507.196,107.15 507.5,106.5 Z"/></g>
<g><path style="opacity:1" fill="#3485d1" d="M 631.5,104.5 C 636.373,104.373 638.373,106.706 637.5,111.5C 634.753,111.187 632.086,111.52 629.5,112.5C 630.171,113.946 631.338,114.612 633,114.5C 634.55,114.05 636.05,113.883 637.5,114C 634.682,117.129 631.682,117.295 628.5,114.5C 626.744,110.248 627.744,106.914 631.5,104.5 Z"/></g>
<g><path style="opacity:1" fill="#f0f6fc" d="M 631.5,106.5 C 633.346,106.222 634.68,106.889 635.5,108.5C 633.579,109.641 631.579,109.808 629.5,109C 630.381,108.292 631.047,107.458 631.5,106.5 Z"/></g>
<g><path style="opacity:1" fill="#fdfefe" d="M 155.5,111.5 C 158.5,114.167 161.5,116.833 164.5,119.5C 170.13,125.631 175.964,131.631 182,137.5C 182.5,153.497 182.667,169.497 182.5,185.5C 198.167,185.5 213.833,185.5 229.5,185.5C 238.5,193.833 247.167,202.5 255.5,211.5C 222.183,213.493 188.517,214.16 154.5,213.5C 154.168,179.329 154.502,145.329 155.5,111.5 Z"/></g>
<g><path style="opacity:1" fill="#2b81cf" d="M 393.5,100.5 C 397.539,99.6597 400.539,100.993 402.5,104.5C 402.167,104.833 401.833,105.167 401.5,105.5C 398.71,101.953 395.543,101.62 392,104.5C 389.492,111.974 391.992,115.141 399.5,114C 401.359,110.574 402.193,110.74 402,114.5C 392.122,118.636 388.122,115.303 390,104.5C 390.69,102.65 391.856,101.316 393.5,100.5 Z"/></g>
<g><path style="opacity:1" fill="#3b8ad3" d="M 460.5,105.5 C 461.497,105.47 462.164,105.97 462.5,107C 463.137,109.245 463.97,111.412 465,113.5C 465.689,110.592 466.855,107.925 468.5,105.5C 468.833,106 469.167,106.5 469.5,107C 467.968,111.894 465.802,116.394 463,120.5C 462.5,120.333 462,120.167 461.5,120C 462.894,119.044 463.561,117.711 463.5,116C 462.194,112.583 461.194,109.083 460.5,105.5 Z"/></g>
<g><path style="opacity:1" fill="#5192d6" d="M 579.5,100.5 C 580.5,100.5 581.5,100.5 582.5,100.5C 582.5,105.167 582.5,109.833 582.5,114.5C 584.924,114.192 587.257,114.526 589.5,115.5C 586.232,116.487 582.898,116.82 579.5,116.5C 579.5,111.167 579.5,105.833 579.5,100.5 Z"/></g>
<g><path style="opacity:1" fill="#3684d0" d="M 519.5,104.5 C 523.029,103.889 524.862,105.223 525,108.5C 521.508,105.41 519.342,106.077 518.5,110.5C 519.479,115 521.812,115.667 525.5,112.5C 526.594,113.868 526.26,115.035 524.5,116C 517.495,117.324 514.995,114.49 517,107.5C 518.045,106.627 518.878,105.627 519.5,104.5 Z"/></g>
<g><path style="opacity:1" fill="#878789" d="M 389.5,130.5 C 392.187,130.336 394.854,130.503 397.5,131C 400.907,138.783 398.24,142.283 389.5,141.5C 389.5,137.833 389.5,134.167 389.5,130.5 Z"/></g>
<g><path style="opacity:1" fill="#767678" d="M 495.5,130.5 C 497.857,130.337 500.19,130.503 502.5,131C 503.983,136.026 501.983,138.193 496.5,137.5C 496.657,138.873 496.49,140.207 496,141.5C 495.501,137.848 495.335,134.182 495.5,130.5 Z"/></g>
<g><path style="opacity:1" fill="#f9f9f9" d="M 391.5,131.5 C 397.643,132.026 398.976,134.86 395.5,140C 394.207,140.49 392.873,140.657 391.5,140.5C 391.5,137.5 391.5,134.5 391.5,131.5 Z"/></g>
<g><path style="opacity:1" fill="#ececec" d="M 496.5,131.5 C 498.167,131.5 499.833,131.5 501.5,131.5C 502.167,135.5 500.5,137.167 496.5,136.5C 496.5,134.833 496.5,133.167 496.5,131.5 Z"/></g>
<g><path style="opacity:1" fill="#7b7b7e" d="M 466.5,129.5 C 469.999,129.259 470.332,130.092 467.5,132C 468.308,132.308 468.975,132.808 469.5,133.5C 467.933,135.896 467.1,138.563 467,141.5C 466.003,137.428 465.836,133.428 466.5,129.5 Z"/></g>
<g><path style="opacity:1" fill="#88888a" d="M 435.5,132.5 C 436.822,132.33 437.989,132.663 439,133.5C 439.667,136.167 439.667,138.833 439,141.5C 438.503,139.19 438.337,136.857 438.5,134.5C 437.167,134.5 435.833,134.5 434.5,134.5C 434.808,136.924 434.474,139.257 433.5,141.5C 432.52,138.914 432.187,136.247 432.5,133.5C 433.791,133.737 434.791,133.404 435.5,132.5 Z"/></g>
<g><path style="opacity:1" fill="#8f8f91" d="M 483.5,132.5 C 484.376,132.369 485.043,132.702 485.5,133.5C 484.675,134.386 483.675,134.719 482.5,134.5C 482.808,136.924 482.474,139.257 481.5,141.5C 480.52,138.914 480.187,136.247 480.5,133.5C 481.791,133.737 482.791,133.404 483.5,132.5 Z"/></g>
<g><path style="opacity:1" fill="#48ab9e" d="M 166.5,117.5 C 172.631,123.13 178.631,128.964 184.5,135C 200.497,135.5 216.497,135.667 232.5,135.5C 232.5,151.167 232.5,166.833 232.5,182.5C 231.504,167.342 231.17,152.009 231.5,136.5C 215.5,136.5 199.5,136.5 183.5,136.5C 183.5,152.5 183.5,168.5 183.5,184.5C 199.009,184.17 214.342,184.504 229.5,185.5C 213.833,185.5 198.167,185.5 182.5,185.5C 182.667,169.497 182.5,153.497 182,137.5C 175.964,131.631 170.13,125.631 164.5,119.5C 164.5,118.167 165.167,117.5 166.5,117.5 Z"/></g>
<g><path style="opacity:1" fill="#838385" d="M 415.5,140.5 C 413.882,138.675 412.215,136.842 410.5,135C 412.405,132.069 414.405,131.903 416.5,134.5C 415.313,134.554 413.98,134.887 412.5,135.5C 413.628,136.262 414.795,136.929 416,137.5C 416.74,138.749 416.573,139.749 415.5,140.5 Z"/></g>
<g><path style="opacity:1" fill="#848486" d="M 424.5,132.5 C 426.331,133.052 427.997,133.052 429.5,132.5C 430.657,135.784 430.824,139.118 430,142.5C 427.692,144.983 425.192,145.149 422.5,143C 424.425,143.135 426.425,143.302 428.5,143.5C 428.911,140.724 428.078,140.057 426,141.5C 421.967,139.164 421.467,136.164 424.5,132.5 Z"/></g>
<g><path style="opacity:1" fill="#f2f2f3" d="M 424.5,134.5 C 425.833,134.5 427.167,134.5 428.5,134.5C 428.5,136.167 428.5,137.833 428.5,139.5C 424.065,140.078 422.732,138.411 424.5,134.5 Z"/></g>
<g><path style="opacity:1" fill="#7f7f81" d="M 506.5,132.5 C 508.144,132.286 509.644,132.62 511,133.5C 511.497,136.146 511.664,138.813 511.5,141.5C 509.208,141.756 507.041,141.423 505,140.5C 504.333,139.5 504.333,138.5 505,137.5C 510.406,136.283 510.573,135.116 505.5,134C 506.056,133.617 506.389,133.117 506.5,132.5 Z"/></g>
<g><path style="opacity:1" fill="#88888a" d="M 472.5,132.5 C 478.643,133.026 479.976,135.86 476.5,141C 471.504,141.664 469.67,139.498 471,134.5C 471.717,133.956 472.217,133.289 472.5,132.5 Z"/></g>
<g><path style="opacity:1" fill="#fafafa" d="M 472.5,134.5 C 473.833,134.5 475.167,134.5 476.5,134.5C 476.949,136.977 476.283,138.977 474.5,140.5C 472.717,138.977 472.051,136.977 472.5,134.5 Z"/></g>
<g><path style="opacity:1" fill="#88888b" d="M 519.5,129.5 C 521.423,133.029 522.089,137.029 521.5,141.5C 514.003,142.196 512.003,139.363 515.5,133C 516.784,132.316 517.951,132.483 519,133.5C 519.49,132.207 519.657,130.873 519.5,129.5 Z"/></g>
<g><path style="opacity:1" fill="#f2f2f2" d="M 515.5,134.5 C 521.175,134.86 521.842,136.86 517.5,140.5C 515.717,138.977 515.051,136.977 515.5,134.5 Z"/></g>
<g><path style="opacity:1" fill="#e7e7e8" d="M 506.5,137.5 C 507.978,137.238 509.311,137.571 510.5,138.5C 509.68,140.111 508.346,140.778 506.5,140.5C 506.5,139.5 506.5,138.5 506.5,137.5 Z"/></g>
<g><path style="opacity:1" fill="#7e7e81" d="M 403.5,132.5 C 406.833,132.5 408.5,134.167 408.5,137.5C 406.396,137.201 404.396,137.534 402.5,138.5C 403.748,140.69 405.414,141.023 407.5,139.5C 408.696,139.846 408.696,140.346 407.5,141C 403.819,142.314 401.486,141.147 400.5,137.5C 400.757,135.308 401.757,133.641 403.5,132.5 Z"/></g>
<g><path style="opacity:1" fill="#f7f7f8" d="M 402.5,134.5 C 403.978,134.238 405.311,134.571 406.5,135.5C 405.833,135.833 405.167,136.167 404.5,136.5C 403.287,136.253 402.62,135.586 402.5,134.5 Z"/></g>
<g><path style="opacity:1" fill="#717174" d="M 415.5,140.5 C 413.815,141.844 412.148,141.677 410.5,140C 412.107,140.019 413.774,140.185 415.5,140.5 Z"/></g>
<g><path style="opacity:1" fill="#858587" d="M 443.5,132.5 C 447.349,132.019 449.349,133.686 449.5,137.5C 447.396,137.201 445.396,137.534 443.5,138.5C 444.748,140.69 446.414,141.023 448.5,139.5C 449.696,139.846 449.696,140.346 448.5,141C 441.416,141.475 439.749,138.642 443.5,132.5 Z"/></g>
<g><path style="opacity:1" fill="#f7f7f7" d="M 443.5,134.5 C 444.978,134.238 446.311,134.571 447.5,135.5C 446.833,135.833 446.167,136.167 445.5,136.5C 444.287,136.253 443.62,135.586 443.5,134.5 Z"/></g>
<g><path style="opacity:1" fill="#848486" d="M 456.5,129.5 C 458.423,133.029 459.089,137.029 458.5,141.5C 451.06,142.247 449.06,139.413 452.5,133C 453.793,132.51 455.127,132.343 456.5,132.5C 456.5,131.5 456.5,130.5 456.5,129.5 Z"/></g>
<g><path style="opacity:1" fill="#f2f2f2" d="M 452.5,134.5 C 456.909,133.899 458.242,135.566 456.5,139.5C 455.28,140.711 454.113,140.711 453,139.5C 452.506,137.866 452.34,136.199 452.5,134.5 Z"/></g>
<g><path style="opacity:1" fill="#f99f2e" d="M 394.5,166.5 C 395.98,168.412 397.98,169.579 400.5,170C 399.272,170.779 398.272,171.779 397.5,173C 398.187,174.162 398.353,175.328 398,176.5C 396,173.833 394,173.833 392,176.5C 391.647,175.328 391.813,174.162 392.5,173C 391.728,171.779 390.728,170.779 389.5,170C 391.936,169.794 393.602,168.627 394.5,166.5 Z"/></g>
<g><path style="opacity:1" fill="#f99f2e" d="M 406.5,166.5 C 407.98,168.412 409.98,169.579 412.5,170C 411.272,170.779 410.272,171.779 409.5,173C 410.187,174.162 410.353,175.328 410,176.5C 408,173.833 406,173.833 404,176.5C 403.647,175.328 403.813,174.162 404.5,173C 403.728,171.779 402.728,170.779 401.5,170C 403.936,169.794 405.602,168.627 406.5,166.5 Z"/></g>
<g><path style="opacity:1" fill="#f99f2e" d="M 419.5,166.5 C 420.98,168.412 422.98,169.579 425.5,170C 424.272,170.779 423.272,171.779 422.5,173C 423.187,174.162 423.353,175.328 423,176.5C 421,173.833 419,173.833 417,176.5C 416.647,175.328 416.813,174.162 417.5,173C 416.728,171.779 415.728,170.779 414.5,170C 416.936,169.794 418.602,168.627 419.5,166.5 Z"/></g>
<g><path style="opacity:1" fill="#f99f2e" d="M 431.5,166.5 C 432.98,168.412 434.98,169.579 437.5,170C 436.272,170.779 435.272,171.779 434.5,173C 435.187,174.162 435.353,175.328 435,176.5C 433,173.833 431,173.833 429,176.5C 428.647,175.328 428.813,174.162 429.5,173C 428.728,171.779 427.728,170.779 426.5,170C 428.936,169.794 430.602,168.627 431.5,166.5 Z"/></g>
<g><path style="opacity:1" fill="#cbf3ef" d="M 259.5,209.5 C 260.498,175.671 260.832,141.671 260.5,107.5C 226.329,107.168 192.329,107.502 158.5,108.5C 157.711,108.217 157.044,107.717 156.5,107C 191.498,106.5 226.498,106.333 261.5,106.5C 261.667,141.502 261.5,176.502 261,211.5C 260.283,210.956 259.783,210.289 259.5,209.5 Z"/></g>
<g><path style="opacity:1" fill="#f9a02f" d="M 443.5,167.5 C 445.103,170.768 444.603,173.768 442,176.5C 441.647,175.328 441.813,174.162 442.5,173C 441.728,171.779 440.728,170.779 439.5,170C 441.437,169.878 442.77,169.045 443.5,167.5 Z"/></g>
<g><path style="opacity:1" fill="#c8c8ca" d="M 541.5,171.5 C 544.09,171.577 546.757,171.411 549.5,171C 550.34,172.666 549.84,172.833 548,171.5C 546.221,173.017 546.721,173.851 549.5,174C 550.451,174.718 550.617,175.551 550,176.5C 548.333,177.833 546.667,177.833 545,176.5C 543.545,179.829 541.379,180.662 538.5,179C 539.833,178.667 541.167,178.333 542.5,178C 537.956,177.978 536.456,175.812 538,171.5C 539.292,170.209 540.458,170.209 541.5,171.5 Z"/></g>
<g><path style="opacity:1" fill="#d3d3d4" d="M 523.5,169.5 C 525.042,170.301 526.708,170.634 528.5,170.5C 528.5,172.833 528.5,175.167 528.5,177.5C 526.833,177.5 525.167,177.5 523.5,177.5C 523.208,174.624 523.208,171.957 523.5,169.5 Z"/></g>
<g><path style="opacity:1" fill="#99999c" d="M 479.5,172.5 C 480.5,172.5 481.5,172.5 482.5,172.5C 482.5,173.5 482.5,174.5 482.5,175.5C 479.433,175.879 478.433,174.879 479.5,172.5 Z"/></g>
<g><path style="opacity:1" fill="#f3f3f3" d="M 541.5,171.5 C 543.038,173.551 542.704,175.218 540.5,176.5C 537.71,174.203 538.044,172.536 541.5,171.5 Z"/></g>
<g><path style="opacity:1" fill="#d0d0d1" d="M 488.5,168.5 C 494.167,168.664 494.5,168.997 489.5,169.5C 489.119,171.942 489.786,172.609 491.5,171.5C 494.313,172.617 494.98,174.45 493.5,177C 491.833,177.667 490.167,177.667 488.5,177C 488.173,174.315 488.173,171.482 488.5,168.5 Z"/></g>
<g><path style="opacity:1" fill="#b2b2b5" d="M 496.5,168.5 C 502.324,168.347 502.657,169.013 497.5,170.5C 500.832,171.31 502.332,173.31 502,176.5C 500.186,177.76 498.353,177.76 496.5,176.5C 497.557,176.094 498.891,176.094 500.5,176.5C 500.883,173.538 499.883,172.538 497.5,173.5C 496.548,171.955 496.215,170.288 496.5,168.5 Z"/></g>
<g><path style="opacity:1" fill="#bdbdbf" d="M 507.5,168.5 C 509.199,168.34 510.866,168.506 512.5,169C 513.059,169.725 513.392,170.558 513.5,171.5C 512.392,173.518 512.225,175.518 513,177.5C 512.092,175.561 510.592,174.561 508.5,174.5C 507.223,175.317 506.89,173.317 507.5,168.5 Z"/></g>
<g><path style="opacity:1" fill="#b4b4b7" d="M 516.5,170.5 C 517.822,170.33 518.989,170.663 520,171.5C 520.495,173.473 520.662,175.473 520.5,177.5C 518.833,177.5 517.167,177.5 515.5,177.5C 515.22,174.612 516.553,173.112 519.5,173C 518.428,171.716 517.095,171.383 515.5,172C 516.056,171.617 516.389,171.117 516.5,170.5 Z"/></g>
<g><path style="opacity:1" fill="#b5b5b7" d="M 532.5,170.5 C 533.496,170.414 534.329,170.748 535,171.5C 535.667,173.5 535.667,175.5 535,177.5C 534.506,175.866 534.34,174.199 534.5,172.5C 533.5,172.5 532.5,172.5 531.5,172.5C 531.66,174.199 531.494,175.866 531,177.5C 530.185,174.802 530.685,172.468 532.5,170.5 Z"/></g>
<g><path style="opacity:1" fill="#b2b2b5" d="M 459.5,168.5 C 461.141,170.203 462.141,172.37 462.5,175C 461.874,175.75 461.374,176.584 461,177.5C 459.951,175.893 458.451,175.227 456.5,175.5C 457.011,172.978 458.011,170.645 459.5,168.5 Z"/></g>
<g><path style="opacity:1" fill="#6b6b6b" d="M 389.5,204.5 C 391.857,204.337 394.19,204.503 396.5,205C 394.866,205.494 393.199,205.66 391.5,205.5C 391.5,206.833 391.5,208.167 391.5,209.5C 398.167,209.833 398.167,210.167 391.5,210.5C 391.785,212.288 391.452,213.955 390.5,215.5C 389.511,211.893 389.177,208.226 389.5,204.5 Z"/></g>
<g><path style="opacity:1" fill="#7c7c7c" d="M 401.5,206.5 C 402.376,206.369 403.043,206.702 403.5,207.5C 402.675,208.386 401.675,208.719 400.5,208.5C 400.808,210.924 400.474,213.257 399.5,215.5C 398.52,212.914 398.187,210.247 398.5,207.5C 399.791,207.737 400.791,207.404 401.5,206.5 Z"/></g>
<g><path style="opacity:1" fill="#555555" d="M 406.5,206.5 C 410.172,206.183 411.838,207.849 411.5,211.5C 409.712,211.215 408.045,211.548 406.5,212.5C 406.833,213.5 407.5,214.167 408.5,214.5C 409.451,213.674 410.451,213.508 411.5,214C 407.69,216.409 405.356,215.409 404.5,211C 404.519,209.167 405.185,207.667 406.5,206.5 Z"/></g>
<g><path style="opacity:1" fill="#f3f3f3" d="M 406.5,208.5 C 408.103,208.312 409.437,208.812 410.5,210C 408.833,210.667 407.167,210.667 405.5,210C 406.056,209.617 406.389,209.117 406.5,208.5 Z"/></g>
<g><path style="opacity:1" fill="#555555" d="M 415.5,206.5 C 419.172,206.183 420.838,207.849 420.5,211.5C 418.712,211.215 417.045,211.548 415.5,212.5C 415.833,213.5 416.5,214.167 417.5,214.5C 418.451,213.674 419.451,213.508 420.5,214C 416.69,216.409 414.356,215.409 413.5,211C 413.519,209.167 414.185,207.667 415.5,206.5 Z"/></g>
<g><path style="opacity:1" fill="#f3f3f3" d="M 415.5,208.5 C 417.103,208.312 418.437,208.812 419.5,210C 417.833,210.667 416.167,210.667 414.5,210C 415.056,209.617 415.389,209.117 415.5,208.5 Z"/></g>
<g><path style="opacity:1" fill="#d2f4f3" d="M 155.5,111.5 C 154.502,145.329 154.168,179.329 154.5,213.5C 188.517,214.16 222.183,213.493 255.5,211.5C 256.627,212.122 257.627,212.955 258.5,214C 223.502,214.5 188.502,214.667 153.5,214.5C 153.333,179.498 153.5,144.498 154,109.5C 154.717,110.044 155.217,110.711 155.5,111.5 Z"/></g>
<g><path style="opacity:1" fill="#e8e8e8" d="M 84.5,287.5 C 84.8966,286.475 85.5632,286.308 86.5,287C 92.5362,292.019 99.2028,296.019 106.5,299C 116.347,301.454 126.347,302.788 136.5,303C 183.833,303.667 231.167,303.667 278.5,303C 288.653,302.788 298.653,301.454 308.5,299C 313.975,296.586 319.309,294.253 324.5,292C 314.628,298.959 303.628,302.959 291.5,304C 235.5,304.667 179.5,304.667 123.5,304C 108.553,302.853 95.553,297.353 84.5,287.5 Z"/></g>
</svg>
