<svg width="48" height="48" viewBox="0 0 48 48" fill="none" xmlns="http://www.w3.org/2000/svg">
<path fill-rule="evenodd" clip-rule="evenodd" d="M12.6171 13.8205C16.0902 13.8205 18.0411 11.8663 18.0411 8.39654C18.0411 4.92683 16.0868 2.96912 12.6171 2.96912C9.14735 2.96912 7.18963 4.9234 7.18963 8.39654C7.18963 11.8697 9.14392 13.8205 12.6171 13.8205ZM37.7142 16.5051C37.7277 16.8428 37.8076 17.1745 37.9493 17.4813C38.091 17.7881 38.2918 18.064 38.5401 18.2933C38.7884 18.5225 39.0795 18.7006 39.3966 18.8173C39.7138 18.9341 40.0508 18.9872 40.3885 18.9737C40.7262 18.9602 41.0579 18.8803 41.3647 18.7386C41.6715 18.5969 41.9474 18.3961 42.1766 18.1478C42.4059 17.8995 42.5839 17.6084 42.7007 17.2913C42.8174 16.9741 42.8706 16.6371 42.8571 16.2994C42.8119 15.1892 42.7559 14.0794 42.6891 12.9703C42.5609 10.7463 41.6201 8.64691 40.0455 7.07108C38.471 5.49525 36.3724 4.5528 34.1485 4.42283C32.4365 4.32226 30.7371 4.24797 29.0502 4.19997C28.3682 4.18042 27.7064 4.43259 27.2103 4.901C26.7143 5.36942 26.4246 6.0157 26.4051 6.69769C26.3855 7.37967 26.6377 8.04149 27.1061 8.53755C27.5745 9.03361 28.2208 9.32328 28.9028 9.34283C30.5371 9.38855 32.1839 9.46055 33.8433 9.55883C34.8109 9.61289 35.7246 10.0213 36.4101 10.7062C37.0957 11.3911 37.505 12.3045 37.5599 13.272C37.6239 14.3554 37.6765 15.4331 37.7176 16.5051H37.7142ZM18.4971 44.7703C19.1702 44.7776 19.8193 44.5206 20.3051 44.0546C20.7909 43.5886 21.0746 42.9507 21.0952 42.2779C21.1159 41.605 20.8718 40.9509 20.4156 40.456C19.9593 39.9611 19.3271 39.6648 18.6548 39.6308C17.1119 39.5851 15.5565 39.5154 13.9885 39.4217C13.0204 39.3676 12.1062 38.9586 11.4206 38.273C10.735 37.5874 10.3261 36.6732 10.2719 35.7051L10.1931 34.2514C10.152 33.5751 9.84573 32.9423 9.3407 32.4905C8.83568 32.0388 8.17277 31.8046 7.49606 31.839C6.81935 31.8733 6.18354 32.1733 5.72683 32.6739C5.27012 33.1744 5.02942 33.835 5.05706 34.512L5.13935 36.0103C5.26842 38.2342 6.21003 40.3332 7.78523 41.9084C9.36042 43.4836 11.4594 44.4252 13.6833 44.5543C15.3016 44.6525 16.9062 44.7245 18.4971 44.7703ZM35.3828 35.5988C39.8502 35.5988 42.9153 38.7188 43.5496 43.0663C43.6868 44.0023 42.9016 44.7737 41.9553 44.7737H28.8068C27.8605 44.7737 27.0753 44.0023 27.2125 43.0663C27.8468 38.7154 30.9119 35.5988 35.3828 35.5988ZM20.7839 23.5988C20.1531 19.2548 17.0879 16.1383 12.6171 16.1383C8.1462 16.1383 5.08106 19.2583 4.44678 23.6057C4.30963 24.5417 5.09478 25.3131 6.04106 25.3131H19.1931C20.1393 25.3131 20.9211 24.5417 20.7839 23.6057V23.5988ZM40.8068 27.864C40.8068 31.3371 38.8525 33.2914 35.3793 33.2914C31.9062 33.2914 29.9553 31.3371 29.9553 27.864C29.9553 24.3908 31.9096 22.4365 35.3793 22.4365C38.8491 22.4365 40.8068 24.3908 40.8068 27.864Z" fill="#011B78"/>
</svg>
