<svg width="48" height="48" viewBox="0 0 48 48" fill="none" xmlns="http://www.w3.org/2000/svg">
<path d="M24 16.5C25.5913 16.5 27.1174 15.8679 28.2426 14.7426C29.3679 13.6174 30 12.0913 30 10.5C30 8.9087 29.3679 7.38258 28.2426 6.25736C27.1174 5.13214 25.5913 4.5 24 4.5C22.4087 4.5 20.8826 5.13214 19.7574 6.25736C18.6321 7.38258 18 8.9087 18 10.5C18 12.0913 18.6321 13.6174 19.7574 14.7426C20.8826 15.8679 22.4087 16.5 24 16.5ZM15 11.25C15 11.9394 14.8642 12.6221 14.6004 13.2591C14.3365 13.896 13.9498 14.4748 13.4623 14.9623C12.9748 15.4498 12.396 15.8365 11.7591 16.1004C11.1221 16.3642 10.4394 16.5 9.75 16.5C9.06056 16.5 8.37787 16.3642 7.74091 16.1004C7.10395 15.8365 6.5252 15.4498 6.03769 14.9623C5.55018 14.4748 5.16347 13.896 4.89963 13.2591C4.6358 12.6221 4.5 11.9394 4.5 11.25C4.5 9.85761 5.05312 8.52226 6.03769 7.53769C7.02226 6.55312 8.35761 6 9.75 6C11.1424 6 12.4777 6.55312 13.4623 7.53769C14.4469 8.52226 15 9.85761 15 11.25ZM43.5 11.25C43.5 11.9394 43.3642 12.6221 43.1004 13.2591C42.8365 13.896 42.4498 14.4748 41.9623 14.9623C41.4748 15.4498 40.896 15.8365 40.2591 16.1004C39.6221 16.3642 38.9394 16.5 38.25 16.5C37.5606 16.5 36.8779 16.3642 36.2409 16.1004C35.604 15.8365 35.0252 15.4498 34.5377 14.9623C34.0502 14.4748 33.6635 13.896 33.3996 13.2591C33.1358 12.6221 33 11.9394 33 11.25C33 9.85761 33.5531 8.52226 34.5377 7.53769C35.5223 6.55312 36.8576 6 38.25 6C39.6424 6 40.9777 6.55312 41.9623 7.53769C42.9469 8.52226 43.5 9.85761 43.5 11.25ZM14.0655 19.5C13.2116 20.5631 12.7474 21.8864 12.75 23.25V34.5C12.75 36.3525 13.197 38.1 13.9905 39.6405C12.8473 40.2416 11.5682 40.5373 10.2772 40.4989C8.98618 40.4606 7.72694 40.0894 6.62146 39.4215C5.51598 38.7536 4.60172 37.8115 3.96726 36.6864C3.33279 35.5614 2.99961 34.2916 3 33V23.25C3 22.2554 3.39509 21.3016 4.09835 20.5984C4.80161 19.8951 5.75544 19.5 6.75 19.5H14.0655ZM34.0095 39.6405C34.8256 38.0499 35.2508 36.2877 35.25 34.5V23.25C35.25 21.831 34.758 20.5275 33.9345 19.5H41.25C42.2446 19.5 43.1984 19.8951 43.9016 20.5984C44.6049 21.3016 45 22.2554 45 23.25V33C45.0004 34.2916 44.6672 35.5614 44.0327 36.6864C43.3983 37.8115 42.484 38.7536 41.3785 39.4215C40.2731 40.0894 39.0138 40.4606 37.7228 40.4989C36.4318 40.5373 35.1527 40.2416 34.0095 39.6405ZM18.75 19.5C17.7554 19.5 16.8016 19.8951 16.0983 20.5984C15.3951 21.3016 15 22.2554 15 23.25V34.5C15 36.8869 15.9482 39.1761 17.636 40.864C19.3239 42.5518 21.6131 43.5 24 43.5C26.3869 43.5 28.6761 42.5518 30.364 40.864C32.0518 39.1761 33 36.8869 33 34.5V23.25C33 22.2554 32.6049 21.3016 31.9016 20.5984C31.1984 19.8951 30.2446 19.5 29.25 19.5H18.75Z" fill="#011B78"/>
</svg>
