<?xml version="1.0" encoding="UTF-8"?>
<svg version="1.1" xmlns="http://www.w3.org/2000/svg" width="500" height="500">
<path d="M0 0 C3 1 3 1 4.09985352 2.64794922 C4.43944092 3.35967285 4.77902832 4.07139648 5.12890625 4.8046875 C5.71285156 6.00460327 5.71285156 6.00460327 6.30859375 7.22875977 C6.92927734 8.53864868 6.92927734 8.53864868 7.5625 9.875 C8.4683258 11.73651809 9.37591631 13.59717837 10.28515625 15.45703125 C10.97182373 16.86782959 10.97182373 16.86782959 11.67236328 18.30712891 C13.54172714 22.09879558 15.51161312 25.83225561 17.5 29.5625 C22.30842475 38.62611581 27.00097374 47.7479898 31.6875 56.875 C33.26033339 59.93754278 34.83324266 63.00004656 36.40625 66.0625 C36.79523972 66.8198494 37.18422943 67.57719879 37.58500671 68.35749817 C41.27339392 75.5364449 44.97732261 82.70729504 48.6875 89.875 C49.59761841 91.63336182 49.59761841 91.63336182 50.52612305 93.42724609 C51.74175528 95.77544587 52.95749352 98.12359076 54.17333984 100.47167969 C56.97026736 105.87413845 59.76485313 111.27780776 62.55947876 116.68145752 C64.12287661 119.70436151 65.68644682 122.72717635 67.25 125.75 C67.87500083 126.9583329 68.50000083 128.16666624 69.125 129.375 C69.434375 129.973125 69.74375 130.57125 70.0625 131.1875 C71 133 71.9375 134.8125 72.875 136.625 C73.18435486 137.22308472 73.49370972 137.82116943 73.81243896 138.43737793 C74.43764684 139.64611587 75.06285029 140.85485611 75.68804932 142.06359863 C77.24733253 145.07826019 78.80669186 148.09288232 80.36621094 151.10742188 C83.21711956 156.61839578 86.06741396 162.12968364 88.91493225 167.64241028 C90.20804341 170.14573904 91.50156603 172.64885507 92.7951355 175.15194702 C93.42758377 176.37599285 94.0598494 177.60013306 94.69192505 178.82437134 C97.89890306 185.03541525 101.11823011 191.23903737 104.38671875 197.41796875 C104.90459961 198.39830078 105.42248047 199.37863281 105.95605469 200.38867188 C106.91784606 202.20574113 107.88314074 204.02096198 108.85253906 205.83398438 C109.27116211 206.62482422 109.68978516 207.41566406 110.12109375 208.23046875 C110.4864624 208.91520264 110.85183105 209.59993652 111.22827148 210.30541992 C112 212 112 212 112 214 C113.0725 213.835 114.145 213.67 115.25 213.5 C118.95051444 213.02688997 122.56730516 212.948314 126.296875 212.96875 C127.90320801 212.97551758 127.90320801 212.97551758 129.54199219 212.98242188 C130.75870605 212.99112305 130.75870605 212.99112305 132 213 C132.34144043 213.68811768 132.68288086 214.37623535 133.03466797 215.08520508 C141.60559295 232.3440962 141.60559295 232.3440962 150.5 249.4375 C153.92155608 255.86344865 157.10683723 262.31631209 160 269 C106.92688859 270.48738958 51.69253505 257.20193219 5 232 C4.0419043 231.49484863 4.0419043 231.49484863 3.06445312 230.97949219 C-12.96782172 222.50619059 -27.48817205 212.0698376 -41 200 C-41.54108398 199.52062988 -42.08216797 199.04125977 -42.63964844 198.54736328 C-83.49682627 162.20724001 -110.62194337 108.5832613 -116 54 C-116.02569881 52.00016511 -116.03234871 49.99973837 -116 48 C-114.21209629 50.68185556 -113.56636787 52.13396616 -112.80859375 55.1484375 C-105.92324001 81.41431454 -94.29553116 106.30973412 -78.25878906 128.26464844 C-77.37197427 129.48720071 -76.50023845 130.72076163 -75.63964844 131.96191406 C-73.33440869 135.5290472 -73.33440869 135.5290472 -70 138 C-69.77505859 137.22035889 -69.55011719 136.44071777 -69.31835938 135.63745117 C-67.56872642 130.81008423 -65.25654313 126.36004528 -62.90625 121.80078125 C-62.40009155 120.81111862 -61.89393311 119.82145599 -61.37243652 118.80180359 C-59.75222943 115.63666656 -58.12608236 112.47462187 -56.5 109.3125 C-55.43713669 107.23651409 -54.37463333 105.16034385 -53.3125 103.08398438 C-48.1152238 92.93618544 -42.8708109 82.81521272 -37.54550171 72.73402405 C-33.72166782 65.49024418 -29.97238293 58.20922038 -26.23687744 50.91958618 C-20.10574543 38.95602007 -13.94785097 27.00756111 -7.70361328 15.10253906 C-5.07951578 10.09492676 -2.51198396 5.06486069 0 0 Z M1 138 C-5.08448658 148.98421554 -11.10709726 160.00067979 -16.8125 171.1875 C-17.25062012 172.02958008 -17.68874023 172.87166016 -18.14013672 173.73925781 C-18.53346191 174.52010742 -18.92678711 175.30095703 -19.33203125 176.10546875 C-19.67983643 176.78762451 -20.0276416 177.46978027 -20.38598633 178.17260742 C-21.26947111 180.19478763 -21.26947111 180.19478763 -20 183 C-5.26708859 192.96773538 15.51658148 201.70295395 33 205 C33.99 204.67 34.98 204.34 36 204 C30.03790071 191.96463205 23.99236915 179.98495629 17.703125 168.1171875 C14.39278425 161.86684093 11.13533965 155.58903045 7.875 149.3125 C7.29379395 148.19383545 6.71258789 147.0751709 6.11376953 145.92260742 C4.74211896 143.28194259 3.37084121 140.64108506 2 138 C1.67 138 1.34 138 1 138 Z " fill="#000101" transform="translate(256,99)"/>
<path d="M0 0 C1.78790371 2.68185556 2.43363213 4.13396616 3.19140625 7.1484375 C10.28779217 34.21934873 22.46312346 59.42735274 39 82 C39.76054687 83.06605469 40.52109375 84.13210937 41.3046875 85.23046875 C55.98118101 105.41717601 74.4286897 121.47714199 96 134 C97.08152344 134.63550781 98.16304688 135.27101563 99.27734375 135.92578125 C138.78966961 158.10424087 181.22470936 165.49565424 225.9375 165.125 C228.09700095 165.11492785 230.25650657 165.10580965 232.41601562 165.09765625 C237.61079647 165.07602925 242.8053435 165.04174478 248 165 C248.34144043 165.68811768 248.68288086 166.37623535 249.03466797 167.08520508 C257.60559295 184.3440962 257.60559295 184.3440962 266.5 201.4375 C269.92155608 207.86344865 273.10683723 214.31631209 276 221 C222.92688859 222.48738958 167.69253505 209.20193219 121 184 C120.0419043 183.49484863 120.0419043 183.49484863 119.06445312 182.97949219 C103.03217828 174.50619059 88.51182795 164.0698376 75 152 C74.45891602 151.52062988 73.91783203 151.04125977 73.36035156 150.54736328 C32.50317373 114.20724001 5.37805663 60.5832613 0 6 C-0.02569881 4.00016511 -0.03234871 1.99973837 0 0 Z " fill="#C52C2F" transform="translate(140,147)"/>
<path d="M0 0 C3.21109666 1.40837573 5.29599049 3.08035636 7.72265625 5.59765625 C8.4202002 6.31228027 9.11774414 7.0269043 9.83642578 7.76318359 C10.93833252 8.90134521 10.93833252 8.90134521 12.0625 10.0625 C23.62032275 21.79118814 36.29380243 31.86253496 50 41 C48.59449902 45.61266671 46.70159585 49.80659018 44.47265625 54.06640625 C44.12424179 54.7405809 43.77582733 55.41475555 43.41685486 56.10935974 C42.30278082 58.26253055 41.18272002 60.41252154 40.0625 62.5625 C39.34531626 63.9470653 38.62851675 65.3318297 37.91210938 66.71679688 C31.97925655 78.16439783 25.9827742 89.57834017 20 101 C-3.76 101 -27.52 101 -52 101 C-46.42183122 89.22386591 -40.81891516 77.54904227 -34.8125 66 C-34.07436543 64.57524872 -33.33649659 63.15035974 -32.59887695 61.7253418 C-31.11218329 58.85427409 -29.6236619 55.98416521 -28.13378906 53.11474609 C-26.15161137 49.29538727 -24.17993968 45.47069457 -22.2109375 41.64453125 C-15.00151055 27.6539309 -7.61355884 13.7750036 0 0 Z " fill="#C72C2F" transform="translate(160,286)"/>
<path d="M0 0 C0.66 0 1.32 0 2 0 C2 1.65 2 3.3 2 5 C2.66 5 3.32 5 4 5 C4.33 6.65 4.66 8.3 5 10 C5.66 10 6.32 10 7 10 C7.25394531 10.59167969 7.50789062 11.18335938 7.76953125 11.79296875 C9.62409779 16.05083126 11.59022737 20.02387516 14 24 C14 24.66 14 25.32 14 26 C14.66 26 15.32 26 16 26 C16.515625 26.928125 17.03125 27.85625 17.5625 28.8125 C20.00239957 33.09317789 22.67432445 37.21678449 25.33984375 41.359375 C26.66186852 43.46217205 27.88636975 45.5650551 29.0625 47.75 C30.63904326 50.39452418 32.08974082 52.3114543 34.125 54.5625 C36.76102613 57.50473119 38.0515602 60.11139682 39 64 C39.66 64 40.32 64 41 64 C41 64.66 41 65.32 41 66 C41.66 66 42.32 66 43 66 C43.33 66.99 43.66 67.98 44 69 C44.70125 69.391875 45.4025 69.78375 46.125 70.1875 C50.90688695 73.20216786 55.195867 77.58760101 57 83 C58.76591887 84.00916033 58.76591887 84.00916033 61 85 C64.25 87 64.25 87 67 89 C67 89.66 67 90.32 67 91 C67.66 91 68.32 91 69 91 C69 91.66 69 92.32 69 93 C70.65 93.33 72.3 93.66 74 94 C74.33 95.32 74.66 96.64 75 98 C75.598125 98.103125 76.19625 98.20625 76.8125 98.3125 C79.35431617 99.11135651 80.17376486 100.10071545 82 102 C85.51513434 104.37509077 88.94567141 105.77427275 93 107 C93 107.66 93 108.32 93 109 C94.98 109.495 94.98 109.495 97 110 C97 110.66 97 111.32 97 112 C97.66 112 98.32 112 99 112 C99.42410156 112.43054688 99.84820312 112.86109375 100.28515625 113.3046875 C102.45132637 115.44618597 104.76014394 116.67915507 107.4375 118.125 C108.85869141 118.90230469 108.85869141 118.90230469 110.30859375 119.6953125 C112.58574366 120.79918488 114.53109526 121.52139435 117 122 C117 122.66 117 123.32 117 124 C118.175625 124.37125 118.175625 124.37125 119.375 124.75 C125.71150974 126.93500336 131.85465756 129.35685952 137.8125 132.4375 C145.85826769 136.53652676 153.98782779 140.02041606 163 141 C163.99 141.66 164.98 142.32 166 143 C167.65549531 143.38499891 169.3222433 143.72793135 171 144 C171 144.66 171 145.32 171 146 C171.86625 145.95875 172.7325 145.9175 173.625 145.875 C177.20812601 146.00770837 179.60418934 146.86806311 183 148 C184.93378065 148.33474601 186.8719082 148.64481252 188.8125 148.9375 C193.30732691 149.64050864 197.34261262 150.70174014 201.61083984 152.23657227 C210.40690242 155.04724953 219.92706876 155.66182382 229.0625 156.625 C230.26455078 156.7590625 231.46660156 156.893125 232.70507812 157.03125 C238.84145307 157.68740357 244.83709942 158.143754 251.00952148 157.95068359 C253 158 253 158 256 159 C255.67 157.02 255.34 155.04 255 153 C257.16131441 155.72950901 258.79176521 158.39393117 260.26171875 161.546875 C260.65810547 162.39121094 261.05449219 163.23554688 261.46289062 164.10546875 C262.06907227 165.41451172 262.06907227 165.41451172 262.6875 166.75 C263.31108398 168.08224609 263.31108398 168.08224609 263.94726562 169.44140625 C264.96896213 171.62572291 265.98637935 173.81192708 267 176 C213.92688859 177.48738958 158.69253505 164.20193219 112 139 C111.0419043 138.49484863 111.0419043 138.49484863 110.06445312 137.97949219 C94.03217828 129.50619059 79.51182795 119.0698376 66 107 C65.45891602 106.52062988 64.91783203 106.04125977 64.36035156 105.54736328 C34.1366769 78.665133 10.53410295 42.29497615 0 3 C0 2.01 0 1.02 0 0 Z " fill="#992D34" transform="translate(149,192)"/>
<path d="M0 0 C4.5562576 4.23081063 6.80518656 8.75297757 7.125 15 C6.82788516 20.94229672 4.43530031 24.75966069 0.0625 28.8125 C-4.81598798 32.06482532 -9.69916613 31.92450603 -15.375 31.4375 C-21.01441313 29.45326205 -23.82149512 26.31148403 -26.625 21.125 C-28.39520713 14.78175779 -27.79638701 9.881156 -24.6484375 4.19921875 C-18.73741039 -3.97830648 -8.3914776 -3.88494333 0 0 Z " fill="#C42C2F" transform="translate(195.375,178.5625)"/>
<path d="M0 0 C1.78790371 2.68185556 2.43363213 4.13396616 3.19140625 7.1484375 C9.64808418 31.7790251 20.15649671 55.66704289 35.18359375 76.3125 C37.52056503 79.77021234 38.82715419 83.01232426 40 87 C39.34 87 38.68 87 38 87 C38.33 88.98 38.66 90.96 39 93 C36 92 36 92 34.25 88.5625 C33.755 87.49128906 33.755 87.49128906 33.25 86.3984375 C31.33849311 82.73073365 28.8619223 79.50639602 26.390625 76.19921875 C25 74 25 74 25 71 C24.34 71 23.68 71 23 71 C19.8110489 65.83169994 17.73982995 60.81261371 16 55 C15.34 55 14.68 55 14 55 C13.67 53.35 13.34 51.7 13 50 C12.34 50 11.68 50 11 50 C11 48.35 11 46.7 11 45 C10.01 45 9.02 45 8 45 C7.03339122 40.93942474 6.07830003 36.87621852 5.125 32.8125 C4.85558594 31.68134766 4.58617187 30.55019531 4.30859375 29.38476562 C2.04664507 19.70252189 -0.19142067 9.98825645 0 0 Z " fill="#BC2E30" transform="translate(140,147)"/>
<path d="M0 0 C0.99515625 0.16604736 1.9903125 0.33209473 3.015625 0.50317383 C22.30536374 3.7138155 41.56276182 6.80826394 61 9 C61 9.33 61 9.66 61 10 C42.19 10 23.38 10 4 10 C0 3 0 3 0 0 Z " fill="#B03A3C" transform="translate(331,377)"/>
<path d="M0 0 C4.40117327 3.80642012 6.56195801 7.33913629 8 13 C8.1875 16 8.1875 16 8 18 C8.99 18.33 9.98 18.66 11 19 C11.66 22.96 12.32 26.92 13 31 C11.68 29.68 10.36 28.36 9 27 C9 26.34 9 25.68 9 25 C6.03 25.33 3.06 25.66 0 26 C-0.33 28.31 -0.66 30.62 -1 33 C-4.09086943 28.36369586 -3.32858494 23.6402945 -3.3125 18.1875 C-3.33666992 16.56618164 -3.33666992 16.56618164 -3.36132812 14.91210938 C-3.36488464 9.1185491 -3.23478509 4.89058537 0 0 Z M0 9 C-0.33 9.99 -0.66 10.98 -1 12 C-0.67 12.66 -0.34 13.32 0 14 C1.32 14 2.64 14 4 14 C4.33 13.01 4.66 12.02 5 11 C4.67 10.34 4.34 9.68 4 9 C2.68 9 1.36 9 0 9 Z " fill="#030204" transform="translate(135,116)"/>
<path d="M0 0 C2.875 2.125 2.875 2.125 5 5 C5.55348638 8.87440468 5.29968563 11.78044012 3 15 C0.32366974 17.0815902 -1.11753668 16.99587591 -4.5625 16.875 C-8 16 -8 16 -9.875 14.25 C-11.15808908 11.68382185 -11.85954398 9.87934848 -12 7 C-9.37344464 1.35290598 -6.28110162 -0.87935423 0 0 Z " fill="#B63238" transform="translate(164,249)"/>
<path d="M0 0 C4.17101773 1.58755048 6.68742385 4.67442436 9.5625 7.9375 C13.09863651 11.94350461 13.09863651 11.94350461 16.83984375 15.75390625 C18 17 18 17 18 19 C19.32 19.33 20.64 19.66 22 20 C22 20.99 22 21.98 22 23 C19.4375 24.25 19.4375 24.25 16 25 C13.34989114 23.97381014 11.37522704 22.61515439 9 21 C9 20.01 9 19.02 9 18 C8.34 18 7.68 18 7 18 C7 17.34 7 16.68 7 16 C6.34 16 5.68 16 5 16 C1.17987196 11.4182265 -0.75805484 6.92765639 -1 1 C-0.67 0.67 -0.34 0.34 0 0 Z " fill="#C42C2F" transform="translate(183,240)"/>
<path d="M0 0 C0.66 0.33 1.32 0.66 2 1 C1.835 1.78375 1.67 2.5675 1.5 3.375 C0.87584139 6.6518327 0.92593 7.77779 2 11 C1.67 11.66 1.34 12.32 1 13 C1.66 13 2.32 13 3 13 C4.37310707 14.29233607 5.71034824 15.62437146 7 17 C7.66 16.67 8.32 16.34 9 16 C10.5 17.1875 10.5 17.1875 12 19 C12.1875 21.6875 12.1875 21.6875 12 24 C13.65 24 15.3 24 17 24 C17.268125 24.804375 17.53625 25.60875 17.8125 26.4375 C18.204375 27.283125 18.59625 28.12875 19 29 C19.99 29.33 20.98 29.66 22 30 C22.33 29.34 22.66 28.68 23 28 C23.99 28 24.98 28 26 28 C25.773125 29.093125 25.54625 30.18625 25.3125 31.3125 C24.61884315 34.85789953 24.61884315 34.85789953 26.25 36.8125 C27.82782309 37.88316567 29.41345425 38.94230284 31 40 C30.01 40.495 30.01 40.495 29 41 C16.69226175 31.23273678 5.33131039 20.84719115 -5 9 C-2.94642857 2.41071429 -2.94642857 2.41071429 0 0 Z " fill="#20090D" transform="translate(190,230)"/>
<path d="M0 0 C0.33 0 0.66 0 1 0 C1 1.65 1 3.3 1 5 C0.34 5 -0.32 5 -1 5 C-1 5.66 -1 6.32 -1 7 C21.77 7 44.54 7 68 7 C68 7.66 68 8.32 68 9 C44.24 9 20.48 9 -4 9 C-2.68 6.03 -1.36 3.06 0 0 Z " fill="#A93839" transform="translate(112,378)"/>
<path d="M0 0 C1.82091844 2.73137766 2.51212982 4.37575848 3.33203125 7.46484375 C3.57099121 8.34221191 3.80995117 9.21958008 4.05615234 10.12353516 C4.43054443 11.51644775 4.43054443 11.51644775 4.8125 12.9375 C6.80241951 20.16560814 8.97549449 27.00343143 12.1171875 33.8203125 C13 36 13 36 13 39 C12.34 39 11.68 39 11 39 C10.67 39.99 10.34 40.98 10 42 C9.34 42.99 8.68 43.98 8 45 C7.03339122 40.93942474 6.07830003 36.87621852 5.125 32.8125 C4.85558594 31.68134766 4.58617187 30.55019531 4.30859375 29.38476562 C2.04664507 19.70252189 -0.19142067 9.98825645 0 0 Z " fill="#9A2C2F" transform="translate(140,147)"/>
<path d="M0 0 C3 1 3 1 4.16796875 3.109375 C4.50441406 3.98078125 4.84085938 4.8521875 5.1875 5.75 C5.53167969 6.61109375 5.87585938 7.4721875 6.23046875 8.359375 C7.01419245 11.04870098 7.14520761 13.21601956 7 16 C7.99 16.33 8.98 16.66 10 17 C10.66 20.96 11.32 24.92 12 29 C10.68 27.68 9.36 26.36 8 25 C8 24.34 8 23.68 8 23 C6.35 23 4.7 23 3 23 C2.34 19.37 1.68 15.74 1 12 C1.66 12 2.32 12 3 12 C3 10.02 3 8.04 3 6 C2.01 6 1.02 6 0 6 C0 4.02 0 2.04 0 0 Z " fill="#0B0E13" transform="translate(136,118)"/>
<path d="M0 0 C6.24010224 -0.32000524 11.94867455 0.97307116 17.83203125 2.953125 C33.08945992 7.99503731 49.15089534 9.80252683 65 12 C67.33368075 12.33096715 69.66685925 12.66524502 72 13 C72 13.33 72 13.66 72 14 C37.64684134 12.26406911 37.64684134 12.26406911 21.94140625 6.96875 C18.96751887 5.98930236 16.15659788 5.45537314 13.0625 5 C8.56481765 4.29426155 4.33495126 3.37930267 0 2 C0 1.34 0 0.68 0 0 Z " fill="#B32C32" transform="translate(320,336)"/>
<path d="M0 0 C7.9139974 -0.32156197 17.78923525 -0.60538237 25 3 C26.89191823 3.07345829 28.78646054 3.08353261 30.6796875 3.0625 C31.83726562 3.05476563 32.99484375 3.04703125 34.1875 3.0390625 C36.60677525 3.01343458 39.0260463 2.9874065 41.4453125 2.9609375 C49.02312052 2.91086388 56.46085996 3.22515835 64 4 C64 4.66 64 5.32 64 6 C42.50381646 6.3228028 20.9454856 6.44510024 0 1 C0 0.67 0 0.34 0 0 Z " fill="#240409" transform="translate(304,307)"/>
<path d="M0 0 C2.64 0.33 5.28 0.66 8 1 C7.625 2.9375 7.625 2.9375 7 5 C6.01 5.495 6.01 5.495 5 6 C6.32 6.33 7.64 6.66 9 7 C9 8.65 9 10.3 9 12 C6.36 12 3.72 12 1 12 C1 11.34 1 10.68 1 10 C-0.65 9.67 -2.3 9.34 -4 9 C-3.35455571 5.51460083 -1.89865603 2.97180943 0 0 Z " fill="#C82B2D" transform="translate(157,251)"/>
<path d="M0 0 C3.06434249 2.87862476 5.70324855 5.83932327 8.25 9.1875 C14.43482361 17.25057807 21.14827573 24.53890809 29 31 C28.34 31.33 27.68 31.66 27 32 C23.7091012 30.90303373 23.03203283 30.15198144 20.875 27.5625 C20.27042969 26.85222656 19.66585937 26.14195312 19.04296875 25.41015625 C18.36878906 24.61480469 17.69460937 23.81945312 17 23 C15.40454003 21.15908466 13.80029048 19.32575154 12.1875 17.5 C11.43855469 16.6440625 10.68960938 15.788125 9.91796875 14.90625 C8.21426719 12.76502112 8.21426719 12.76502112 6 13 C6 14.98 6 16.96 6 19 C1.19058296 15.15246637 1.19058296 15.15246637 0.66796875 11.9921875 C0.68642239 9.99181279 0.83919466 7.99398625 1 6 C1.15811388 2.94729537 1.15811388 2.94729537 0 0 Z " fill="#B33036" transform="translate(177,228)"/>
<path d="M0 0 C0.99 0.99 1.98 1.98 3 3 C2.87764249 8.2613728 0.46581837 12.48124447 -2 17 C-11.59453303 11.9977221 -11.59453303 11.9977221 -15 8 C-12.02148438 8.390625 -12.02148438 8.390625 -9.04296875 8.78125 C-6.84528294 9.053233 -6.84528294 9.053233 -4 9 C-3.34 9 -2.68 9 -2 9 C-1.34 6.03 -0.68 3.06 0 0 Z " fill="#070A10" transform="translate(237,264)"/>
<path d="M0 0 C6.00683945 0.52233386 11.69730333 2.05405741 17 5 C17.33 5.99 17.66 6.98 18 8 C18.70511719 8.13277344 19.41023438 8.26554687 20.13671875 8.40234375 C23.06726299 9.01403989 25.9278361 9.7631353 28.8125 10.5625 C29.78832031 10.83191406 30.76414062 11.10132813 31.76953125 11.37890625 C32.50558594 11.58386719 33.24164063 11.78882813 34 12 C34 12.66 34 13.32 34 14 C34.69867188 14.04898437 35.39734375 14.09796875 36.1171875 14.1484375 C37.02726562 14.22320312 37.93734375 14.29796875 38.875 14.375 C39.77992188 14.44460938 40.68484375 14.51421875 41.6171875 14.5859375 C44 15 44 15 46 17 C47.31747324 17.69748583 48.64914193 18.36959957 50 19 C43.125 18.125 43.125 18.125 42 17 C40.69938659 16.69755341 39.39011621 16.4320857 38.078125 16.18359375 C32.71980199 15.03704839 27.8086179 13.13851412 22.75 11.0625 C21.87859375 10.71509766 21.0071875 10.36769531 20.109375 10.00976562 C15.83759785 8.28086801 11.91565811 6.4499416 8 4 C6.57887565 3.39732423 5.14176366 2.83011927 3.6875 2.3125 C2.470625 1.879375 1.25375 1.44625 0 1 C0 0.67 0 0.34 0 0 Z " fill="#B02C30" transform="translate(270,317)"/>
<path d="M0 0 C0.64839844 0.1546875 1.29679687 0.309375 1.96484375 0.46875 C6.56826192 1.27449629 11.18699519 1.39045494 15.84960938 1.60546875 C19.36060313 1.78488517 22.61222526 2.06830301 26 3 C26 3.66 26 4.32 26 5 C17.75 5 9.5 5 1 5 C0.67 3.35 0.34 1.7 0 0 Z " fill="#C32D2D" transform="translate(338,380)"/>
<path d="M0 0 C4.28359673 1.8855148 6.15103592 4.35965701 9 8 C6.03 7.67 3.06 7.34 0 7 C-0.226875 7.721875 -0.45375 8.44375 -0.6875 9.1875 C-2.50394694 13.0798863 -5.12274973 16.06137486 -9 18 C-7.45614871 13.85967154 -5.48971062 10.06446947 -3.375 6.1875 C-3.05015625 5.59001953 -2.7253125 4.99253906 -2.390625 4.37695312 C-1.59620849 2.91662865 -0.79844624 1.45812509 0 0 Z " fill="#B43035" transform="translate(160,286)"/>
<path d="M0 0 C1.84214337 2.76321506 2.58987581 4.57829513 3.47265625 7.7109375 C3.73240234 8.62617188 3.99214844 9.54140625 4.25976562 10.484375 C4.52466797 11.43828125 4.78957031 12.3921875 5.0625 13.375 C5.33126953 14.32117188 5.60003906 15.26734375 5.87695312 16.2421875 C7.07005679 20.4790444 8.17725873 24.67349077 9 29 C6 25.25 6 25.25 6 23 C5.34 23 4.68 23 4 23 C2.03591976 19.61650042 1.44084593 16.47814132 0.875 12.625 C0.70742187 11.52414063 0.53984375 10.42328125 0.3671875 9.2890625 C0.0177528 6.15901977 -0.06653344 3.14608144 0 0 Z " fill="#AD4145" transform="translate(140,147)"/>
<path d="M0 0 C1.2684375 0.12375 1.2684375 0.12375 2.5625 0.25 C4.5625 3.25 4.5625 3.25 4.25 5.375 C3.5625 7.25 3.5625 7.25 2.5625 8.25 C0.125 8.4375 0.125 8.4375 -2.4375 8.25 C-3.0975 7.59 -3.7575 6.93 -4.4375 6.25 C-3.72185719 0.38172894 -3.72185719 0.38172894 0 0 Z " fill="#B63032" transform="translate(172.4375,151.75)"/>
<path d="M0 0 C0.66 0 1.32 0 2 0 C2.33 1.32 2.66 2.64 3 4 C4.65 4.33 6.3 4.66 8 5 C7.79375 6.11375 7.5875 7.2275 7.375 8.375 C7.189375 10.169375 7.189375 10.169375 7 12 C7.66 12.66 8.32 13.32 9 14 C12.17647059 20.47058824 12.17647059 20.47058824 11 24 C9.53316749 21.3168434 8.07646974 18.62895233 6.625 15.9375 C6.2125 15.18533203 5.8 14.43316406 5.375 13.65820312 C2.95906296 9.15754623 1.20085536 4.96837408 0 0 Z " fill="#8F323A" transform="translate(159,220)"/>
<path d="M0 0 C0.66 0 1.32 0 2 0 C2 1.65 2 3.3 2 5 C2.66 5 3.32 5 4 5 C4.18175781 5.61746094 4.36351562 6.23492187 4.55078125 6.87109375 C4.80214844 7.71800781 5.05351562 8.56492188 5.3125 9.4375 C5.58191406 10.34628906 5.85132813 11.25507813 6.12890625 12.19140625 C7.15562169 15.50175781 8.32612417 18.74882009 9.546875 21.9921875 C10.0771178 24.34171165 9.64482496 25.71212289 9 28 C7.49223384 23.89864435 5.99512424 19.79347933 4.5 15.6875 C4.07074219 14.52025391 3.64148438 13.35300781 3.19921875 12.15039062 C2.79316406 11.03212891 2.38710937 9.91386719 1.96875 8.76171875 C1.59169922 7.73006592 1.21464844 6.69841309 0.82617188 5.63549805 C0 3 0 3 0 0 Z " fill="#8E2D37" transform="translate(149,192)"/>
<path d="M0 0 C10.20481492 -0.41464259 20.27516198 0.83377367 30 4 C30 4.33 30 4.66 30 5 C19.66885307 4.61090486 10.06701806 3.5010248 0 1 C0 0.67 0 0.34 0 0 Z " fill="#320910" transform="translate(304,307)"/>
<path d="M0 0 C0.66 0.33 1.32 0.66 2 1 C1.835 1.78375 1.67 2.5675 1.5 3.375 C0.9376293 5.88208039 0.9376293 5.88208039 1 8 C1 9.32 1 10.64 1 12 C-1.59642796 11.65380961 -2.71331532 11.33654288 -4.4375 9.3125 C-5 7 -5 7 -3.75 3.8125 C-2 1 -2 1 0 0 Z " fill="#0D0A0E" transform="translate(190,230)"/>
<path d="M0 0 C0.66 1.32 1.32 2.64 2 4 C1.505 4.53625 1.01 5.0725 0.5 5.625 C-1.37489544 8.59358445 -1.23501425 10.55312427 -1 14 C-2.32 14 -3.64 14 -5 14 C-5.66 15.98 -6.32 17.96 -7 20 C-7.66 20 -8.32 20 -9 20 C-7.55676531 15.26210835 -5.62773267 11.01141849 -3.375 6.625 C-2.88773438 5.66400391 -2.88773438 5.66400391 -2.390625 4.68359375 C-1.59742593 3.12052499 -0.79922969 1.55999378 0 0 Z " fill="#B13133" transform="translate(150,304)"/>
<path d="M0 0 C1.98 0.495 1.98 0.495 4 1 C4.66 4.96 5.32 8.92 6 13 C4.68 11.68 3.36 10.36 2 9 C2 8.34 2 7.68 2 7 C1.01 6.67 0.02 6.34 -1 6 C-0.67 4.02 -0.34 2.04 0 0 Z " fill="#1F2126" transform="translate(142,134)"/>
<path d="M0 0 C1.04449911 3.13349732 0.93423645 3.98968256 0 7 C-0.66 7 -1.32 7 -2 7 C-1.42655063 9.86724686 -1.1385485 10.8614515 1 13 C1 14.32 1 15.64 1 17 C1.30404678 18.67225729 1.63128912 20.34080104 2 22 C-1.99045225 18.55370033 -2.90011145 15.25859576 -3.3125 10.0625 C-3.23059659 6.13858202 -2.02764253 3.37940422 0 0 Z " fill="#AA353A" transform="translate(171,183)"/>
<path d="M0 0 C3 3.75 3 3.75 3 6 C3.66 6 4.32 6 5 6 C5.33 8.97 5.66 11.94 6 15 C3 14 3 14 2.05078125 12.109375 C-0.41063747 4.24325381 -0.41063747 4.24325381 0 0 Z " fill="#BF2D34" transform="translate(145,170)"/>
<path d="M0 0 C3.32993034 3.82941989 5.05324525 8.37522222 7 13 C3.21875 12.265625 3.21875 12.265625 1.25 9.875 C-0.2577334 6.40721317 -0.22019353 3.74329002 0 0 Z " fill="#892F37" transform="translate(409,355)"/>
<path d="M0 0 C0.33 0 0.66 0 1 0 C0.95875 1.093125 0.9175 2.18625 0.875 3.3125 C0.67925334 7.08892229 0.67925334 7.08892229 3 10 C2.34 11.32 1.68 12.64 1 14 C0.01 13.34 -0.98 12.68 -2 12 C-1.34 10.68 -0.68 9.36 0 8 C-0.99 8 -1.98 8 -3 8 C-1.125 2.25 -1.125 2.25 0 0 Z " fill="#BE2F36" transform="translate(116,370)"/>
<path d="M0 0 C6.45353615 2.05764921 12.7361263 4.42383482 19 7 C19 7.33 19 7.66 19 8 C16.69 8.33 14.38 8.66 12 9 C12 8.01 12 7.02 12 6 C10.948125 5.8453125 10.948125 5.8453125 9.875 5.6875 C6.57954861 4.89945728 3.94149219 3.67130238 1 2 C0.67 1.34 0.34 0.68 0 0 Z " fill="#AB3238" transform="translate(254,291)"/>
<path d="M0 0 C2.31 0.33 4.62 0.66 7 1 C7 1.66 7 2.32 7 3 C7.99 3 8.98 3 10 3 C10 3.66 10 4.32 10 5 C10.66 5.33 11.32 5.66 12 6 C12 6.99 12 7.98 12 9 C9.997193 7.69161864 7.99773901 6.37857806 6 5.0625 C5.42765625 4.68931641 4.8553125 4.31613281 4.265625 3.93164062 C2.82614271 2.98055411 1.41085511 1.99305724 0 1 C0 0.67 0 0.34 0 0 Z " fill="#1F070A" transform="translate(222,272)"/>
<path d="M0 0 C0.66 0.33 1.32 0.66 2 1 C2 5.26649636 1.43160605 6.63316085 -1 10 C-1.66 10 -2.32 10 -3 10 C-3.33 10.99 -3.66 11.98 -4 13 C-4.66 12.67 -5.32 12.34 -6 12 C-4.02 8.04 -2.04 4.08 0 0 Z " fill="#B43137" transform="translate(133,337)"/>
<path d="M0 0 C1.76462683 3.08809695 2 4.23312136 2 8 C0.68 7.67 -0.64 7.34 -2 7 C-2.33 8.32 -2.66 9.64 -3 11 C-3.66 11 -4.32 11 -5 11 C-3.77472971 6.94718288 -2.30119506 3.55639236 0 0 Z " fill="#B53236" transform="translate(122,359)"/>
<path d="M0 0 C0.99 0.33 1.98 0.66 3 1 C1.50829734 5.9723422 -0.60457417 10.41845739 -3 15 C-4.13583456 11.28272326 -3.66670026 9.52948291 -2 6 C-1.34 6 -0.68 6 0 6 C0 4.02 0 2.04 0 0 Z " fill="#A73438" transform="translate(207,326)"/>
<path d="M0 0 C0.66 0 1.32 0 2 0 C2.33 0.99 2.66 1.98 3 3 C2.34 3 1.68 3 1 3 C0.67 2.01 0.34 1.02 0 0 Z M3 1 C8.4389165 0.78244334 12.87080814 0.89571616 18 3 C18 3.33 18 3.66 18 4 C17.31292969 3.9278125 16.62585938 3.855625 15.91796875 3.78125 C15.01691406 3.6884375 14.11585938 3.595625 13.1875 3.5 C12.29417969 3.4071875 11.40085937 3.314375 10.48046875 3.21875 C7.91694901 2.95607599 7.91694901 2.95607599 5 3 C4.34 2.34 3.68 1.68 3 1 Z " fill="#BA3132" transform="translate(264,298)"/>
<path d="M0 0 C1.65 0.33 3.3 0.66 5 1 C5.33 2.32 5.66 3.64 6 5 C3.36 5 0.72 5 -2 5 C-1.34 3.35 -0.68 1.7 0 0 Z " fill="#060B0E" transform="translate(361,306)"/>
<path d="M0 0 C1.14926266 0.95421808 2.29430541 1.91352045 3.4375 2.875 C4.07558594 3.40867187 4.71367187 3.94234375 5.37109375 4.4921875 C7 6 7 6 8 8 C2.25 7.25 2.25 7.25 0 5 C-0.125 2.375 -0.125 2.375 0 0 Z " fill="#B03034" transform="translate(169,294)"/>
<path d="M0 0 C2.97 0.495 2.97 0.495 6 1 C6 2.65 6 4.3 6 6 C5.01 6.495 5.01 6.495 4 7 C4 6.34 4 5.68 4 5 C2.68 4.34 1.36 3.68 0 3 C0 2.01 0 1.02 0 0 Z " fill="#C62B2F" transform="translate(161,210)"/>
<path d="M0 0 C3.3 0.33 6.6 0.66 10 1 C10.33 2.98 10.66 4.96 11 7 C6.89188572 5.55007731 3.53144334 3.54592427 0 1 C0 0.67 0 0.34 0 0 Z " fill="#8B3138" transform="translate(236,315)"/>
<path d="M0 0 C0 0.66 0 1.32 0 2 C1.65 2.33 3.3 2.66 5 3 C5 3.66 5 4.32 5 5 C0.71 4.01 -3.58 3.02 -8 2 C-8 1.67 -8 1.34 -8 1 C-5.23735711 0.40267181 -2.83967231 0 0 0 Z " fill="#892D36" transform="translate(332,354)"/>
<path d="M0 0 C1.41791408 0.45445964 2.83428046 0.91374944 4.25 1.375 C5.43335938 1.75785156 5.43335938 1.75785156 6.640625 2.1484375 C8.86627958 2.95173667 10.90931672 3.89711662 13 5 C13 5.66 13 6.32 13 7 C8.1725201 5.58707905 4.2837641 3.57025846 0 1 C0 0.67 0 0.34 0 0 Z " fill="#B12B31" transform="translate(248,305)"/>
<path d="M0 0 C1.60517097 0.08733576 3.20921662 0.19552224 4.8125 0.3125 C6.15248047 0.39951172 6.15248047 0.39951172 7.51953125 0.48828125 C10.30604 1.06313581 11.24135754 1.8206856 13 4 C10.69 4 8.38 4 6 4 C5.67 3.01 5.34 2.02 5 1 C3.35 1 1.7 1 0 1 C0 0.67 0 0.34 0 0 Z " fill="#B4333A" transform="translate(182,176)"/>
<path d="M0 0 C1.75 0.125 1.75 0.125 4 1 C6.25 4.0625 6.25 4.0625 8 7 C7.67 7.66 7.34 8.32 7 9 C5.83037314 7.69013727 4.66437056 6.3770374 3.5 5.0625 C2.8503125 4.33160156 2.200625 3.60070312 1.53125 2.84765625 C0 1 0 1 0 0 Z " fill="#28090A" transform="translate(189,242)"/>
<path d="M0 0 C4 2 4 2 5.8125 5.4375 C7 9 7 9 6 12 C4.02 8.04 2.04 4.08 0 0 Z " fill="#822F38" transform="translate(164,232)"/>
<path d="M0 0 C0.53625 0.2475 1.0725 0.495 1.625 0.75 C-0.025 1.08 -1.675 1.41 -3.375 1.75 C-3.705 3.07 -4.035 4.39 -4.375 5.75 C-5.695 5.75 -7.015 5.75 -8.375 5.75 C-8.375 5.09 -8.375 4.43 -8.375 3.75 C-3.23290173 -0.34030544 -3.23290173 -0.34030544 0 0 Z " fill="#B1353C" transform="translate(180.375,177.25)"/>
<path d="M0 0 C3.37503669 1.1858237 5.64722731 2.27573689 8 5 C6.02 5 4.04 5 2 5 C2 4.34 2 3.68 2 3 C1.34 3 0.68 3 0 3 C0 2.01 0 1.02 0 0 Z " fill="#AC3035" transform="translate(217,270)"/>
<path d="M0 0 C1.2077558 3.62326739 0.54311128 4.64146369 -1 8 C-2.32 6.35 -3.64 4.7 -5 3 C-3.35 2.01 -1.7 1.02 0 0 Z " fill="#862E32" transform="translate(189,262)"/>
<path d="M0 0 C1.485 0.99 1.485 0.99 3 2 C3 3.32 3 4.64 3 6 C3.30404678 7.67225729 3.63128912 9.34080104 4 11 C2.29159719 9.36587557 1.06546953 8.13093906 0 6 C-0.039992 4.00039988 -0.04346799 1.99952758 0 0 Z " fill="#B73138" transform="translate(169,194)"/>
<path d="M0 0 C1.65 0 3.3 0 5 0 C4.67 0.99 4.34 1.98 4 3 C4.66 3.33 5.32 3.66 6 4 C3.69 3.67 1.38 3.34 -1 3 C-0.67 2.01 -0.34 1.02 0 0 Z " fill="#92313B" transform="translate(338,356)"/>
<path d="M0 0 C2.40133271 1.60088848 4.702779 3.25728062 7 5 C5 7 5 7 3 8 C0 2.25 0 2.25 0 0 Z " fill="#160A0E" transform="translate(289,297)"/>
<path d="M0 0 C2.475 0.99 2.475 0.99 5 2 C4.34 3.32 3.68 4.64 3 6 C1.68 4.35 0.36 2.7 -1 1 C-0.67 0.67 -0.34 0.34 0 0 Z " fill="#892E37" transform="translate(193,274)"/>
<path d="M0 0 C0.99 0 1.98 0 3 0 C2.67 1.98 2.34 3.96 2 6 C1.01 6 0.02 6 -1 6 C-0.67 4.02 -0.34 2.04 0 0 Z " fill="#050E0F" transform="translate(213,258)"/>
<path d="M0 0 C1.5 1.125 1.5 1.125 3 3 C3.1875 6.1875 3.1875 6.1875 3 9 C2.34 8.67 1.68 8.34 1 8 C0.40644386 5.35139573 0.25790731 2.70802678 0 0 Z " fill="#AB343A" transform="translate(166,251)"/>
<path d="M0 0 C4.875 4.625 4.875 4.625 6 8 C4.35 7.67 2.7 7.34 1 7 C1.33 6.34 1.66 5.68 2 5 C1.10636395 2.39068734 1.10636395 2.39068734 0 0 Z " fill="#A93232" transform="translate(177,228)"/>
<path d="M0 0 C1.2065625 0.0309375 1.2065625 0.0309375 2.4375 0.0625 C1.4475 1.5475 1.4475 1.5475 0.4375 3.0625 C-0.8825 3.0625 -2.2025 3.0625 -3.5625 3.0625 C-3.8925 4.0525 -4.2225 5.0425 -4.5625 6.0625 C-3.48963568 0.08511307 -3.48963568 0.08511307 0 0 Z " fill="#B1343C" transform="translate(172.5625,151.9375)"/>
<path d="M0 0 C5.445 1.485 5.445 1.485 11 3 C11 3.33 11 3.66 11 4 C7.75 4.25 7.75 4.25 4 4 C2.68 2.68 1.36 1.36 0 0 Z " fill="#A42E34" transform="translate(287,303)"/>
<path d="M0 0 C0.99 0.33 1.98 0.66 3 1 C3.33 2.98 3.66 4.96 4 7 C2 5.75 2 5.75 0 4 C0 2.68 0 1.36 0 0 Z " fill="#0C0A16" transform="translate(198,246)"/>
<path d="" fill="#808080" transform="translate(0,0)"/>
</svg>
