<svg width="48" height="48" viewBox="0 0 48 48" fill="none" xmlns="http://www.w3.org/2000/svg">
<path fill-rule="evenodd" clip-rule="evenodd" d="M24.7097 1.63886C24.4868 1.53749 24.2448 1.48505 24 1.48505C23.7551 1.48505 23.5131 1.53749 23.2903 1.63886L14.2971 5.73257L23.9931 10.1486L33.696 5.72914L24.7097 1.63886ZM12.6857 19.2343V8.76343L22.2857 13.1349V24.7063L13.6834 20.7943C13.3839 20.6581 13.13 20.4386 12.9518 20.1619C12.7737 19.8853 12.6789 19.5633 12.6788 19.2343M25.7074 42.2469V30.7954L34.8 34.9371V46.5086L26.208 42.5966C26.0203 42.5112 25.853 42.3928 25.7074 42.2469ZM38.2251 46.5154V34.9371L47.8354 30.5623V41.0366C47.8353 41.3656 47.7406 41.6876 47.5624 41.9642C47.3843 42.2408 47.1303 42.4604 46.8308 42.5966L38.2251 46.5154ZM22.2788 30.7954V42.2606C22.1362 42.4003 21.9703 42.514 21.7886 42.5966L13.1828 46.5154V34.9371L22.2788 30.7954ZM9.75428 34.9371V46.5086L1.1657 42.5966C0.866215 42.4604 0.612248 42.2408 0.434119 41.9642C0.25599 41.6876 0.161224 41.3656 0.161133 41.0366V30.5657L9.75428 34.9371ZM25.7074 24.7131V13.1314L35.3177 8.75657V19.2343C35.3176 19.5633 35.2228 19.8853 35.0447 20.1619C34.8666 20.4386 34.6126 20.6581 34.3131 20.7943L25.7074 24.7131ZM35.8148 23.4446C36.0377 23.3432 36.2797 23.2908 36.5246 23.2908C36.7694 23.2908 37.0114 23.3432 37.2343 23.4446L46.2171 27.5314L36.5143 31.9509L26.8286 27.5314L35.8148 23.4446ZM10.7657 23.4446C10.9886 23.3432 11.2306 23.2908 11.4754 23.2908C11.7203 23.2908 11.9623 23.3432 12.1851 23.4446L21.168 27.5314L11.4686 31.9543L1.77599 27.5314L10.7657 23.4446Z" fill="#011B78"/>
</svg>
