<?xml version="1.0" encoding="UTF-8"?>
<!DOCTYPE svg PUBLIC "-//W3C//DTD SVG 1.1//EN" "http://www.w3.org/Graphics/SVG/1.1/DTD/svg11.dtd">
<svg xmlns="http://www.w3.org/2000/svg" version="1.1" width="671px" height="355px" style="shape-rendering:geometricPrecision; text-rendering:geometricPrecision; image-rendering:optimizeQuality; fill-rule:evenodd; clip-rule:evenodd" xmlns:xlink="http://www.w3.org/1999/xlink">
<g><path style="opacity:1" fill="#fefefe" d="M -0.5,-0.5 C 19.5,-0.5 39.5,-0.5 59.5,-0.5C 59.9175,0.221579 60.5842,0.721579 61.5,1C 264.5,1.5 467.5,1.66667 670.5,1.5C 670.5,119.167 670.5,236.833 670.5,354.5C 446.833,354.5 223.167,354.5 -0.5,354.5C -0.5,236.167 -0.5,117.833 -0.5,-0.5 Z"/></g>
<g><path style="opacity:1" fill="#f2f8fc" d="M 59.5,-0.5 C 263.167,-0.5 466.833,-0.5 670.5,-0.5C 670.5,0.166667 670.5,0.833333 670.5,1.5C 467.5,1.66667 264.5,1.5 61.5,1C 60.5842,0.721579 59.9175,0.221579 59.5,-0.5 Z"/></g>
<g><path style="opacity:1" fill="#e8e8e8" d="M 317.5,39.5 C 303.282,31.6121 287.949,27.7788 271.5,28C 224.167,27.3333 176.833,27.3333 129.5,28C 109.943,27.0458 92.6093,32.5458 77.5,44.5C 88.3113,34.1589 101.311,28.3255 116.5,27C 172.5,26.3333 228.5,26.3333 284.5,27C 296.866,27.9495 307.866,32.1162 317.5,39.5 Z"/></g>
<g><path style="opacity:1" fill="#fdfdfd" d="M 317.5,39.5 C 321.126,41.4593 324.126,44.126 326.5,47.5C 338.454,62.6093 343.954,79.9426 343,99.5C 343.667,147.167 343.667,194.833 343,242.5C 343.06,258.595 339.227,273.595 331.5,287.5C 321.248,302.478 306.915,311.145 288.5,313.5C 235.676,313.584 182.676,313.417 129.5,313C 112.982,313.537 97.6482,309.704 83.5,301.5C 77.5,298.167 72.8333,293.5 69.5,287.5C 66.7547,282.34 64.2547,277.006 62,271.5C 60.6813,266.225 59.6813,260.892 59,255.5C 57.8991,227.184 57.3991,198.85 57.5,170.5C 57.3991,142.15 57.8991,113.816 59,85.5C 59.3631,80.0475 60.3631,74.7141 62,69.5C 64.2547,63.9936 66.7547,58.6603 69.5,53.5C 71.4302,49.8998 74.0969,46.8998 77.5,44.5C 92.6093,32.5458 109.943,27.0458 129.5,28C 176.833,27.3333 224.167,27.3333 271.5,28C 287.949,27.7788 303.282,31.6121 317.5,39.5 Z"/></g>
<g><path style="opacity:1" fill="#343436" d="M 400.5,45.5 C 403.166,45.0658 404.333,46.0658 404,48.5C 400.403,50.0661 399.237,49.0661 400.5,45.5 Z"/></g>
<g><path style="opacity:1" fill="#262627" d="M 383.5,46.5 C 384.833,46.5 386.167,46.5 387.5,46.5C 387.5,52.1667 387.5,57.8333 387.5,63.5C 390.5,63.5 393.5,63.5 396.5,63.5C 396.5,64.8333 396.5,66.1667 396.5,67.5C 392.167,67.5 387.833,67.5 383.5,67.5C 383.5,60.5 383.5,53.5 383.5,46.5 Z"/></g>
<g><path style="opacity:1" fill="#232325" d="M 424.5,46.5 C 429.297,46.1211 433.964,46.6211 438.5,48C 440.117,51.2493 439.451,53.916 436.5,56C 440.213,57.6912 441.379,60.5245 440,64.5C 439.097,65.7014 437.931,66.5348 436.5,67C 432.514,67.4988 428.514,67.6655 424.5,67.5C 424.5,60.5 424.5,53.5 424.5,46.5 Z"/></g>
<g><path style="opacity:1" fill="#2a2a2c" d="M 486.5,46.5 C 487.833,46.5 489.167,46.5 490.5,46.5C 490.334,51.5111 490.501,56.5111 491,61.5C 493.367,64.9318 496.034,65.2652 499,62.5C 499.499,57.1771 499.666,51.8437 499.5,46.5C 501.167,46.5 502.833,46.5 504.5,46.5C 504.666,51.8437 504.499,57.1771 504,62.5C 502.336,66.0842 499.503,67.7508 495.5,67.5C 491.497,67.7508 488.664,66.0842 487,62.5C 486.501,57.1771 486.334,51.8437 486.5,46.5 Z"/></g>
<g><path style="opacity:1" fill="#67676a" d="M 560.5,48.5 C 570.506,48.3335 580.506,48.5002 590.5,49C 580.833,49.3333 571.167,49.6667 561.5,50C 561,50.5 560.5,51 560,51.5C 559.667,56.1667 559.333,60.8333 559,65.5C 558.333,60.5 558.333,55.5 559,50.5C 559.717,49.9558 560.217,49.2891 560.5,48.5 Z"/></g>
<g><path style="opacity:1" fill="#ebebeb" d="M 428.5,49.5 C 430.527,49.3379 432.527,49.5045 434.5,50C 435.991,52.0217 435.658,53.6883 433.5,55C 431.866,55.4935 430.199,55.6602 428.5,55.5C 428.5,53.5 428.5,51.5 428.5,49.5 Z"/></g>
<g><path style="opacity:1" fill="#272729" d="M 410.5,51.5 C 414.192,50.9712 417.358,51.9712 420,54.5C 420.432,55.6001 419.932,56.2668 418.5,56.5C 416.896,56.0609 415.396,55.3943 414,54.5C 412.72,54.6135 411.887,55.2801 411.5,56.5C 414.382,57.772 417.215,59.1053 420,60.5C 421.14,63.5282 420.306,65.6949 417.5,67C 414.084,67.8933 410.917,67.3933 408,65.5C 407.517,64.552 407.351,63.552 407.5,62.5C 410.436,63.4058 413.436,64.0725 416.5,64.5C 416.5,63.5 416.5,62.5 416.5,61.5C 407.843,61.5749 405.843,58.2416 410.5,51.5 Z"/></g>
<g><path style="opacity:1" fill="#252527" d="M 447.5,51.5 C 458.117,51.6159 461.117,56.4493 456.5,66C 446.32,69.66 442.154,66.16 444,55.5C 445.376,54.2949 446.542,52.9616 447.5,51.5 Z"/></g>
<g><path style="opacity:1" fill="#262628" d="M 461.5,51.5 C 463.451,51.2267 464.951,51.8934 466,53.5C 469,50.8333 472,50.8333 475,53.5C 475.499,58.1548 475.666,62.8215 475.5,67.5C 474.167,67.5 472.833,67.5 471.5,67.5C 471.5,63.5 471.5,59.5 471.5,55.5C 469.533,55.2606 467.699,55.5939 466,56.5C 465.501,60.1516 465.335,63.8183 465.5,67.5C 464.167,67.5 462.833,67.5 461.5,67.5C 461.5,62.1667 461.5,56.8333 461.5,51.5 Z"/></g>
<g><path style="opacity:1" fill="#2c2b2d" d="M 510.5,51.5 C 513.807,51.0632 516.807,51.7298 519.5,53.5C 521.167,55.1667 520.833,56.1667 518.5,56.5C 517.167,55.8333 515.833,55.1667 514.5,54.5C 513,54.4528 512,55.1195 511.5,56.5C 514.341,57.9746 517.341,59.1413 520.5,60C 522.028,62.8808 521.362,65.2141 518.5,67C 514.756,67.9285 511.256,67.4285 508,65.5C 507.517,64.552 507.351,63.552 507.5,62.5C 510.436,63.4058 513.436,64.0725 516.5,64.5C 516.5,63.5 516.5,62.5 516.5,61.5C 507.818,61.5547 505.818,58.2213 510.5,51.5 Z"/></g>
<g><path style="opacity:1" fill="#262628" d="M 528.5,51.5 C 535.063,51.0675 538.396,54.0675 538.5,60.5C 534.774,60.1774 531.107,60.5108 527.5,61.5C 528.27,63.2718 529.603,64.2718 531.5,64.5C 533.167,63.8333 534.833,63.1667 536.5,62.5C 537.167,62.8333 537.833,63.1667 538.5,63.5C 535.813,67.3137 532.147,68.4804 527.5,67C 521.974,61.357 522.308,56.1903 528.5,51.5 Z"/></g>
<g><path style="opacity:1" fill="#2d2d2f" d="M 399.5,51.5 C 400.833,51.5 402.167,51.5 403.5,51.5C 403.5,56.8333 403.5,62.1667 403.5,67.5C 402.167,67.5 400.833,67.5 399.5,67.5C 399.5,62.1667 399.5,56.8333 399.5,51.5 Z"/></g>
<g><path style="opacity:1" fill="#232325" d="M 541.5,51.5 C 543.451,51.2267 544.951,51.8934 546,53.5C 547.11,51.9632 548.61,51.2965 550.5,51.5C 550.5,52.8333 550.5,54.1667 550.5,55.5C 548.856,55.2865 547.356,55.6198 546,56.5C 545.501,60.1516 545.335,63.8183 545.5,67.5C 544.167,67.5 542.833,67.5 541.5,67.5C 541.5,62.1667 541.5,56.8333 541.5,51.5 Z"/></g>
<g><path style="opacity:1" fill="#9c9c9e" d="M 565.5,52.5 C 566.5,52.5 567.5,52.5 568.5,52.5C 568.5,55.5 568.5,58.5 568.5,61.5C 567.5,61.5 566.5,61.5 565.5,61.5C 565.84,58.8559 565.173,56.5225 563.5,54.5C 564.243,53.8182 564.909,53.1515 565.5,52.5 Z"/></g>
<g><path style="opacity:1" fill="#7c7c7f" d="M 581.5,54.5 C 583.606,54.679 585.272,55.679 586.5,57.5C 585.675,58.3857 584.675,58.719 583.5,58.5C 583.167,62.5 582.833,62.5 582.5,58.5C 581.325,58.719 580.325,58.3857 579.5,57.5C 580.612,56.7348 581.279,55.7348 581.5,54.5 Z"/></g>
<g><path style="opacity:1" fill="#f0f0f0" d="M 449.5,54.5 C 454.151,55.1742 455.651,57.8408 454,62.5C 450.182,65.4983 448.016,64.4983 447.5,59.5C 447.437,57.4861 448.103,55.8194 449.5,54.5 Z"/></g>
<g><path style="opacity:1" fill="#e9e9e9" d="M 534.5,57.5 C 532.265,57.7947 530.265,57.4614 528.5,56.5C 529.659,54.6231 531.326,54.1231 533.5,55C 534.252,55.6708 534.586,56.5041 534.5,57.5 Z"/></g>
<g><path style="opacity:1" fill="#757578" d="M 571.5,53.5 C 573.364,52.2072 575.364,52.2072 577.5,53.5C 575.924,55.9793 574.924,58.646 574.5,61.5C 573.448,61.6495 572.448,61.4828 571.5,61C 572.708,58.7497 574.041,56.583 575.5,54.5C 574.311,53.5713 572.978,53.238 571.5,53.5 Z"/></g>
<g><path style="opacity:1" fill="#727273" d="M 528.5,56.5 C 530.265,57.4614 532.265,57.7947 534.5,57.5C 532.307,58.7969 529.973,58.7969 527.5,57.5C 527.624,56.8933 527.957,56.56 528.5,56.5 Z"/></g>
<g><path style="opacity:1" fill="#f0f0f0" d="M 428.5,58.5 C 430.857,58.3367 433.19,58.5034 435.5,59C 436.86,60.9376 436.527,62.6043 434.5,64C 432.527,64.4955 430.527,64.6621 428.5,64.5C 428.5,62.5 428.5,60.5 428.5,58.5 Z"/></g>
<g><path style="opacity:1" fill="#0a0a0a" d="M 213.5,76.5 C 215.849,78.341 218.515,79.6743 221.5,80.5C 223.336,82.588 225.669,83.9213 228.5,84.5C 238.993,91.9172 249.993,98.5838 261.5,104.5C 261.5,105.167 261.167,105.5 260.5,105.5C 248.072,100.967 235.739,96.1339 223.5,91C 216.39,88.4056 209.223,86.2389 202,84.5C 178.295,92.0684 154.795,100.235 131.5,109C 128.435,125.979 129.435,142.812 134.5,159.5C 133.135,161.86 131.135,163.527 128.5,164.5C 121.352,143.799 118.018,122.466 118.5,100.5C 146.325,91.0136 174.159,81.347 202,71.5C 205.986,72.8819 209.82,74.5485 213.5,76.5 Z"/></g>
<g><path style="opacity:1" fill="#808080" d="M 214.5,75.5 C 217.047,76.9336 219.381,78.6002 221.5,80.5C 218.515,79.6743 215.849,78.341 213.5,76.5C 214.167,76.5 214.5,76.1667 214.5,75.5 Z"/></g>
<g><path style="opacity:1" fill="#090909" d="M 274.5,123.5 C 275.164,121.19 275.497,118.69 275.5,116C 275.475,113.071 274.809,110.571 273.5,108.5C 272.833,108.167 272.167,107.833 271.5,107.5C 257.651,99.0735 243.318,91.4068 228.5,84.5C 226.664,82.412 224.331,81.0787 221.5,80.5C 219.381,78.6002 217.047,76.9336 214.5,75.5C 212.934,75.0237 212.6,74.357 213.5,73.5C 237.383,82.7424 261.383,91.9091 285.5,101C 285.781,169.606 259.448,225.773 206.5,269.5C 194.479,260.979 184.312,250.646 176,238.5C 175.182,235.773 175.348,233.106 176.5,230.5C 183.813,240.979 192.646,249.979 203,257.5C 218.486,245.016 231.486,230.349 242,213.5C 259.283,185.913 270.117,155.913 274.5,123.5 Z"/></g>
<g><path style="opacity:1" fill="#297dce" d="M 385.5,82.5 C 384.539,84.2646 384.205,86.2646 384.5,88.5C 386.833,88.5 389.167,88.5 391.5,88.5C 389.393,89.4682 387.059,89.8016 384.5,89.5C 384.808,91.924 384.474,94.2573 383.5,96.5C 382.505,91.2079 382.172,85.8746 382.5,80.5C 385.898,80.1796 389.232,80.513 392.5,81.5C 390.257,82.4742 387.924,82.8076 385.5,82.5 Z"/></g>
<g><path style="opacity:1" fill="#5498d8" d="M 395.5,80.5 C 396.376,80.3691 397.043,80.7025 397.5,81.5C 395.192,82.8734 394.525,82.5401 395.5,80.5 Z"/></g>
<g><path style="opacity:1" fill="#2d82cf" d="M 447.5,80.5 C 449.337,80.6395 449.67,81.3061 448.5,82.5C 447.702,82.0431 447.369,81.3764 447.5,80.5 Z"/></g>
<g><path style="opacity:1" fill="#468dd4" d="M 460.5,80.5 C 461.999,81.6782 462.999,83.3449 463.5,85.5C 466.245,84.0247 468.412,84.6913 470,87.5C 470.498,90.4816 470.665,93.4816 470.5,96.5C 469.5,96.5 468.5,96.5 467.5,96.5C 467.5,93.1667 467.5,89.8333 467.5,86.5C 465.856,86.2865 464.356,86.6198 463,87.5C 462.821,90.5535 462.321,93.5535 461.5,96.5C 460.505,91.2079 460.172,85.8746 460.5,80.5 Z"/></g>
<g><path style="opacity:1" fill="#5c9cda" d="M 472.5,80.5 C 475.293,80.74 475.793,81.74 474,83.5C 472.961,82.7562 472.461,81.7562 472.5,80.5 Z"/></g>
<g><path style="opacity:1" fill="#808080" d="M 221.5,80.5 C 224.331,81.0787 226.664,82.412 228.5,84.5C 225.669,83.9213 223.336,82.588 221.5,80.5 Z"/></g>
<g><path style="opacity:1" fill="#669fdb" d="M 395.5,85.5 C 396.787,86.8714 397.453,88.7047 397.5,91C 397.167,92.8333 396.833,94.6667 396.5,96.5C 395.511,92.8927 395.177,89.226 395.5,85.5 Z"/></g>
<g><path style="opacity:1" fill="#2c7fcf" d="M 423.5,85.5 C 425.199,85.3398 426.866,85.5065 428.5,86C 427.584,86.3742 426.75,86.8742 426,87.5C 425.821,90.5535 425.321,93.5535 424.5,96.5C 423.511,92.8927 423.177,89.226 423.5,85.5 Z"/></g>
<g><path style="opacity:1" fill="#2a86d2" d="M 447.5,85.5 C 448.787,86.8714 449.453,88.7047 449.5,91C 449.167,92.8333 448.833,94.6667 448.5,96.5C 447.511,92.8927 447.177,89.226 447.5,85.5 Z"/></g>
<g><path style="opacity:1" fill="#3285d1" d="M 472.5,85.5 C 473.787,86.8714 474.453,88.7047 474.5,91C 474.167,92.8333 473.833,94.6667 473.5,96.5C 472.511,92.8927 472.177,89.226 472.5,85.5 Z"/></g>
<g><path style="opacity:1" fill="#8abce6" d="M 479.5,85.5 C 478.518,88.9619 478.185,92.6286 478.5,96.5C 477.191,92.6493 477.191,88.6493 478.5,84.5C 479.107,84.6236 479.44,84.9569 479.5,85.5 Z"/></g>
<g><path style="opacity:1" fill="#4189d3" d="M 478.5,96.5 C 478.185,92.6286 478.518,88.9619 479.5,85.5C 485.277,83.2728 487.944,85.2728 487.5,91.5C 487.167,93.1667 486.833,94.8333 486.5,96.5C 485.679,93.5535 485.179,90.5535 485,87.5C 483.951,86.4829 482.784,86.3162 481.5,87C 481.167,90.5719 480.167,93.7385 478.5,96.5 Z"/></g>
<g><path style="opacity:1" fill="#2881cf" d="M 453.5,82.5 C 454.931,83.4458 456.264,84.6125 457.5,86C 454.881,89.0854 454.881,92.2521 457.5,95.5C 456.349,96.731 455.183,96.731 454,95.5C 454.021,91.9912 453.188,88.8245 451.5,86C 452.973,85.2904 453.64,84.1238 453.5,82.5 Z"/></g>
<g><path style="opacity:1" fill="#76b0e1" d="M 385.5,82.5 C 385.5,84.1667 385.5,85.8333 385.5,87.5C 387.735,87.2053 389.735,87.5386 391.5,88.5C 389.167,88.5 386.833,88.5 384.5,88.5C 384.205,86.2646 384.539,84.2646 385.5,82.5 Z"/></g>
<g><path style="opacity:1" fill="#438ed4" d="M 430.5,85.5 C 432.34,87.6586 433.507,90.3253 434,93.5C 434.165,89.4519 435.998,86.7852 439.5,85.5C 440.232,96.0282 441.565,96.0282 443.5,85.5C 443.833,86.1667 444.167,86.8333 444.5,87.5C 443.672,90.4788 443.005,93.4788 442.5,96.5C 441.5,96.5 440.5,96.5 439.5,96.5C 438.167,87.1667 436.833,87.1667 435.5,96.5C 434.5,96.5 433.5,96.5 432.5,96.5C 431.833,92.8333 431.167,89.1667 430.5,85.5 Z"/></g>
<g><path style="opacity:1" fill="#3485d1" d="M 414.5,84.5 C 419.373,84.373 421.373,86.7064 420.5,91.5C 417.753,91.1866 415.086,91.52 412.5,92.5C 413.171,93.9458 414.338,94.6125 416,94.5C 417.55,94.0495 419.05,93.8829 420.5,94C 417.682,97.1286 414.682,97.2953 411.5,94.5C 409.744,90.2476 410.744,86.9143 414.5,84.5 Z"/></g>
<g><path style="opacity:1" fill="#f0f6fc" d="M 414.5,86.5 C 416.346,86.2222 417.68,86.8888 418.5,88.5C 416.579,89.641 414.579,89.8077 412.5,89C 413.381,88.2917 414.047,87.4584 414.5,86.5 Z"/></g>
<g><path style="opacity:1" fill="#3084d0" d="M 400.5,85.5 C 402.024,86.1738 403.358,87.1738 404.5,88.5C 405.275,86.5247 406.609,85.6913 408.5,86C 407.624,87.586 406.624,89.086 405.5,90.5C 409.612,96.8868 409.112,97.5534 404,92.5C 403.268,94.9232 401.768,96.0899 399.5,96C 400.453,94.0448 401.787,92.3782 403.5,91C 402.242,89.2591 401.242,87.4258 400.5,85.5 Z"/></g>
<g><path style="opacity:1" fill="#e8e8e8" d="M 326.5,47.5 C 331.537,51.8833 335.37,57.2166 338,63.5C 341.094,70.8754 343.094,78.5421 344,86.5C 344.667,142.5 344.667,198.5 344,254.5C 343.051,266.866 338.884,277.866 331.5,287.5C 339.227,273.595 343.06,258.595 343,242.5C 343.667,194.833 343.667,147.167 343,99.5C 343.954,79.9426 338.454,62.6093 326.5,47.5 Z"/></g>
<g><path style="opacity:1" fill="#dfdfdf" d="M 228.5,84.5 C 243.318,91.4068 257.651,99.0735 271.5,107.5C 270.041,107.433 268.708,107.766 267.5,108.5C 265.882,106.684 263.882,105.351 261.5,104.5C 249.993,98.5838 238.993,91.9172 228.5,84.5 Z"/></g>
<g><path style="opacity:1" fill="#e8e8e8" d="M 69.5,53.5 C 66.7547,58.6603 64.2547,63.9936 62,69.5C 60.3631,74.7141 59.3631,80.0475 59,85.5C 57.8991,113.816 57.3991,142.15 57.5,170.5C 57.3991,198.85 57.8991,227.184 59,255.5C 59.6813,260.892 60.6813,266.225 62,271.5C 64.2547,277.006 66.7547,282.34 69.5,287.5C 62.1162,277.866 57.9495,266.866 57,254.5C 56.3333,198.5 56.3333,142.5 57,86.5C 57.9495,74.1344 62.1162,63.1344 69.5,53.5 Z"/></g>
<g><path style="opacity:1" fill="#8a8a8a" d="M 261.5,104.5 C 263.882,105.351 265.882,106.684 267.5,108.5C 264.843,108.065 262.509,107.065 260.5,105.5C 261.167,105.5 261.5,105.167 261.5,104.5 Z"/></g>
<g><path style="opacity:1" fill="#0c0c0c" d="M 236.5,108.5 C 236.02,111.005 235.02,113.338 233.5,115.5C 234.188,116.855 235.188,117.855 236.5,118.5C 236.833,119.5 237.5,120.167 238.5,120.5C 234.059,124.077 234.725,126.077 240.5,126.5C 240.833,127.5 241.5,128.167 242.5,128.5C 243.833,131.167 245.167,131.167 246.5,128.5C 248.028,128.517 248.528,129.184 248,130.5C 246.938,131.097 245.772,131.43 244.5,131.5C 240.301,129.653 235.968,127.986 231.5,126.5C 231.167,126.833 230.833,127.167 230.5,127.5C 233.251,133.581 235.251,139.914 236.5,146.5C 236.5,146.833 236.5,147.167 236.5,147.5C 230.404,142.981 226.57,136.981 225,129.5C 224.601,136.379 226.767,142.379 231.5,147.5C 229.813,148.568 228.146,148.401 226.5,147C 225.672,146.085 224.672,145.419 223.5,145C 224.5,144.667 225.5,144.333 226.5,144C 225.09,142.628 223.423,141.795 221.5,141.5C 220.391,142.29 219.058,142.79 217.5,143C 218.167,143.333 218.833,143.667 219.5,144C 218.062,144.219 216.729,144.719 215.5,145.5C 215.709,146.086 216.043,146.586 216.5,147C 222.287,149.894 228.287,152.227 234.5,154C 235.255,156.175 236.088,158.341 237,160.5C 237.186,157.964 237.686,155.631 238.5,153.5C 239.167,152.833 239.833,152.167 240.5,151.5C 241.423,155.064 241.756,158.731 241.5,162.5C 245.767,162.203 249.934,162.536 254,163.5C 254.667,169.5 254.667,175.5 254,181.5C 252.163,185.181 249.33,187.515 245.5,188.5C 245.338,186.473 245.505,184.473 246,182.5C 247.356,181.62 248.856,181.286 250.5,181.5C 250.5,177.167 250.5,172.833 250.5,168.5C 245.059,168.969 240.225,170.969 236,174.5C 236.747,176.976 238.081,179.309 240,181.5C 240.944,184.347 240.444,186.847 238.5,189C 234.952,190.941 231.286,192.607 227.5,194C 223.789,194.439 220.122,194.106 216.5,193C 215.295,190.766 215.961,189.099 218.5,188C 221.02,187.986 223.52,188.486 226,189.5C 229.195,189.069 232.195,188.069 235,186.5C 235.684,185.216 235.517,184.049 234.5,183C 231.816,182.222 229.483,180.889 227.5,179C 226.167,178.333 224.833,178.333 223.5,179C 214.176,185.442 203.842,189.109 192.5,190C 190.932,192.304 189.765,194.804 189,197.5C 185.172,200.415 181.172,203.081 177,205.5C 176.7,207.066 177.2,208.399 178.5,209.5C 177.417,209.461 176.417,209.127 175.5,208.5C 174.438,209.425 174.438,210.425 175.5,211.5C 170.648,208.338 166.814,209.338 164,214.5C 163.333,217.5 163.333,220.5 164,223.5C 166.692,226.692 169.192,230.025 171.5,233.5C 166.56,236.882 163.727,235.548 163,229.5C 162,228.833 161,228.167 160,227.5C 159.448,220.758 158.782,214.092 158,207.5C 159.918,206.458 161.751,205.292 163.5,204C 162.941,203.275 162.608,202.442 162.5,201.5C 163.277,199.553 164.277,197.72 165.5,196C 164.724,193.005 163.557,190.172 162,187.5C 161.272,184.77 161.438,182.103 162.5,179.5C 162,179.167 161.5,178.833 161,178.5C 156.539,179.247 152.039,179.747 147.5,180C 145.419,181.712 145.085,181.212 146.5,178.5C 147.025,177.808 147.692,177.308 148.5,177C 146.432,176.313 144.432,176.48 142.5,177.5C 139.222,181.721 136.722,186.388 135,191.5C 133.362,193.734 131.195,195.067 128.5,195.5C 127.042,193.145 125.708,193.478 124.5,196.5C 120.298,199.361 115.631,200.194 110.5,199C 113.167,198.333 113.167,197.667 110.5,197C 110.833,196.667 111.167,196.333 111.5,196C 109.956,195.71 108.623,195.044 107.5,194C 113.903,191.655 113.903,189.655 107.5,188C 110.5,187.667 113.5,187.333 116.5,187C 115.833,186.333 115.167,185.667 114.5,185C 116.891,184.713 119.224,184.213 121.5,183.5C 124.095,180.612 126.428,177.612 128.5,174.5C 127.505,180.51 124.172,184.51 118.5,186.5C 119.025,187.192 119.692,187.692 120.5,188C 119.062,188.219 117.729,188.719 116.5,189.5C 120.456,190.464 123.956,189.464 127,186.5C 127.718,187.451 128.551,187.617 129.5,187C 130.956,184.734 131.79,182.234 132,179.5C 132.333,181.5 132.667,183.5 133,185.5C 134.889,181.436 135.889,177.103 136,172.5C 139.194,167.661 143.361,166.494 148.5,169C 141.517,169.908 141.183,170.908 147.5,172C 147.167,172.333 146.833,172.667 146.5,173C 150.354,173.354 154.188,173.854 158,174.5C 159.792,174.519 160.292,174.186 159.5,173.5C 159.5,173.167 159.5,172.833 159.5,172.5C 163.155,173.075 166.155,172.075 168.5,169.5C 171.249,170.489 173.249,169.489 174.5,166.5C 176.819,166.008 178.819,165.008 180.5,163.5C 185.179,163.666 189.845,163.499 194.5,163C 201.263,159.251 206.096,154.084 209,147.5C 208.148,148.571 207.315,149.571 206.5,150.5C 204.007,150.869 203.34,150.203 204.5,148.5C 201.933,147.084 199.266,145.584 196.5,144C 197.833,143.667 199.167,143.333 200.5,143C 199.328,142.581 198.328,141.915 197.5,141C 199.527,139.121 201.86,137.954 204.5,137.5C 207.13,136.826 207.13,137.493 204.5,139.5C 205.5,140.333 206.5,141.167 207.5,142C 208.483,142.591 209.15,142.257 209.5,141C 208.349,138.535 207.349,136.035 206.5,133.5C 207.263,132.732 208.263,132.232 209.5,132C 208.944,131.617 208.611,131.117 208.5,130.5C 208.414,129.504 208.748,128.671 209.5,128C 208.584,127.722 207.918,127.222 207.5,126.5C 209.2,125.984 210.533,124.984 211.5,123.5C 210.726,122.289 209.893,122.289 209,123.5C 209.698,121.236 209.198,119.403 207.5,118C 209.556,117.689 211.556,117.189 213.5,116.5C 214.711,115.726 214.711,114.893 213.5,114C 216.952,113.108 219.952,111.442 222.5,109C 224.473,108.505 226.473,108.338 228.5,108.5C 227.912,103.823 229.579,102.156 233.5,103.5C 233.201,105.604 233.534,107.604 234.5,109.5C 235.183,109.137 235.85,108.804 236.5,108.5 Z"/></g>
<g><path style="opacity:1" fill="#8a8a8c" d="M 498.5,109.5 C 500.045,110.23 500.878,111.563 501,113.5C 502.333,112.167 503.667,112.167 505,113.5C 505.667,116.167 505.667,118.833 505,121.5C 504.503,119.19 504.337,116.857 504.5,114.5C 503.167,114.5 501.833,114.5 500.5,114.5C 500.808,116.924 500.474,119.257 499.5,121.5C 498.509,117.555 498.176,113.555 498.5,109.5 Z"/></g>
<g><path style="opacity:1" fill="#878789" d="M 382.5,110.5 C 385.187,110.336 387.854,110.503 390.5,111C 393.907,118.783 391.24,122.283 382.5,121.5C 382.5,117.833 382.5,114.167 382.5,110.5 Z"/></g>
<g><path style="opacity:1" fill="#767678" d="M 488.5,110.5 C 490.857,110.337 493.19,110.503 495.5,111C 496.983,116.026 494.983,118.193 489.5,117.5C 489.657,118.873 489.49,120.207 489,121.5C 488.501,117.848 488.335,114.182 488.5,110.5 Z"/></g>
<g><path style="opacity:1" fill="#f9f9f9" d="M 384.5,111.5 C 390.643,112.026 391.976,114.86 388.5,120C 387.207,120.49 385.873,120.657 384.5,120.5C 384.5,117.5 384.5,114.5 384.5,111.5 Z"/></g>
<g><path style="opacity:1" fill="#ececec" d="M 489.5,111.5 C 491.167,111.5 492.833,111.5 494.5,111.5C 495.167,115.5 493.5,117.167 489.5,116.5C 489.5,114.833 489.5,113.167 489.5,111.5 Z"/></g>
<g><path style="opacity:1" fill="#c8c8c8" d="M 228.5,110.5 C 229.873,110.343 231.207,110.51 232.5,111C 230.122,111.974 230.456,112.641 233.5,113C 230.644,114.906 228.977,114.073 228.5,110.5 Z"/></g>
<g><path style="opacity:1" fill="#7b7b7e" d="M 459.5,109.5 C 462.999,109.259 463.332,110.092 460.5,112C 461.308,112.308 461.975,112.808 462.5,113.5C 460.933,115.896 460.1,118.563 460,121.5C 459.003,117.428 458.836,113.428 459.5,109.5 Z"/></g>
<g><path style="opacity:1" fill="#3f3f3f" d="M 273.5,108.5 C 274.809,110.571 275.475,113.071 275.5,116C 275.497,118.69 275.164,121.19 274.5,123.5C 274.779,118.405 274.445,113.405 273.5,108.5 Z"/></g>
<g><path style="opacity:1" fill="#88888a" d="M 428.5,112.5 C 429.822,112.33 430.989,112.663 432,113.5C 432.667,116.167 432.667,118.833 432,121.5C 431.503,119.19 431.337,116.857 431.5,114.5C 430.167,114.5 428.833,114.5 427.5,114.5C 427.808,116.924 427.474,119.257 426.5,121.5C 425.52,118.914 425.187,116.247 425.5,113.5C 426.791,113.737 427.791,113.404 428.5,112.5 Z"/></g>
<g><path style="opacity:1" fill="#8f8f91" d="M 476.5,112.5 C 477.376,112.369 478.043,112.702 478.5,113.5C 477.675,114.386 476.675,114.719 475.5,114.5C 475.808,116.924 475.474,119.257 474.5,121.5C 473.52,118.914 473.187,116.247 473.5,113.5C 474.791,113.737 475.791,113.404 476.5,112.5 Z"/></g>
<g><path style="opacity:1" fill="#909092" d="M 520.5,112.5 C 521.822,112.33 522.989,112.663 524,113.5C 524.818,116.227 524.652,118.894 523.5,121.5C 522.526,119.257 522.192,116.924 522.5,114.5C 521.5,114.5 520.5,114.5 519.5,114.5C 519.808,116.924 519.474,119.257 518.5,121.5C 517.52,118.914 517.187,116.247 517.5,113.5C 518.791,113.737 519.791,113.404 520.5,112.5 Z"/></g>
<g><path style="opacity:1" fill="#838385" d="M 408.5,120.5 C 406.882,118.675 405.215,116.842 403.5,115C 405.405,112.069 407.405,111.903 409.5,114.5C 408.313,114.554 406.98,114.887 405.5,115.5C 406.628,116.262 407.795,116.929 409,117.5C 409.74,118.749 409.573,119.749 408.5,120.5 Z"/></g>
<g><path style="opacity:1" fill="#848486" d="M 417.5,112.5 C 419.331,113.052 420.997,113.052 422.5,112.5C 423.657,115.784 423.824,119.118 423,122.5C 420.692,124.983 418.192,125.149 415.5,123C 417.425,123.135 419.425,123.302 421.5,123.5C 421.911,120.724 421.078,120.057 419,121.5C 414.967,119.164 414.467,116.164 417.5,112.5 Z"/></g>
<g><path style="opacity:1" fill="#f2f2f3" d="M 417.5,114.5 C 418.833,114.5 420.167,114.5 421.5,114.5C 421.5,116.167 421.5,117.833 421.5,119.5C 417.065,120.078 415.732,118.411 417.5,114.5 Z"/></g>
<g><path style="opacity:1" fill="#707070" d="M 236.5,108.5 C 238.074,111.106 239.741,113.773 241.5,116.5C 240.418,116.749 239.085,116.915 237.5,117C 236.944,117.383 236.611,117.883 236.5,118.5C 235.188,117.855 234.188,116.855 233.5,115.5C 235.02,113.338 236.02,111.005 236.5,108.5 Z"/></g>
<g><path style="opacity:1" fill="#88888a" d="M 465.5,112.5 C 471.643,113.026 472.976,115.86 469.5,121C 464.504,121.664 462.67,119.498 464,114.5C 464.717,113.956 465.217,113.289 465.5,112.5 Z"/></g>
<g><path style="opacity:1" fill="#fafafa" d="M 465.5,114.5 C 466.833,114.5 468.167,114.5 469.5,114.5C 469.949,116.977 469.283,118.977 467.5,120.5C 465.717,118.977 465.051,116.977 465.5,114.5 Z"/></g>
<g><path style="opacity:1" fill="#88888a" d="M 509.5,112.5 C 515.643,113.026 516.976,115.86 513.5,121C 508.504,121.664 506.67,119.498 508,114.5C 508.717,113.956 509.217,113.289 509.5,112.5 Z"/></g>
<g><path style="opacity:1" fill="#fafafa" d="M 509.5,114.5 C 510.833,114.5 512.167,114.5 513.5,114.5C 513.949,116.977 513.283,118.977 511.5,120.5C 509.717,118.977 509.051,116.977 509.5,114.5 Z"/></g>
<g><path style="opacity:1" fill="#7e7e81" d="M 396.5,112.5 C 399.833,112.5 401.5,114.167 401.5,117.5C 399.396,117.201 397.396,117.534 395.5,118.5C 396.748,120.69 398.414,121.023 400.5,119.5C 401.696,119.846 401.696,120.346 400.5,121C 396.819,122.314 394.486,121.147 393.5,117.5C 393.757,115.308 394.757,113.641 396.5,112.5 Z"/></g>
<g><path style="opacity:1" fill="#f7f7f8" d="M 395.5,114.5 C 396.978,114.238 398.311,114.571 399.5,115.5C 398.833,115.833 398.167,116.167 397.5,116.5C 396.287,116.253 395.62,115.586 395.5,114.5 Z"/></g>
<g><path style="opacity:1" fill="#717174" d="M 408.5,120.5 C 406.815,121.844 405.148,121.677 403.5,120C 405.107,120.019 406.774,120.185 408.5,120.5 Z"/></g>
<g><path style="opacity:1" fill="#858587" d="M 436.5,112.5 C 440.349,112.019 442.349,113.686 442.5,117.5C 440.396,117.201 438.396,117.534 436.5,118.5C 437.748,120.69 439.414,121.023 441.5,119.5C 442.696,119.846 442.696,120.346 441.5,121C 434.416,121.475 432.749,118.642 436.5,112.5 Z"/></g>
<g><path style="opacity:1" fill="#f7f7f7" d="M 436.5,114.5 C 437.978,114.238 439.311,114.571 440.5,115.5C 439.833,115.833 439.167,116.167 438.5,116.5C 437.287,116.253 436.62,115.586 436.5,114.5 Z"/></g>
<g><path style="opacity:1" fill="#848486" d="M 449.5,109.5 C 451.423,113.029 452.089,117.029 451.5,121.5C 444.06,122.247 442.06,119.413 445.5,113C 446.793,112.51 448.127,112.343 449.5,112.5C 449.5,111.5 449.5,110.5 449.5,109.5 Z"/></g>
<g><path style="opacity:1" fill="#f2f2f2" d="M 445.5,114.5 C 449.909,113.899 451.242,115.566 449.5,119.5C 448.28,120.711 447.113,120.711 446,119.5C 445.506,117.866 445.34,116.199 445.5,114.5 Z"/></g>
<g><path style="opacity:1" fill="#8a8a8c" d="M 528.5,112.5 C 532.172,112.183 533.838,113.849 533.5,117.5C 531.712,117.215 530.045,117.548 528.5,118.5C 528.833,119.5 529.5,120.167 530.5,120.5C 531.451,119.674 532.451,119.508 533.5,120C 529.69,122.409 527.356,121.409 526.5,117C 526.519,115.167 527.185,113.667 528.5,112.5 Z"/></g>
<g><path style="opacity:1" fill="#888888" d="M 238.5,120.5 C 239.738,122.214 240.405,124.214 240.5,126.5C 234.725,126.077 234.059,124.077 238.5,120.5 Z"/></g>
<g><path style="opacity:1" fill="#4f4f4f" d="M 207.5,126.5 C 207.918,127.222 208.584,127.722 209.5,128C 208.748,128.671 208.414,129.504 208.5,130.5C 207.21,128.86 205.543,128.36 203.5,129C 204.552,130.716 203.886,131.716 201.5,132C 201.728,132.399 202.062,132.565 202.5,132.5C 202.719,133.675 202.386,134.675 201.5,135.5C 200.304,135.154 200.304,134.654 201.5,134C 200.263,133.768 199.263,133.268 198.5,132.5C 199.683,131.496 201.016,130.662 202.5,130C 201.376,129.751 200.376,129.251 199.5,128.5C 202.187,127.74 204.853,127.073 207.5,126.5 Z"/></g>
<g><path style="opacity:1" fill="#737373" d="M 246.5,128.5 C 245.167,131.167 243.833,131.167 242.5,128.5C 242.918,127.778 243.584,127.278 244.5,127C 243.398,124.599 243.231,122.099 244,119.5C 245.022,120.354 245.855,121.354 246.5,122.5C 245.181,124.532 245.181,126.532 246.5,128.5 Z"/></g>
<g><path style="opacity:1" fill="#cecece" d="M 208.5,130.5 C 208.611,131.117 208.944,131.617 209.5,132C 208.263,132.232 207.263,132.732 206.5,133.5C 205.761,133.369 205.094,133.536 204.5,134C 205.696,134.654 205.696,135.154 204.5,135.5C 203.824,134.398 203.158,133.398 202.5,132.5C 202.062,132.565 201.728,132.399 201.5,132C 203.886,131.716 204.552,130.716 203.5,129C 205.543,128.36 207.21,128.86 208.5,130.5 Z"/></g>
<g><path style="opacity:1" fill="#909090" d="M 198.5,132.5 C 199.263,133.268 200.263,133.768 201.5,134C 200.304,134.654 200.304,135.154 201.5,135.5C 202.386,134.675 202.719,133.675 202.5,132.5C 203.158,133.398 203.824,134.398 204.5,135.5C 205.696,135.154 205.696,134.654 204.5,134C 205.094,133.536 205.761,133.369 206.5,133.5C 207.349,136.035 208.349,138.535 209.5,141C 209.15,142.257 208.483,142.591 207.5,142C 206.5,141.167 205.5,140.333 204.5,139.5C 207.13,137.493 207.13,136.826 204.5,137.5C 201.89,136.843 199.557,135.509 197.5,133.5C 197.624,132.893 197.957,132.56 198.5,132.5 Z"/></g>
<g><path style="opacity:1" fill="#a5a5a5" d="M 221.5,141.5 C 219.804,141.315 218.471,140.481 217.5,139C 219.615,138.464 220.948,139.297 221.5,141.5 Z"/></g>
<g><path style="opacity:1" fill="#262626" d="M 133.5,128.5 C 134.6,130.277 135.434,132.277 136,134.5C 137.497,142.812 138.997,151.145 140.5,159.5C 139.5,159.5 138.5,159.5 137.5,159.5C 135.18,149.307 133.847,138.974 133.5,128.5 Z"/></g>
<g><path style="opacity:1" fill="#e2e2e2" d="M 236.5,147.5 C 238.081,149.142 238.747,151.142 238.5,153.5C 237.686,155.631 237.186,157.964 237,160.5C 236.088,158.341 235.255,156.175 234.5,154C 228.287,152.227 222.287,149.894 216.5,147C 216.043,146.586 215.709,146.086 215.5,145.5C 216.729,144.719 218.062,144.219 219.5,144C 218.833,143.667 218.167,143.333 217.5,143C 219.058,142.79 220.391,142.29 221.5,141.5C 223.423,141.795 225.09,142.628 226.5,144C 225.5,144.333 224.5,144.667 223.5,145C 224.672,145.419 225.672,146.085 226.5,147C 228.146,148.401 229.813,148.568 231.5,147.5C 226.767,142.379 224.601,136.379 225,129.5C 226.57,136.981 230.404,142.981 236.5,147.5 Z"/></g>
<g><path style="opacity:1" fill="#606060" d="M 236.5,146.5 C 238.543,147.579 239.876,149.246 240.5,151.5C 239.833,152.167 239.167,152.833 238.5,153.5C 238.747,151.142 238.081,149.142 236.5,147.5C 236.5,147.167 236.5,146.833 236.5,146.5 Z"/></g>
<g><path style="opacity:1" fill="#f99f2e" d="M 387.5,146.5 C 388.98,148.412 390.98,149.579 393.5,150C 392.272,150.779 391.272,151.779 390.5,153C 391.187,154.162 391.353,155.328 391,156.5C 389,153.833 387,153.833 385,156.5C 384.647,155.328 384.813,154.162 385.5,153C 384.728,151.779 383.728,150.779 382.5,150C 384.936,149.794 386.602,148.627 387.5,146.5 Z"/></g>
<g><path style="opacity:1" fill="#f99f2e" d="M 399.5,146.5 C 400.98,148.412 402.98,149.579 405.5,150C 404.272,150.779 403.272,151.779 402.5,153C 403.187,154.162 403.353,155.328 403,156.5C 401,153.833 399,153.833 397,156.5C 396.647,155.328 396.813,154.162 397.5,153C 396.728,151.779 395.728,150.779 394.5,150C 396.936,149.794 398.602,148.627 399.5,146.5 Z"/></g>
<g><path style="opacity:1" fill="#f99f2e" d="M 412.5,146.5 C 413.98,148.412 415.98,149.579 418.5,150C 417.272,150.779 416.272,151.779 415.5,153C 416.187,154.162 416.353,155.328 416,156.5C 414,153.833 412,153.833 410,156.5C 409.647,155.328 409.813,154.162 410.5,153C 409.728,151.779 408.728,150.779 407.5,150C 409.936,149.794 411.602,148.627 412.5,146.5 Z"/></g>
<g><path style="opacity:1" fill="#f99f2e" d="M 424.5,146.5 C 425.98,148.412 427.98,149.579 430.5,150C 429.272,150.779 428.272,151.779 427.5,153C 428.187,154.162 428.353,155.328 428,156.5C 426,153.833 424,153.833 422,156.5C 421.647,155.328 421.813,154.162 422.5,153C 421.728,151.779 420.728,150.779 419.5,150C 421.936,149.794 423.602,148.627 424.5,146.5 Z"/></g>
<g><path style="opacity:1" fill="#c8c8c8" d="M 437.5,154.5 C 437.5,152.167 437.5,149.833 437.5,147.5C 437.435,147.062 437.601,146.728 438,146.5C 439.242,148.541 441.075,149.707 443.5,150C 442.5,151 441.5,152 440.5,153C 441.517,154.049 441.684,155.216 441,156.5C 440.184,155.177 439.017,154.511 437.5,154.5 Z"/></g>
<g><path style="opacity:1" fill="#2f2f2f" d="M 204.5,148.5 C 203.34,150.203 204.007,150.869 206.5,150.5C 203.348,155.24 199.015,158.24 193.5,159.5C 196.944,157.264 200.277,154.764 203.5,152C 202.016,150.426 200.349,149.093 198.5,148C 200.488,147.82 202.488,147.986 204.5,148.5 Z"/></g>
<g><path style="opacity:1" fill="#f9a02f" d="M 437.5,147.5 C 437.5,149.833 437.5,152.167 437.5,154.5C 434.669,157.362 434.002,156.862 435.5,153C 434.728,151.779 433.728,150.779 432.5,150C 434.503,149.665 436.17,148.832 437.5,147.5 Z"/></g>
<g><path style="opacity:1" fill="#b8b8ba" d="M 460.5,148.5 C 462.199,148.34 463.866,148.506 465.5,149C 462.332,149.582 461.999,150.582 464.5,152C 461.233,153.915 459.9,152.748 460.5,148.5 Z"/></g>
<g><path style="opacity:1" fill="#99999c" d="M 472.5,152.5 C 473.5,152.5 474.5,152.5 475.5,152.5C 475.5,153.5 475.5,154.5 475.5,155.5C 472.433,155.879 471.433,154.879 472.5,152.5 Z"/></g>
<g><path style="opacity:1" fill="#d0d0d1" d="M 487.5,148.5 C 493.167,148.664 493.5,148.997 488.5,149.5C 488.119,151.942 488.786,152.609 490.5,151.5C 493.313,152.617 493.98,154.45 492.5,157C 490.833,157.667 489.167,157.667 487.5,157C 487.173,154.315 487.173,151.482 487.5,148.5 Z"/></g>
<g><path style="opacity:1" fill="#bdbdbf" d="M 498.5,148.5 C 500.199,148.34 501.866,148.506 503.5,149C 504.059,149.725 504.392,150.558 504.5,151.5C 503.392,153.518 503.225,155.518 504,157.5C 503.092,155.561 501.592,154.561 499.5,154.5C 498.223,155.317 497.89,153.317 498.5,148.5 Z"/></g>
<g><path style="opacity:1" fill="#b4b4b7" d="M 507.5,150.5 C 508.822,150.33 509.989,150.663 511,151.5C 511.495,153.473 511.662,155.473 511.5,157.5C 509.833,157.5 508.167,157.5 506.5,157.5C 506.22,154.612 507.553,153.112 510.5,153C 509.428,151.716 508.095,151.383 506.5,152C 507.056,151.617 507.389,151.117 507.5,150.5 Z"/></g>
<g><path style="opacity:1" fill="#b5b5b7" d="M 523.5,150.5 C 524.496,150.414 525.329,150.748 526,151.5C 526.667,153.5 526.667,155.5 526,157.5C 525.506,155.866 525.34,154.199 525.5,152.5C 524.5,152.5 523.5,152.5 522.5,152.5C 522.66,154.199 522.494,155.866 522,157.5C 521.185,154.802 521.685,152.468 523.5,150.5 Z"/></g>
<g><path style="opacity:1" fill="#c5c5c7" d="M 530.5,150.5 C 533.359,150.801 534.693,152.467 534.5,155.5C 534.983,160.208 533.316,161.375 529.5,159C 534.833,158.333 534.833,157.667 529.5,157C 528.144,154.586 528.478,152.419 530.5,150.5 Z"/></g>
<g><path style="opacity:1" fill="#adadb0" d="M 537.5,150.5 C 539.103,150.312 540.437,150.812 541.5,152C 539.905,151.383 538.572,151.716 537.5,153C 540.105,153.026 541.271,154.193 541,156.5C 539.89,154.963 538.39,154.297 536.5,154.5C 536.433,153.041 536.766,151.708 537.5,150.5 Z"/></g>
<g><path style="opacity:1" fill="#b2b2b5" d="M 452.5,148.5 C 454.141,150.203 455.141,152.37 455.5,155C 454.874,155.75 454.374,156.584 454,157.5C 452.951,155.893 451.451,155.227 449.5,155.5C 450.011,152.978 451.011,150.645 452.5,148.5 Z"/></g>
<g><path style="opacity:1" fill="#c8c8c8" d="M 180.5,163.5 C 184.233,162.023 188.233,161.189 192.5,161C 193.056,160.617 193.389,160.117 193.5,159.5C 199.015,158.24 203.348,155.24 206.5,150.5C 207.315,149.571 208.148,148.571 209,147.5C 206.096,154.084 201.263,159.251 194.5,163C 189.845,163.499 185.179,163.666 180.5,163.5 Z"/></g>
<g><path style="opacity:1" fill="#707070" d="M 193.5,159.5 C 193.389,160.117 193.056,160.617 192.5,161C 188.233,161.189 184.233,162.023 180.5,163.5C 178.819,165.008 176.819,166.008 174.5,166.5C 175.167,165.5 175.833,164.5 176.5,163.5C 181.713,160.789 187.38,159.456 193.5,159.5 Z"/></g>
<g><path style="opacity:1" fill="#2c2c2c" d="M 159.5,172.5 C 159.5,172.833 159.5,173.167 159.5,173.5C 154.419,170.442 149.086,167.775 143.5,165.5C 137.025,166.23 132.025,169.23 128.5,174.5C 130.86,167.977 135.527,164.311 142.5,163.5C 148.904,165.268 154.571,168.268 159.5,172.5 Z"/></g>
<g><path style="opacity:1" fill="#c1c1c1" d="M 216.5,160.5 C 216.56,159.957 216.893,159.624 217.5,159.5C 219.332,160.248 220.999,161.248 222.5,162.5C 223.887,165.492 225.554,168.325 227.5,171C 226.833,171.667 226.167,171.667 225.5,171C 223.683,169.2 222.516,167.034 222,164.5C 220.568,162.561 218.735,161.228 216.5,160.5 Z"/></g>
<g><path style="opacity:1" fill="#3b3b3b" d="M 176.5,163.5 C 175.833,164.5 175.167,165.5 174.5,166.5C 173.249,169.489 171.249,170.489 168.5,169.5C 170.878,167.122 173.545,165.122 176.5,163.5 Z"/></g>
<g><path style="opacity:1" fill="#e0e0e0" d="M 159.5,173.5 C 160.292,174.186 159.792,174.519 158,174.5C 154.188,173.854 150.354,173.354 146.5,173C 146.833,172.667 147.167,172.333 147.5,172C 141.183,170.908 141.517,169.908 148.5,169C 143.361,166.494 139.194,167.661 136,172.5C 135.889,177.103 134.889,181.436 133,185.5C 132.667,183.5 132.333,181.5 132,179.5C 131.79,182.234 130.956,184.734 129.5,187C 128.551,187.617 127.718,187.451 127,186.5C 123.956,189.464 120.456,190.464 116.5,189.5C 117.729,188.719 119.062,188.219 120.5,188C 119.692,187.692 119.025,187.192 118.5,186.5C 124.172,184.51 127.505,180.51 128.5,174.5C 132.025,169.23 137.025,166.23 143.5,165.5C 149.086,167.775 154.419,170.442 159.5,173.5 Z"/></g>
<g><path style="opacity:1" fill="#a4a4a4" d="M 232.5,165.5 C 233.613,166.946 233.78,168.613 233,170.5C 231.365,171.849 229.865,171.682 228.5,170C 229.448,169.517 230.448,169.351 231.5,169.5C 231.433,168.041 231.766,166.708 232.5,165.5 Z"/></g>
<g><path style="opacity:1" fill="#eaeaea" d="M 186.5,181.5 C 187.477,184.287 187.81,187.287 187.5,190.5C 187.162,192.854 186.662,195.187 186,197.5C 185.163,199.007 183.996,199.507 182.5,199C 183.43,197.806 184.097,196.473 184.5,195C 182.761,190.066 183.428,185.566 186.5,181.5 Z"/></g>
<g><path style="opacity:1" fill="#9e9e9e" d="M 187.5,190.5 C 187.81,187.287 187.477,184.287 186.5,181.5C 187.387,179.265 188.387,178.765 189.5,180C 188.938,183.654 188.271,187.154 187.5,190.5 Z"/></g>
<g><path style="opacity:1" fill="#6b6b6b" d="M 382.5,184.5 C 384.857,184.337 387.19,184.503 389.5,185C 387.866,185.494 386.199,185.66 384.5,185.5C 384.5,186.833 384.5,188.167 384.5,189.5C 391.167,189.833 391.167,190.167 384.5,190.5C 384.785,192.288 384.452,193.955 383.5,195.5C 382.511,191.893 382.177,188.226 382.5,184.5 Z"/></g>
<g><path style="opacity:1" fill="#b8b8b8" d="M 192.5,181.5 C 193.933,182.833 195.267,184.333 196.5,186C 195.207,186.49 193.873,186.657 192.5,186.5C 192.5,184.833 192.5,183.167 192.5,181.5 Z"/></g>
<g><path style="opacity:1" fill="#7c7c7c" d="M 394.5,186.5 C 395.376,186.369 396.043,186.702 396.5,187.5C 395.675,188.386 394.675,188.719 393.5,188.5C 393.808,190.924 393.474,193.257 392.5,195.5C 391.52,192.914 391.187,190.247 391.5,187.5C 392.791,187.737 393.791,187.404 394.5,186.5 Z"/></g>
<g><path style="opacity:1" fill="#111111" d="M 141.5,188.5 C 142.496,188.414 143.329,188.748 144,189.5C 146.631,195.48 149.297,201.48 152,207.5C 153.009,211.513 153.676,215.513 154,219.5C 148.829,211.828 144.162,203.828 140,195.5C 139.865,193.078 140.365,190.745 141.5,188.5 Z"/></g>
<g><path style="opacity:1" fill="#1a1a1a" d="M 146.5,185.5 C 147.675,185.281 148.675,185.614 149.5,186.5C 151.527,192.019 154.194,197.186 157.5,202C 156.123,203.241 154.79,203.408 153.5,202.5C 150.878,196.926 148.544,191.259 146.5,185.5 Z"/></g>
<g><path style="opacity:1" fill="#555555" d="M 399.5,186.5 C 403.172,186.183 404.838,187.849 404.5,191.5C 402.712,191.215 401.045,191.548 399.5,192.5C 399.833,193.5 400.5,194.167 401.5,194.5C 402.451,193.674 403.451,193.508 404.5,194C 400.69,196.409 398.356,195.409 397.5,191C 397.519,189.167 398.185,187.667 399.5,186.5 Z"/></g>
<g><path style="opacity:1" fill="#f3f3f3" d="M 399.5,188.5 C 401.103,188.312 402.437,188.812 403.5,190C 401.833,190.667 400.167,190.667 398.5,190C 399.056,189.617 399.389,189.117 399.5,188.5 Z"/></g>
<g><path style="opacity:1" fill="#555555" d="M 408.5,186.5 C 412.172,186.183 413.838,187.849 413.5,191.5C 411.712,191.215 410.045,191.548 408.5,192.5C 408.833,193.5 409.5,194.167 410.5,194.5C 411.451,193.674 412.451,193.508 413.5,194C 409.69,196.409 407.356,195.409 406.5,191C 406.519,189.167 407.185,187.667 408.5,186.5 Z"/></g>
<g><path style="opacity:1" fill="#f3f3f3" d="M 408.5,188.5 C 410.103,188.312 411.437,188.812 412.5,190C 410.833,190.667 409.167,190.667 407.5,190C 408.056,189.617 408.389,189.117 408.5,188.5 Z"/></g>
<g><path style="opacity:1" fill="#666666" d="M 128.5,195.5 C 127.335,197.109 126.001,197.443 124.5,196.5C 125.708,193.478 127.042,193.145 128.5,195.5 Z"/></g>
<g><path style="opacity:1" fill="#9f9f9f" d="M 178.5,209.5 C 185.292,212.919 186.292,217.586 181.5,223.5C 181.389,222.883 181.056,222.383 180.5,222C 182.036,220.401 182.536,218.567 182,216.5C 180.71,214.208 179.043,212.208 177,210.5C 176.617,211.056 176.117,211.389 175.5,211.5C 174.438,210.425 174.438,209.425 175.5,208.5C 176.417,209.127 177.417,209.461 178.5,209.5 Z"/></g>
<g><path style="opacity:1" fill="#191919" d="M 181.5,223.5 C 180.18,224.942 178.514,225.608 176.5,225.5C 175.828,222.092 176.828,219.425 179.5,217.5C 178.533,215.21 177.2,213.21 175.5,211.5C 176.117,211.389 176.617,211.056 177,210.5C 179.043,212.208 180.71,214.208 182,216.5C 182.536,218.567 182.036,220.401 180.5,222C 181.056,222.383 181.389,222.883 181.5,223.5 Z"/></g>
<g><path style="opacity:1" fill="#323232" d="M 169.5,221.5 C 171.085,222.002 171.585,223.002 171,224.5C 169.961,223.756 169.461,222.756 169.5,221.5 Z"/></g>
<g><path style="opacity:1" fill="#1a1a1a" d="M 168.5,240.5 C 169.601,239.402 170.934,239.235 172.5,240C 178.542,246.373 184.208,253.04 189.5,260C 188.833,260.667 188.167,260.667 187.5,260C 180.937,253.605 174.603,247.105 168.5,240.5 Z"/></g>
<g><path style="opacity:1" fill="#e8e8e8" d="M 83.5,301.5 C 97.6482,309.704 112.982,313.537 129.5,313C 182.676,313.417 235.676,313.584 288.5,313.5C 231.189,314.651 173.855,314.817 116.5,314C 104.134,313.051 93.1344,308.884 83.5,301.5 Z"/></g>
</svg>
