<?xml version="1.0" encoding="UTF-8"?>
<!DOCTYPE svg PUBLIC "-//W3C//DTD SVG 1.1//EN" "http://www.w3.org/Graphics/SVG/1.1/DTD/svg11.dtd">
<svg xmlns="http://www.w3.org/2000/svg" version="1.1" width="868px" height="333px" style="shape-rendering:geometricPrecision; text-rendering:geometricPrecision; image-rendering:optimizeQuality; fill-rule:evenodd; clip-rule:evenodd" xmlns:xlink="http://www.w3.org/1999/xlink">
<g><path style="opacity:1" fill="#fefefe" d="M -0.5,-0.5 C 288.833,-0.5 578.167,-0.5 867.5,-0.5C 867.5,110.5 867.5,221.5 867.5,332.5C 578.167,332.5 288.833,332.5 -0.5,332.5C -0.5,221.5 -0.5,110.5 -0.5,-0.5 Z"/></g>
<g><path style="opacity:1" fill="#e8e8e8" d="M 324.5,34.5 C 310.282,26.6121 294.949,22.7788 278.5,23C 231.167,22.3333 183.833,22.3333 136.5,23C 116.943,22.0458 99.6093,27.5458 84.5,39.5C 95.3113,29.1589 108.311,23.3255 123.5,22C 179.5,21.3333 235.5,21.3333 291.5,22C 303.866,22.9495 314.866,27.1162 324.5,34.5 Z"/></g>
<g><path style="opacity:1" fill="#fdfdfd" d="M 324.5,34.5 C 328.126,36.4593 331.126,39.126 333.5,42.5C 345.454,57.6093 350.954,74.9426 350,94.5C 350.667,142.167 350.667,189.833 350,237.5C 350.06,253.595 346.227,268.595 338.5,282.5C 328.248,297.478 313.915,306.145 295.5,308.5C 242.676,308.584 189.676,308.417 136.5,308C 119.982,308.537 104.648,304.704 90.5,296.5C 84.5,293.167 79.8333,288.5 76.5,282.5C 73.7547,277.34 71.2547,272.006 69,266.5C 67.6813,261.225 66.6813,255.892 66,250.5C 64.8991,222.184 64.3991,193.85 64.5,165.5C 64.3991,137.15 64.8991,108.816 66,80.5C 66.3631,75.0475 67.3631,69.7141 69,64.5C 71.2547,58.9936 73.7547,53.6603 76.5,48.5C 78.4302,44.8998 81.0969,41.8998 84.5,39.5C 99.6093,27.5458 116.943,22.0458 136.5,23C 183.833,22.3333 231.167,22.3333 278.5,23C 294.949,22.7788 310.282,26.6121 324.5,34.5 Z"/></g>
<g><path style="opacity:1" fill="#343436" d="M 407.5,40.5 C 410.166,40.0658 411.333,41.0658 411,43.5C 407.403,45.0661 406.237,44.0661 407.5,40.5 Z"/></g>
<g><path style="opacity:1" fill="#262627" d="M 390.5,41.5 C 391.833,41.5 393.167,41.5 394.5,41.5C 394.5,47.1667 394.5,52.8333 394.5,58.5C 397.5,58.5 400.5,58.5 403.5,58.5C 403.5,59.8333 403.5,61.1667 403.5,62.5C 399.167,62.5 394.833,62.5 390.5,62.5C 390.5,55.5 390.5,48.5 390.5,41.5 Z"/></g>
<g><path style="opacity:1" fill="#232325" d="M 431.5,41.5 C 436.297,41.1211 440.964,41.6211 445.5,43C 447.117,46.2493 446.451,48.916 443.5,51C 447.213,52.6912 448.379,55.5245 447,59.5C 446.097,60.7014 444.931,61.5348 443.5,62C 439.514,62.4988 435.514,62.6655 431.5,62.5C 431.5,55.5 431.5,48.5 431.5,41.5 Z"/></g>
<g><path style="opacity:1" fill="#2a2a2c" d="M 493.5,41.5 C 494.833,41.5 496.167,41.5 497.5,41.5C 497.334,46.5111 497.501,51.5111 498,56.5C 500.367,59.9318 503.034,60.2652 506,57.5C 506.499,52.1771 506.666,46.8437 506.5,41.5C 508.167,41.5 509.833,41.5 511.5,41.5C 511.666,46.8437 511.499,52.1771 511,57.5C 509.336,61.0842 506.503,62.7508 502.5,62.5C 498.497,62.7508 495.664,61.0842 494,57.5C 493.501,52.1771 493.334,46.8437 493.5,41.5 Z"/></g>
<g><path style="opacity:1" fill="#67676a" d="M 567.5,43.5 C 577.506,43.3335 587.506,43.5002 597.5,44C 587.833,44.3333 578.167,44.6667 568.5,45C 568,45.5 567.5,46 567,46.5C 566.667,51.1667 566.333,55.8333 566,60.5C 565.333,55.5 565.333,50.5 566,45.5C 566.717,44.9558 567.217,44.2891 567.5,43.5 Z"/></g>
<g><path style="opacity:1" fill="#ebebeb" d="M 435.5,44.5 C 437.527,44.3379 439.527,44.5045 441.5,45C 442.991,47.0217 442.658,48.6883 440.5,50C 438.866,50.4935 437.199,50.6602 435.5,50.5C 435.5,48.5 435.5,46.5 435.5,44.5 Z"/></g>
<g><path style="opacity:1" fill="#272729" d="M 417.5,46.5 C 421.192,45.9712 424.358,46.9712 427,49.5C 427.432,50.6001 426.932,51.2668 425.5,51.5C 423.896,51.0609 422.396,50.3943 421,49.5C 419.72,49.6135 418.887,50.2801 418.5,51.5C 421.382,52.772 424.215,54.1053 427,55.5C 428.14,58.5282 427.306,60.6949 424.5,62C 421.084,62.8933 417.917,62.3933 415,60.5C 414.517,59.552 414.351,58.552 414.5,57.5C 417.436,58.4058 420.436,59.0725 423.5,59.5C 423.5,58.5 423.5,57.5 423.5,56.5C 414.843,56.5749 412.843,53.2416 417.5,46.5 Z"/></g>
<g><path style="opacity:1" fill="#252527" d="M 454.5,46.5 C 465.117,46.6159 468.117,51.4493 463.5,61C 453.32,64.66 449.154,61.16 451,50.5C 452.376,49.2949 453.542,47.9616 454.5,46.5 Z"/></g>
<g><path style="opacity:1" fill="#262628" d="M 468.5,46.5 C 470.451,46.2267 471.951,46.8934 473,48.5C 476,45.8333 479,45.8333 482,48.5C 482.499,53.1548 482.666,57.8215 482.5,62.5C 481.167,62.5 479.833,62.5 478.5,62.5C 478.5,58.5 478.5,54.5 478.5,50.5C 476.533,50.2606 474.699,50.5939 473,51.5C 472.501,55.1516 472.335,58.8183 472.5,62.5C 471.167,62.5 469.833,62.5 468.5,62.5C 468.5,57.1667 468.5,51.8333 468.5,46.5 Z"/></g>
<g><path style="opacity:1" fill="#2c2b2d" d="M 517.5,46.5 C 520.807,46.0632 523.807,46.7298 526.5,48.5C 528.167,50.1667 527.833,51.1667 525.5,51.5C 524.167,50.8333 522.833,50.1667 521.5,49.5C 520,49.4528 519,50.1195 518.5,51.5C 521.341,52.9746 524.341,54.1413 527.5,55C 529.028,57.8808 528.362,60.2141 525.5,62C 521.756,62.9285 518.256,62.4285 515,60.5C 514.517,59.552 514.351,58.552 514.5,57.5C 517.436,58.4058 520.436,59.0725 523.5,59.5C 523.5,58.5 523.5,57.5 523.5,56.5C 514.818,56.5547 512.818,53.2213 517.5,46.5 Z"/></g>
<g><path style="opacity:1" fill="#262628" d="M 535.5,46.5 C 542.063,46.0675 545.396,49.0675 545.5,55.5C 541.774,55.1774 538.107,55.5108 534.5,56.5C 535.27,58.2718 536.603,59.2718 538.5,59.5C 540.167,58.8333 541.833,58.1667 543.5,57.5C 544.167,57.8333 544.833,58.1667 545.5,58.5C 542.813,62.3137 539.147,63.4804 534.5,62C 528.974,56.357 529.308,51.1903 535.5,46.5 Z"/></g>
<g><path style="opacity:1" fill="#2d2d2f" d="M 406.5,46.5 C 407.833,46.5 409.167,46.5 410.5,46.5C 410.5,51.8333 410.5,57.1667 410.5,62.5C 409.167,62.5 407.833,62.5 406.5,62.5C 406.5,57.1667 406.5,51.8333 406.5,46.5 Z"/></g>
<g><path style="opacity:1" fill="#232325" d="M 548.5,46.5 C 550.451,46.2267 551.951,46.8934 553,48.5C 554.11,46.9632 555.61,46.2965 557.5,46.5C 557.5,47.8333 557.5,49.1667 557.5,50.5C 555.856,50.2865 554.356,50.6198 553,51.5C 552.501,55.1516 552.335,58.8183 552.5,62.5C 551.167,62.5 549.833,62.5 548.5,62.5C 548.5,57.1667 548.5,51.8333 548.5,46.5 Z"/></g>
<g><path style="opacity:1" fill="#9c9c9e" d="M 572.5,47.5 C 573.5,47.5 574.5,47.5 575.5,47.5C 575.5,50.5 575.5,53.5 575.5,56.5C 574.5,56.5 573.5,56.5 572.5,56.5C 572.84,53.8559 572.173,51.5225 570.5,49.5C 571.243,48.8182 571.909,48.1515 572.5,47.5 Z"/></g>
<g><path style="opacity:1" fill="#7c7c7f" d="M 588.5,49.5 C 590.606,49.679 592.272,50.679 593.5,52.5C 592.675,53.3857 591.675,53.719 590.5,53.5C 590.167,57.5 589.833,57.5 589.5,53.5C 588.325,53.719 587.325,53.3857 586.5,52.5C 587.612,51.7348 588.279,50.7348 588.5,49.5 Z"/></g>
<g><path style="opacity:1" fill="#f0f0f0" d="M 456.5,49.5 C 461.151,50.1742 462.651,52.8408 461,57.5C 457.182,60.4983 455.016,59.4983 454.5,54.5C 454.437,52.4861 455.103,50.8194 456.5,49.5 Z"/></g>
<g><path style="opacity:1" fill="#e9e9e9" d="M 541.5,52.5 C 539.265,52.7947 537.265,52.4614 535.5,51.5C 536.659,49.6231 538.326,49.1231 540.5,50C 541.252,50.6708 541.586,51.5041 541.5,52.5 Z"/></g>
<g><path style="opacity:1" fill="#757578" d="M 578.5,48.5 C 580.364,47.2072 582.364,47.2072 584.5,48.5C 582.924,50.9793 581.924,53.646 581.5,56.5C 580.448,56.6495 579.448,56.4828 578.5,56C 579.708,53.7497 581.041,51.583 582.5,49.5C 581.311,48.5713 579.978,48.238 578.5,48.5 Z"/></g>
<g><path style="opacity:1" fill="#727273" d="M 535.5,51.5 C 537.265,52.4614 539.265,52.7947 541.5,52.5C 539.307,53.7969 536.973,53.7969 534.5,52.5C 534.624,51.8933 534.957,51.56 535.5,51.5 Z"/></g>
<g><path style="opacity:1" fill="#f0f0f0" d="M 435.5,53.5 C 437.857,53.3367 440.19,53.5034 442.5,54C 443.86,55.9376 443.527,57.6043 441.5,59C 439.527,59.4955 437.527,59.6621 435.5,59.5C 435.5,57.5 435.5,55.5 435.5,53.5 Z"/></g>
<g><path style="opacity:1" fill="#0a0a0a" d="M 220.5,71.5 C 222.849,73.341 225.515,74.6743 228.5,75.5C 230.336,77.588 232.669,78.9213 235.5,79.5C 245.993,86.9172 256.993,93.5838 268.5,99.5C 268.5,100.167 268.167,100.5 267.5,100.5C 255.072,95.9673 242.739,91.1339 230.5,86C 223.39,83.4056 216.223,81.2389 209,79.5C 185.295,87.0684 161.795,95.235 138.5,104C 135.435,120.979 136.435,137.812 141.5,154.5C 140.135,156.86 138.135,158.527 135.5,159.5C 128.352,138.799 125.018,117.466 125.5,95.5C 153.325,86.0136 181.159,76.347 209,66.5C 212.986,67.8819 216.82,69.5485 220.5,71.5 Z"/></g>
<g><path style="opacity:1" fill="#808080" d="M 221.5,70.5 C 224.047,71.9336 226.381,73.6002 228.5,75.5C 225.515,74.6743 222.849,73.341 220.5,71.5C 221.167,71.5 221.5,71.1667 221.5,70.5 Z"/></g>
<g><path style="opacity:1" fill="#090909" d="M 281.5,118.5 C 282.164,116.19 282.497,113.69 282.5,111C 282.475,108.071 281.809,105.571 280.5,103.5C 265.949,94.7237 250.949,86.7237 235.5,79.5C 233.664,77.412 231.331,76.0787 228.5,75.5C 226.381,73.6002 224.047,71.9336 221.5,70.5C 219.934,70.0237 219.6,69.357 220.5,68.5C 244.383,77.7424 268.383,86.9091 292.5,96C 292.781,164.606 266.448,220.773 213.5,264.5C 201.479,255.979 191.312,245.646 183,233.5C 182.182,230.773 182.348,228.106 183.5,225.5C 190.813,235.979 199.646,244.979 210,252.5C 225.486,240.016 238.486,225.349 249,208.5C 266.283,180.913 277.117,150.913 281.5,118.5 Z"/></g>
<g><path style="opacity:1" fill="#297dce" d="M 392.5,77.5 C 391.539,79.2646 391.205,81.2646 391.5,83.5C 393.833,83.5 396.167,83.5 398.5,83.5C 396.393,84.4682 394.059,84.8016 391.5,84.5C 391.808,86.924 391.474,89.2573 390.5,91.5C 389.505,86.2079 389.172,80.8746 389.5,75.5C 392.898,75.1796 396.232,75.513 399.5,76.5C 397.257,77.4742 394.924,77.8076 392.5,77.5 Z"/></g>
<g><path style="opacity:1" fill="#5498d8" d="M 402.5,75.5 C 403.376,75.3691 404.043,75.7025 404.5,76.5C 402.192,77.8734 401.525,77.5401 402.5,75.5 Z"/></g>
<g><path style="opacity:1" fill="#2d82cf" d="M 454.5,75.5 C 456.337,75.6395 456.67,76.3061 455.5,77.5C 454.702,77.0431 454.369,76.3764 454.5,75.5 Z"/></g>
<g><path style="opacity:1" fill="#468dd4" d="M 467.5,75.5 C 468.999,76.6782 469.999,78.3449 470.5,80.5C 473.245,79.0247 475.412,79.6913 477,82.5C 477.498,85.4816 477.665,88.4816 477.5,91.5C 476.5,91.5 475.5,91.5 474.5,91.5C 474.5,88.1667 474.5,84.8333 474.5,81.5C 472.856,81.2865 471.356,81.6198 470,82.5C 469.821,85.5535 469.321,88.5535 468.5,91.5C 467.505,86.2079 467.172,80.8746 467.5,75.5 Z"/></g>
<g><path style="opacity:1" fill="#5c9cda" d="M 479.5,75.5 C 482.293,75.74 482.793,76.74 481,78.5C 479.961,77.7562 479.461,76.7562 479.5,75.5 Z"/></g>
<g><path style="opacity:1" fill="#808080" d="M 228.5,75.5 C 231.331,76.0787 233.664,77.412 235.5,79.5C 232.669,78.9213 230.336,77.588 228.5,75.5 Z"/></g>
<g><path style="opacity:1" fill="#669fdb" d="M 402.5,80.5 C 403.787,81.8714 404.453,83.7047 404.5,86C 404.167,87.8333 403.833,89.6667 403.5,91.5C 402.511,87.8927 402.177,84.226 402.5,80.5 Z"/></g>
<g><path style="opacity:1" fill="#2c7fcf" d="M 430.5,80.5 C 432.199,80.3398 433.866,80.5065 435.5,81C 434.584,81.3742 433.75,81.8742 433,82.5C 432.821,85.5535 432.321,88.5535 431.5,91.5C 430.511,87.8927 430.177,84.226 430.5,80.5 Z"/></g>
<g><path style="opacity:1" fill="#2a86d2" d="M 454.5,80.5 C 455.787,81.8714 456.453,83.7047 456.5,86C 456.167,87.8333 455.833,89.6667 455.5,91.5C 454.511,87.8927 454.177,84.226 454.5,80.5 Z"/></g>
<g><path style="opacity:1" fill="#3285d1" d="M 479.5,80.5 C 480.787,81.8714 481.453,83.7047 481.5,86C 481.167,87.8333 480.833,89.6667 480.5,91.5C 479.511,87.8927 479.177,84.226 479.5,80.5 Z"/></g>
<g><path style="opacity:1" fill="#8abce6" d="M 486.5,80.5 C 485.518,83.9619 485.185,87.6286 485.5,91.5C 484.191,87.6493 484.191,83.6493 485.5,79.5C 486.107,79.6236 486.44,79.9569 486.5,80.5 Z"/></g>
<g><path style="opacity:1" fill="#4189d3" d="M 485.5,91.5 C 485.185,87.6286 485.518,83.9619 486.5,80.5C 492.277,78.2728 494.944,80.2728 494.5,86.5C 494.167,88.1667 493.833,89.8333 493.5,91.5C 492.679,88.5535 492.179,85.5535 492,82.5C 490.951,81.4829 489.784,81.3162 488.5,82C 488.167,85.5719 487.167,88.7385 485.5,91.5 Z"/></g>
<g><path style="opacity:1" fill="#2881cf" d="M 460.5,77.5 C 461.931,78.4458 463.264,79.6125 464.5,81C 461.881,84.0854 461.881,87.2521 464.5,90.5C 463.349,91.731 462.183,91.731 461,90.5C 461.021,86.9912 460.188,83.8245 458.5,81C 459.973,80.2904 460.64,79.1238 460.5,77.5 Z"/></g>
<g><path style="opacity:1" fill="#76b0e1" d="M 392.5,77.5 C 392.5,79.1667 392.5,80.8333 392.5,82.5C 394.735,82.2053 396.735,82.5386 398.5,83.5C 396.167,83.5 393.833,83.5 391.5,83.5C 391.205,81.2646 391.539,79.2646 392.5,77.5 Z"/></g>
<g><path style="opacity:1" fill="#438ed4" d="M 437.5,80.5 C 439.34,82.6586 440.507,85.3253 441,88.5C 441.165,84.4519 442.998,81.7852 446.5,80.5C 447.232,91.0282 448.565,91.0282 450.5,80.5C 450.833,81.1667 451.167,81.8333 451.5,82.5C 450.672,85.4788 450.005,88.4788 449.5,91.5C 448.5,91.5 447.5,91.5 446.5,91.5C 445.167,82.1667 443.833,82.1667 442.5,91.5C 441.5,91.5 440.5,91.5 439.5,91.5C 438.833,87.8333 438.167,84.1667 437.5,80.5 Z"/></g>
<g><path style="opacity:1" fill="#3485d1" d="M 421.5,79.5 C 426.373,79.373 428.373,81.7064 427.5,86.5C 424.753,86.1866 422.086,86.52 419.5,87.5C 420.171,88.9458 421.338,89.6125 423,89.5C 424.55,89.0495 426.05,88.8829 427.5,89C 424.682,92.1286 421.682,92.2953 418.5,89.5C 416.744,85.2476 417.744,81.9143 421.5,79.5 Z"/></g>
<g><path style="opacity:1" fill="#f0f6fc" d="M 421.5,81.5 C 423.346,81.2222 424.68,81.8888 425.5,83.5C 423.579,84.641 421.579,84.8077 419.5,84C 420.381,83.2917 421.047,82.4584 421.5,81.5 Z"/></g>
<g><path style="opacity:1" fill="#3084d0" d="M 407.5,80.5 C 409.024,81.1738 410.358,82.1738 411.5,83.5C 412.275,81.5247 413.609,80.6913 415.5,81C 414.624,82.586 413.624,84.086 412.5,85.5C 416.612,91.8868 416.112,92.5534 411,87.5C 410.268,89.9232 408.768,91.0899 406.5,91C 407.453,89.0448 408.787,87.3782 410.5,86C 409.242,84.2591 408.242,82.4258 407.5,80.5 Z"/></g>
<g><path style="opacity:1" fill="#e8e8e8" d="M 333.5,42.5 C 338.537,46.8833 342.37,52.2166 345,58.5C 348.094,65.8754 350.094,73.5421 351,81.5C 351.667,137.5 351.667,193.5 351,249.5C 350.051,261.866 345.884,272.866 338.5,282.5C 346.227,268.595 350.06,253.595 350,237.5C 350.667,189.833 350.667,142.167 350,94.5C 350.954,74.9426 345.454,57.6093 333.5,42.5 Z"/></g>
<g><path style="opacity:1" fill="#e8e8e8" d="M 76.5,48.5 C 73.7547,53.6603 71.2547,58.9936 69,64.5C 67.3631,69.7141 66.3631,75.0475 66,80.5C 64.8991,108.816 64.3991,137.15 64.5,165.5C 64.3991,193.85 64.8991,222.184 66,250.5C 66.6813,255.892 67.6813,261.225 69,266.5C 71.2547,272.006 73.7547,277.34 76.5,282.5C 69.1162,272.866 64.9495,261.866 64,249.5C 63.3333,193.5 63.3333,137.5 64,81.5C 64.9495,69.1344 69.1162,58.1344 76.5,48.5 Z"/></g>
<g><path style="opacity:1" fill="#8a8a8a" d="M 268.5,99.5 C 270.636,100.403 272.636,101.569 274.5,103C 271.849,103.061 269.516,102.227 267.5,100.5C 268.167,100.5 268.5,100.167 268.5,99.5 Z"/></g>
<g><path style="opacity:1" fill="#0c0c0c" d="M 243.5,103.5 C 243.02,106.005 242.02,108.338 240.5,110.5C 241.188,111.855 242.188,112.855 243.5,113.5C 243.833,114.5 244.5,115.167 245.5,115.5C 241.059,119.077 241.725,121.077 247.5,121.5C 247.833,122.5 248.5,123.167 249.5,123.5C 250.833,126.167 252.167,126.167 253.5,123.5C 255.028,123.517 255.528,124.184 255,125.5C 253.938,126.097 252.772,126.43 251.5,126.5C 247.301,124.653 242.968,122.986 238.5,121.5C 238.167,121.833 237.833,122.167 237.5,122.5C 240.251,128.581 242.251,134.914 243.5,141.5C 243.5,141.833 243.5,142.167 243.5,142.5C 237.404,137.981 233.57,131.981 232,124.5C 231.601,131.379 233.767,137.379 238.5,142.5C 236.813,143.568 235.146,143.401 233.5,142C 232.672,141.085 231.672,140.419 230.5,140C 231.5,139.667 232.5,139.333 233.5,139C 232.09,137.628 230.423,136.795 228.5,136.5C 227.391,137.29 226.058,137.79 224.5,138C 225.167,138.333 225.833,138.667 226.5,139C 225.062,139.219 223.729,139.719 222.5,140.5C 222.709,141.086 223.043,141.586 223.5,142C 229.287,144.894 235.287,147.227 241.5,149C 242.255,151.175 243.088,153.341 244,155.5C 244.186,152.964 244.686,150.631 245.5,148.5C 246.167,147.833 246.833,147.167 247.5,146.5C 248.423,150.064 248.756,153.731 248.5,157.5C 252.767,157.203 256.934,157.536 261,158.5C 261.667,164.5 261.667,170.5 261,176.5C 259.163,180.181 256.33,182.515 252.5,183.5C 252.338,181.473 252.505,179.473 253,177.5C 254.356,176.62 255.856,176.286 257.5,176.5C 257.5,172.167 257.5,167.833 257.5,163.5C 252.059,163.969 247.225,165.969 243,169.5C 243.747,171.976 245.081,174.309 247,176.5C 247.944,179.347 247.444,181.847 245.5,184C 241.952,185.941 238.286,187.607 234.5,189C 230.789,189.439 227.122,189.106 223.5,188C 222.295,185.766 222.961,184.099 225.5,183C 228.02,182.986 230.52,183.486 233,184.5C 236.195,184.069 239.195,183.069 242,181.5C 242.684,180.216 242.517,179.049 241.5,178C 238.816,177.222 236.483,175.889 234.5,174C 233.167,173.333 231.833,173.333 230.5,174C 221.176,180.442 210.842,184.109 199.5,185C 197.932,187.304 196.765,189.804 196,192.5C 192.172,195.415 188.172,198.081 184,200.5C 183.7,202.066 184.2,203.399 185.5,204.5C 184.417,204.461 183.417,204.127 182.5,203.5C 181.438,204.425 181.438,205.425 182.5,206.5C 177.648,203.338 173.814,204.338 171,209.5C 170.333,212.5 170.333,215.5 171,218.5C 173.692,221.692 176.192,225.025 178.5,228.5C 173.56,231.882 170.727,230.548 170,224.5C 169,223.833 168,223.167 167,222.5C 166.448,215.758 165.782,209.092 165,202.5C 166.918,201.458 168.751,200.292 170.5,199C 169.941,198.275 169.608,197.442 169.5,196.5C 170.277,194.553 171.277,192.72 172.5,191C 171.724,188.005 170.557,185.172 169,182.5C 168.272,179.77 168.438,177.103 169.5,174.5C 169,174.167 168.5,173.833 168,173.5C 163.539,174.247 159.039,174.747 154.5,175C 152.419,176.712 152.085,176.212 153.5,173.5C 154.025,172.808 154.692,172.308 155.5,172C 153.432,171.313 151.432,171.48 149.5,172.5C 146.222,176.721 143.722,181.388 142,186.5C 140.362,188.734 138.195,190.067 135.5,190.5C 134.042,188.145 132.708,188.478 131.5,191.5C 127.298,194.361 122.631,195.194 117.5,194C 120.167,193.333 120.167,192.667 117.5,192C 117.833,191.667 118.167,191.333 118.5,191C 116.956,190.71 115.623,190.044 114.5,189C 120.903,186.655 120.903,184.655 114.5,183C 117.5,182.667 120.5,182.333 123.5,182C 122.833,181.333 122.167,180.667 121.5,180C 123.891,179.713 126.224,179.213 128.5,178.5C 131.095,175.612 133.428,172.612 135.5,169.5C 134.505,175.51 131.172,179.51 125.5,181.5C 126.025,182.192 126.692,182.692 127.5,183C 126.062,183.219 124.729,183.719 123.5,184.5C 127.456,185.464 130.956,184.464 134,181.5C 134.718,182.451 135.551,182.617 136.5,182C 137.956,179.734 138.79,177.234 139,174.5C 139.333,176.5 139.667,178.5 140,180.5C 141.889,176.436 142.889,172.103 143,167.5C 146.194,162.661 150.361,161.494 155.5,164C 148.517,164.908 148.183,165.908 154.5,167C 154.167,167.333 153.833,167.667 153.5,168C 157.354,168.354 161.188,168.854 165,169.5C 166.792,169.519 167.292,169.186 166.5,168.5C 166.5,168.167 166.5,167.833 166.5,167.5C 170.155,168.075 173.155,167.075 175.5,164.5C 178.249,165.489 180.249,164.489 181.5,161.5C 183.819,161.008 185.819,160.008 187.5,158.5C 192.179,158.666 196.845,158.499 201.5,158C 208.263,154.251 213.096,149.084 216,142.5C 215.148,143.571 214.315,144.571 213.5,145.5C 211.007,145.869 210.34,145.203 211.5,143.5C 208.933,142.084 206.266,140.584 203.5,139C 204.833,138.667 206.167,138.333 207.5,138C 206.328,137.581 205.328,136.915 204.5,136C 206.527,134.121 208.86,132.954 211.5,132.5C 214.13,131.826 214.13,132.493 211.5,134.5C 212.5,135.333 213.5,136.167 214.5,137C 215.483,137.591 216.15,137.257 216.5,136C 215.349,133.535 214.349,131.035 213.5,128.5C 214.263,127.732 215.263,127.232 216.5,127C 215.944,126.617 215.611,126.117 215.5,125.5C 215.414,124.504 215.748,123.671 216.5,123C 215.584,122.722 214.918,122.222 214.5,121.5C 216.2,120.984 217.533,119.984 218.5,118.5C 217.726,117.289 216.893,117.289 216,118.5C 216.698,116.236 216.198,114.403 214.5,113C 216.556,112.689 218.556,112.189 220.5,111.5C 221.711,110.726 221.711,109.893 220.5,109C 223.952,108.108 226.952,106.442 229.5,104C 231.473,103.505 233.473,103.338 235.5,103.5C 234.912,98.8227 236.579,97.156 240.5,98.5C 240.201,100.604 240.534,102.604 241.5,104.5C 242.183,104.137 242.85,103.804 243.5,103.5 Z"/></g>
<g><path style="opacity:1" fill="#8a8a8c" d="M 505.5,104.5 C 507.045,105.23 507.878,106.563 508,108.5C 509.333,107.167 510.667,107.167 512,108.5C 512.667,111.167 512.667,113.833 512,116.5C 511.503,114.19 511.337,111.857 511.5,109.5C 510.167,109.5 508.833,109.5 507.5,109.5C 507.808,111.924 507.474,114.257 506.5,116.5C 505.509,112.555 505.176,108.555 505.5,104.5 Z"/></g>
<g><path style="opacity:1" fill="#878789" d="M 389.5,105.5 C 392.187,105.336 394.854,105.503 397.5,106C 400.907,113.783 398.24,117.283 389.5,116.5C 389.5,112.833 389.5,109.167 389.5,105.5 Z"/></g>
<g><path style="opacity:1" fill="#767678" d="M 495.5,105.5 C 497.857,105.337 500.19,105.503 502.5,106C 503.983,111.026 501.983,113.193 496.5,112.5C 496.657,113.873 496.49,115.207 496,116.5C 495.501,112.848 495.335,109.182 495.5,105.5 Z"/></g>
<g><path style="opacity:1" fill="#f9f9f9" d="M 391.5,106.5 C 397.643,107.026 398.976,109.86 395.5,115C 394.207,115.49 392.873,115.657 391.5,115.5C 391.5,112.5 391.5,109.5 391.5,106.5 Z"/></g>
<g><path style="opacity:1" fill="#ececec" d="M 496.5,106.5 C 498.167,106.5 499.833,106.5 501.5,106.5C 502.167,110.5 500.5,112.167 496.5,111.5C 496.5,109.833 496.5,108.167 496.5,106.5 Z"/></g>
<g><path style="opacity:1" fill="#c8c8c8" d="M 235.5,105.5 C 236.873,105.343 238.207,105.51 239.5,106C 237.122,106.974 237.456,107.641 240.5,108C 237.644,109.906 235.977,109.073 235.5,105.5 Z"/></g>
<g><path style="opacity:1" fill="#7b7b7e" d="M 466.5,104.5 C 469.999,104.259 470.332,105.092 467.5,107C 468.308,107.308 468.975,107.808 469.5,108.5C 467.933,110.896 467.1,113.563 467,116.5C 466.003,112.428 465.836,108.428 466.5,104.5 Z"/></g>
<g><path style="opacity:1" fill="#3f3f3f" d="M 280.5,103.5 C 281.809,105.571 282.475,108.071 282.5,111C 282.497,113.69 282.164,116.19 281.5,118.5C 281.779,113.405 281.445,108.405 280.5,103.5 Z"/></g>
<g><path style="opacity:1" fill="#88888a" d="M 435.5,107.5 C 436.822,107.33 437.989,107.663 439,108.5C 439.667,111.167 439.667,113.833 439,116.5C 438.503,114.19 438.337,111.857 438.5,109.5C 437.167,109.5 435.833,109.5 434.5,109.5C 434.808,111.924 434.474,114.257 433.5,116.5C 432.52,113.914 432.187,111.247 432.5,108.5C 433.791,108.737 434.791,108.404 435.5,107.5 Z"/></g>
<g><path style="opacity:1" fill="#8f8f91" d="M 483.5,107.5 C 484.376,107.369 485.043,107.702 485.5,108.5C 484.675,109.386 483.675,109.719 482.5,109.5C 482.808,111.924 482.474,114.257 481.5,116.5C 480.52,113.914 480.187,111.247 480.5,108.5C 481.791,108.737 482.791,108.404 483.5,107.5 Z"/></g>
<g><path style="opacity:1" fill="#909092" d="M 527.5,107.5 C 528.822,107.33 529.989,107.663 531,108.5C 531.818,111.227 531.652,113.894 530.5,116.5C 529.526,114.257 529.192,111.924 529.5,109.5C 528.5,109.5 527.5,109.5 526.5,109.5C 526.808,111.924 526.474,114.257 525.5,116.5C 524.52,113.914 524.187,111.247 524.5,108.5C 525.791,108.737 526.791,108.404 527.5,107.5 Z"/></g>
<g><path style="opacity:1" fill="#838385" d="M 415.5,115.5 C 413.882,113.675 412.215,111.842 410.5,110C 412.405,107.069 414.405,106.903 416.5,109.5C 415.313,109.554 413.98,109.887 412.5,110.5C 413.628,111.262 414.795,111.929 416,112.5C 416.74,113.749 416.573,114.749 415.5,115.5 Z"/></g>
<g><path style="opacity:1" fill="#848486" d="M 424.5,107.5 C 426.331,108.052 427.997,108.052 429.5,107.5C 430.657,110.784 430.824,114.118 430,117.5C 427.692,119.983 425.192,120.149 422.5,118C 424.425,118.135 426.425,118.302 428.5,118.5C 428.911,115.724 428.078,115.057 426,116.5C 421.967,114.164 421.467,111.164 424.5,107.5 Z"/></g>
<g><path style="opacity:1" fill="#f2f2f3" d="M 424.5,109.5 C 425.833,109.5 427.167,109.5 428.5,109.5C 428.5,111.167 428.5,112.833 428.5,114.5C 424.065,115.078 422.732,113.411 424.5,109.5 Z"/></g>
<g><path style="opacity:1" fill="#707070" d="M 243.5,103.5 C 245.074,106.106 246.741,108.773 248.5,111.5C 247.418,111.749 246.085,111.915 244.5,112C 243.944,112.383 243.611,112.883 243.5,113.5C 242.188,112.855 241.188,111.855 240.5,110.5C 242.02,108.338 243.02,106.005 243.5,103.5 Z"/></g>
<g><path style="opacity:1" fill="#88888a" d="M 472.5,107.5 C 478.643,108.026 479.976,110.86 476.5,116C 471.504,116.664 469.67,114.498 471,109.5C 471.717,108.956 472.217,108.289 472.5,107.5 Z"/></g>
<g><path style="opacity:1" fill="#fafafa" d="M 472.5,109.5 C 473.833,109.5 475.167,109.5 476.5,109.5C 476.949,111.977 476.283,113.977 474.5,115.5C 472.717,113.977 472.051,111.977 472.5,109.5 Z"/></g>
<g><path style="opacity:1" fill="#88888a" d="M 516.5,107.5 C 522.643,108.026 523.976,110.86 520.5,116C 515.504,116.664 513.67,114.498 515,109.5C 515.717,108.956 516.217,108.289 516.5,107.5 Z"/></g>
<g><path style="opacity:1" fill="#fafafa" d="M 516.5,109.5 C 517.833,109.5 519.167,109.5 520.5,109.5C 520.949,111.977 520.283,113.977 518.5,115.5C 516.717,113.977 516.051,111.977 516.5,109.5 Z"/></g>
<g><path style="opacity:1" fill="#7e7e81" d="M 403.5,107.5 C 406.833,107.5 408.5,109.167 408.5,112.5C 406.396,112.201 404.396,112.534 402.5,113.5C 403.748,115.69 405.414,116.023 407.5,114.5C 408.696,114.846 408.696,115.346 407.5,116C 403.819,117.314 401.486,116.147 400.5,112.5C 400.757,110.308 401.757,108.641 403.5,107.5 Z"/></g>
<g><path style="opacity:1" fill="#f7f7f8" d="M 402.5,109.5 C 403.978,109.238 405.311,109.571 406.5,110.5C 405.833,110.833 405.167,111.167 404.5,111.5C 403.287,111.253 402.62,110.586 402.5,109.5 Z"/></g>
<g><path style="opacity:1" fill="#717174" d="M 415.5,115.5 C 413.815,116.844 412.148,116.677 410.5,115C 412.107,115.019 413.774,115.185 415.5,115.5 Z"/></g>
<g><path style="opacity:1" fill="#858587" d="M 443.5,107.5 C 447.349,107.019 449.349,108.686 449.5,112.5C 447.396,112.201 445.396,112.534 443.5,113.5C 444.748,115.69 446.414,116.023 448.5,114.5C 449.696,114.846 449.696,115.346 448.5,116C 441.416,116.475 439.749,113.642 443.5,107.5 Z"/></g>
<g><path style="opacity:1" fill="#f7f7f7" d="M 443.5,109.5 C 444.978,109.238 446.311,109.571 447.5,110.5C 446.833,110.833 446.167,111.167 445.5,111.5C 444.287,111.253 443.62,110.586 443.5,109.5 Z"/></g>
<g><path style="opacity:1" fill="#848486" d="M 456.5,104.5 C 458.423,108.029 459.089,112.029 458.5,116.5C 451.06,117.247 449.06,114.413 452.5,108C 453.793,107.51 455.127,107.343 456.5,107.5C 456.5,106.5 456.5,105.5 456.5,104.5 Z"/></g>
<g><path style="opacity:1" fill="#f2f2f2" d="M 452.5,109.5 C 456.909,108.899 458.242,110.566 456.5,114.5C 455.28,115.711 454.113,115.711 453,114.5C 452.506,112.866 452.34,111.199 452.5,109.5 Z"/></g>
<g><path style="opacity:1" fill="#8a8a8c" d="M 535.5,107.5 C 539.172,107.183 540.838,108.849 540.5,112.5C 538.712,112.215 537.045,112.548 535.5,113.5C 535.833,114.5 536.5,115.167 537.5,115.5C 538.451,114.674 539.451,114.508 540.5,115C 536.69,117.409 534.356,116.409 533.5,112C 533.519,110.167 534.185,108.667 535.5,107.5 Z"/></g>
<g><path style="opacity:1" fill="#888888" d="M 245.5,115.5 C 246.738,117.214 247.405,119.214 247.5,121.5C 241.725,121.077 241.059,119.077 245.5,115.5 Z"/></g>
<g><path style="opacity:1" fill="#4f4f4f" d="M 214.5,121.5 C 214.918,122.222 215.584,122.722 216.5,123C 215.748,123.671 215.414,124.504 215.5,125.5C 214.21,123.86 212.543,123.36 210.5,124C 211.552,125.716 210.886,126.716 208.5,127C 208.728,127.399 209.062,127.565 209.5,127.5C 209.719,128.675 209.386,129.675 208.5,130.5C 207.304,130.154 207.304,129.654 208.5,129C 207.263,128.768 206.263,128.268 205.5,127.5C 206.683,126.496 208.016,125.662 209.5,125C 208.376,124.751 207.376,124.251 206.5,123.5C 209.187,122.74 211.853,122.073 214.5,121.5 Z"/></g>
<g><path style="opacity:1" fill="#737373" d="M 253.5,123.5 C 252.167,126.167 250.833,126.167 249.5,123.5C 249.918,122.778 250.584,122.278 251.5,122C 250.398,119.599 250.231,117.099 251,114.5C 252.022,115.354 252.855,116.354 253.5,117.5C 252.181,119.532 252.181,121.532 253.5,123.5 Z"/></g>
<g><path style="opacity:1" fill="#dbdbdb" d="M 215.5,125.5 C 215.611,126.117 215.944,126.617 216.5,127C 215.263,127.232 214.263,127.732 213.5,128.5C 212.761,128.369 212.094,128.536 211.5,129C 212.696,129.654 212.696,130.154 211.5,130.5C 210.824,129.398 210.158,128.398 209.5,127.5C 209.062,127.565 208.728,127.399 208.5,127C 210.886,126.716 211.552,125.716 210.5,124C 212.543,123.36 214.21,123.86 215.5,125.5 Z"/></g>
<g><path style="opacity:1" fill="#909090" d="M 205.5,127.5 C 206.263,128.268 207.263,128.768 208.5,129C 207.304,129.654 207.304,130.154 208.5,130.5C 209.386,129.675 209.719,128.675 209.5,127.5C 210.158,128.398 210.824,129.398 211.5,130.5C 212.696,130.154 212.696,129.654 211.5,129C 212.094,128.536 212.761,128.369 213.5,128.5C 214.349,131.035 215.349,133.535 216.5,136C 216.15,137.257 215.483,137.591 214.5,137C 213.5,136.167 212.5,135.333 211.5,134.5C 214.13,132.493 214.13,131.826 211.5,132.5C 208.89,131.843 206.557,130.509 204.5,128.5C 204.624,127.893 204.957,127.56 205.5,127.5 Z"/></g>
<g><path style="opacity:1" fill="#a5a5a5" d="M 228.5,136.5 C 226.804,136.315 225.471,135.481 224.5,134C 226.615,133.464 227.948,134.297 228.5,136.5 Z"/></g>
<g><path style="opacity:1" fill="#262626" d="M 140.5,123.5 C 141.6,125.277 142.434,127.277 143,129.5C 144.497,137.812 145.997,146.145 147.5,154.5C 146.5,154.5 145.5,154.5 144.5,154.5C 142.18,144.307 140.847,133.974 140.5,123.5 Z"/></g>
<g><path style="opacity:1" fill="#e3e3e3" d="M 243.5,142.5 C 245.081,144.142 245.747,146.142 245.5,148.5C 244.686,150.631 244.186,152.964 244,155.5C 243.088,153.341 242.255,151.175 241.5,149C 235.287,147.227 229.287,144.894 223.5,142C 223.043,141.586 222.709,141.086 222.5,140.5C 223.729,139.719 225.062,139.219 226.5,139C 225.833,138.667 225.167,138.333 224.5,138C 226.058,137.79 227.391,137.29 228.5,136.5C 230.423,136.795 232.09,137.628 233.5,139C 232.5,139.333 231.5,139.667 230.5,140C 231.672,140.419 232.672,141.085 233.5,142C 235.146,143.401 236.813,143.568 238.5,142.5C 233.767,137.379 231.601,131.379 232,124.5C 233.57,131.981 237.404,137.981 243.5,142.5 Z"/></g>
<g><path style="opacity:1" fill="#606060" d="M 243.5,141.5 C 245.543,142.579 246.876,144.246 247.5,146.5C 246.833,147.167 246.167,147.833 245.5,148.5C 245.747,146.142 245.081,144.142 243.5,142.5C 243.5,142.167 243.5,141.833 243.5,141.5 Z"/></g>
<g><path style="opacity:1" fill="#f99f2e" d="M 394.5,141.5 C 395.98,143.412 397.98,144.579 400.5,145C 399.272,145.779 398.272,146.779 397.5,148C 398.187,149.162 398.353,150.328 398,151.5C 396,148.833 394,148.833 392,151.5C 391.647,150.328 391.813,149.162 392.5,148C 391.728,146.779 390.728,145.779 389.5,145C 391.936,144.794 393.602,143.627 394.5,141.5 Z"/></g>
<g><path style="opacity:1" fill="#f99f2e" d="M 406.5,141.5 C 407.98,143.412 409.98,144.579 412.5,145C 411.272,145.779 410.272,146.779 409.5,148C 410.187,149.162 410.353,150.328 410,151.5C 408,148.833 406,148.833 404,151.5C 403.647,150.328 403.813,149.162 404.5,148C 403.728,146.779 402.728,145.779 401.5,145C 403.936,144.794 405.602,143.627 406.5,141.5 Z"/></g>
<g><path style="opacity:1" fill="#f99f2e" d="M 419.5,141.5 C 420.98,143.412 422.98,144.579 425.5,145C 424.272,145.779 423.272,146.779 422.5,148C 423.187,149.162 423.353,150.328 423,151.5C 421,148.833 419,148.833 417,151.5C 416.647,150.328 416.813,149.162 417.5,148C 416.728,146.779 415.728,145.779 414.5,145C 416.936,144.794 418.602,143.627 419.5,141.5 Z"/></g>
<g><path style="opacity:1" fill="#f99f2e" d="M 431.5,141.5 C 432.98,143.412 434.98,144.579 437.5,145C 436.272,145.779 435.272,146.779 434.5,148C 435.187,149.162 435.353,150.328 435,151.5C 433,148.833 431,148.833 429,151.5C 428.647,150.328 428.813,149.162 429.5,148C 428.728,146.779 427.728,145.779 426.5,145C 428.936,144.794 430.602,143.627 431.5,141.5 Z"/></g>
<g><path style="opacity:1" fill="#c8c8c8" d="M 444.5,149.5 C 444.5,147.167 444.5,144.833 444.5,142.5C 444.435,142.062 444.601,141.728 445,141.5C 446.242,143.541 448.075,144.707 450.5,145C 449.5,146 448.5,147 447.5,148C 448.517,149.049 448.684,150.216 448,151.5C 447.184,150.177 446.017,149.511 444.5,149.5 Z"/></g>
<g><path style="opacity:1" fill="#2f2f2f" d="M 211.5,143.5 C 210.34,145.203 211.007,145.869 213.5,145.5C 210.348,150.24 206.015,153.24 200.5,154.5C 203.944,152.264 207.277,149.764 210.5,147C 209.016,145.426 207.349,144.093 205.5,143C 207.488,142.82 209.488,142.986 211.5,143.5 Z"/></g>
<g><path style="opacity:1" fill="#f9a02f" d="M 444.5,142.5 C 444.5,144.833 444.5,147.167 444.5,149.5C 441.669,152.362 441.002,151.862 442.5,148C 441.728,146.779 440.728,145.779 439.5,145C 441.503,144.665 443.17,143.832 444.5,142.5 Z"/></g>
<g><path style="opacity:1" fill="#99999c" d="M 479.5,147.5 C 480.5,147.5 481.5,147.5 482.5,147.5C 482.5,148.5 482.5,149.5 482.5,150.5C 479.433,150.879 478.433,149.879 479.5,147.5 Z"/></g>
<g><path style="opacity:1" fill="#d0d0d1" d="M 494.5,143.5 C 500.167,143.664 500.5,143.997 495.5,144.5C 495.119,146.942 495.786,147.609 497.5,146.5C 500.313,147.617 500.98,149.45 499.5,152C 497.833,152.667 496.167,152.667 494.5,152C 494.173,149.315 494.173,146.482 494.5,143.5 Z"/></g>
<g><path style="opacity:1" fill="#bdbdbf" d="M 505.5,143.5 C 507.199,143.34 508.866,143.506 510.5,144C 511.059,144.725 511.392,145.558 511.5,146.5C 510.392,148.518 510.225,150.518 511,152.5C 510.092,150.561 508.592,149.561 506.5,149.5C 505.223,150.317 504.89,148.317 505.5,143.5 Z"/></g>
<g><path style="opacity:1" fill="#b4b4b7" d="M 514.5,145.5 C 515.822,145.33 516.989,145.663 518,146.5C 518.495,148.473 518.662,150.473 518.5,152.5C 516.833,152.5 515.167,152.5 513.5,152.5C 513.22,149.612 514.553,148.112 517.5,148C 516.428,146.716 515.095,146.383 513.5,147C 514.056,146.617 514.389,146.117 514.5,145.5 Z"/></g>
<g><path style="opacity:1" fill="#b5b5b7" d="M 530.5,145.5 C 531.496,145.414 532.329,145.748 533,146.5C 533.667,148.5 533.667,150.5 533,152.5C 532.506,150.866 532.34,149.199 532.5,147.5C 531.5,147.5 530.5,147.5 529.5,147.5C 529.66,149.199 529.494,150.866 529,152.5C 528.185,149.802 528.685,147.468 530.5,145.5 Z"/></g>
<g><path style="opacity:1" fill="#b2b2b5" d="M 459.5,143.5 C 461.141,145.203 462.141,147.37 462.5,150C 461.874,150.75 461.374,151.584 461,152.5C 459.951,150.893 458.451,150.227 456.5,150.5C 457.011,147.978 458.011,145.645 459.5,143.5 Z"/></g>
<g><path style="opacity:1" fill="#c1c1c3" d="M 537.5,145.5 C 538.94,146.363 540.274,146.363 541.5,145.5C 542.192,146.025 542.692,146.692 543,147.5C 544.688,145.152 546.522,144.985 548.5,147C 546.905,146.383 545.572,146.716 544.5,148C 547.105,148.026 548.271,149.193 548,151.5C 546.333,152.833 544.667,152.833 543,151.5C 541.788,155.345 539.621,156.179 536.5,154C 537.833,153.667 539.167,153.333 540.5,153C 535.187,152.253 534.187,149.753 537.5,145.5 Z"/></g>
<g><path style="opacity:1" fill="#c8c8c8" d="M 187.5,158.5 C 191.233,157.023 195.233,156.189 199.5,156C 200.056,155.617 200.389,155.117 200.5,154.5C 206.015,153.24 210.348,150.24 213.5,145.5C 214.315,144.571 215.148,143.571 216,142.5C 213.096,149.084 208.263,154.251 201.5,158C 196.845,158.499 192.179,158.666 187.5,158.5 Z"/></g>
<g><path style="opacity:1" fill="#707070" d="M 200.5,154.5 C 200.389,155.117 200.056,155.617 199.5,156C 195.233,156.189 191.233,157.023 187.5,158.5C 185.819,160.008 183.819,161.008 181.5,161.5C 182.167,160.5 182.833,159.5 183.5,158.5C 188.713,155.789 194.38,154.456 200.5,154.5 Z"/></g>
<g><path style="opacity:1" fill="#2c2c2c" d="M 166.5,167.5 C 166.5,167.833 166.5,168.167 166.5,168.5C 161.419,165.442 156.086,162.775 150.5,160.5C 144.025,161.23 139.025,164.23 135.5,169.5C 137.86,162.977 142.527,159.311 149.5,158.5C 155.904,160.268 161.571,163.268 166.5,167.5 Z"/></g>
<g><path style="opacity:1" fill="#c1c1c1" d="M 223.5,155.5 C 223.56,154.957 223.893,154.624 224.5,154.5C 226.332,155.248 227.999,156.248 229.5,157.5C 230.887,160.492 232.554,163.325 234.5,166C 233.833,166.667 233.167,166.667 232.5,166C 230.683,164.2 229.516,162.034 229,159.5C 227.568,157.561 225.735,156.228 223.5,155.5 Z"/></g>
<g><path style="opacity:1" fill="#3b3b3b" d="M 183.5,158.5 C 182.833,159.5 182.167,160.5 181.5,161.5C 180.249,164.489 178.249,165.489 175.5,164.5C 177.878,162.122 180.545,160.122 183.5,158.5 Z"/></g>
<g><path style="opacity:1" fill="#e0e0e0" d="M 166.5,168.5 C 167.292,169.186 166.792,169.519 165,169.5C 161.188,168.854 157.354,168.354 153.5,168C 153.833,167.667 154.167,167.333 154.5,167C 148.183,165.908 148.517,164.908 155.5,164C 150.361,161.494 146.194,162.661 143,167.5C 142.889,172.103 141.889,176.436 140,180.5C 139.667,178.5 139.333,176.5 139,174.5C 138.79,177.234 137.956,179.734 136.5,182C 135.551,182.617 134.718,182.451 134,181.5C 130.956,184.464 127.456,185.464 123.5,184.5C 124.729,183.719 126.062,183.219 127.5,183C 126.692,182.692 126.025,182.192 125.5,181.5C 131.172,179.51 134.505,175.51 135.5,169.5C 139.025,164.23 144.025,161.23 150.5,160.5C 156.086,162.775 161.419,165.442 166.5,168.5 Z"/></g>
<g><path style="opacity:1" fill="#a4a4a4" d="M 239.5,160.5 C 240.613,161.946 240.78,163.613 240,165.5C 238.365,166.849 236.865,166.682 235.5,165C 236.448,164.517 237.448,164.351 238.5,164.5C 238.433,163.041 238.766,161.708 239.5,160.5 Z"/></g>
<g><path style="opacity:1" fill="#eaeaea" d="M 193.5,176.5 C 194.477,179.287 194.81,182.287 194.5,185.5C 194.162,187.854 193.662,190.187 193,192.5C 192.163,194.007 190.996,194.507 189.5,194C 190.43,192.806 191.097,191.473 191.5,190C 189.761,185.066 190.428,180.566 193.5,176.5 Z"/></g>
<g><path style="opacity:1" fill="#9e9e9e" d="M 194.5,185.5 C 194.81,182.287 194.477,179.287 193.5,176.5C 194.387,174.265 195.387,173.765 196.5,175C 195.938,178.654 195.271,182.154 194.5,185.5 Z"/></g>
<g><path style="opacity:1" fill="#6b6b6b" d="M 389.5,179.5 C 391.857,179.337 394.19,179.503 396.5,180C 394.866,180.494 393.199,180.66 391.5,180.5C 391.5,181.833 391.5,183.167 391.5,184.5C 398.167,184.833 398.167,185.167 391.5,185.5C 391.785,187.288 391.452,188.955 390.5,190.5C 389.511,186.893 389.177,183.226 389.5,179.5 Z"/></g>
<g><path style="opacity:1" fill="#b8b8b8" d="M 199.5,176.5 C 200.933,177.833 202.267,179.333 203.5,181C 202.207,181.49 200.873,181.657 199.5,181.5C 199.5,179.833 199.5,178.167 199.5,176.5 Z"/></g>
<g><path style="opacity:1" fill="#7c7c7c" d="M 401.5,181.5 C 402.376,181.369 403.043,181.702 403.5,182.5C 402.675,183.386 401.675,183.719 400.5,183.5C 400.808,185.924 400.474,188.257 399.5,190.5C 398.52,187.914 398.187,185.247 398.5,182.5C 399.791,182.737 400.791,182.404 401.5,181.5 Z"/></g>
<g><path style="opacity:1" fill="#111111" d="M 148.5,183.5 C 149.496,183.414 150.329,183.748 151,184.5C 153.631,190.48 156.297,196.48 159,202.5C 160.009,206.513 160.676,210.513 161,214.5C 155.829,206.828 151.162,198.828 147,190.5C 146.865,188.078 147.365,185.745 148.5,183.5 Z"/></g>
<g><path style="opacity:1" fill="#1a1a1a" d="M 153.5,180.5 C 154.675,180.281 155.675,180.614 156.5,181.5C 158.527,187.019 161.194,192.186 164.5,197C 163.123,198.241 161.79,198.408 160.5,197.5C 157.878,191.926 155.544,186.259 153.5,180.5 Z"/></g>
<g><path style="opacity:1" fill="#555555" d="M 406.5,181.5 C 410.172,181.183 411.838,182.849 411.5,186.5C 409.712,186.215 408.045,186.548 406.5,187.5C 406.833,188.5 407.5,189.167 408.5,189.5C 409.451,188.674 410.451,188.508 411.5,189C 407.69,191.409 405.356,190.409 404.5,186C 404.519,184.167 405.185,182.667 406.5,181.5 Z"/></g>
<g><path style="opacity:1" fill="#f3f3f3" d="M 406.5,183.5 C 408.103,183.312 409.437,183.812 410.5,185C 408.833,185.667 407.167,185.667 405.5,185C 406.056,184.617 406.389,184.117 406.5,183.5 Z"/></g>
<g><path style="opacity:1" fill="#555555" d="M 415.5,181.5 C 419.172,181.183 420.838,182.849 420.5,186.5C 418.712,186.215 417.045,186.548 415.5,187.5C 415.833,188.5 416.5,189.167 417.5,189.5C 418.451,188.674 419.451,188.508 420.5,189C 416.69,191.409 414.356,190.409 413.5,186C 413.519,184.167 414.185,182.667 415.5,181.5 Z"/></g>
<g><path style="opacity:1" fill="#f3f3f3" d="M 415.5,183.5 C 417.103,183.312 418.437,183.812 419.5,185C 417.833,185.667 416.167,185.667 414.5,185C 415.056,184.617 415.389,184.117 415.5,183.5 Z"/></g>
<g><path style="opacity:1" fill="#666666" d="M 135.5,190.5 C 134.335,192.109 133.001,192.443 131.5,191.5C 132.708,188.478 134.042,188.145 135.5,190.5 Z"/></g>
<g><path style="opacity:1" fill="#9f9f9f" d="M 185.5,204.5 C 192.292,207.919 193.292,212.586 188.5,218.5C 188.389,217.883 188.056,217.383 187.5,217C 189.036,215.401 189.536,213.567 189,211.5C 187.71,209.208 186.043,207.208 184,205.5C 183.617,206.056 183.117,206.389 182.5,206.5C 181.438,205.425 181.438,204.425 182.5,203.5C 183.417,204.127 184.417,204.461 185.5,204.5 Z"/></g>
<g><path style="opacity:1" fill="#191919" d="M 188.5,218.5 C 187.18,219.942 185.514,220.608 183.5,220.5C 182.828,217.092 183.828,214.425 186.5,212.5C 185.533,210.21 184.2,208.21 182.5,206.5C 183.117,206.389 183.617,206.056 184,205.5C 186.043,207.208 187.71,209.208 189,211.5C 189.536,213.567 189.036,215.401 187.5,217C 188.056,217.383 188.389,217.883 188.5,218.5 Z"/></g>
<g><path style="opacity:1" fill="#323232" d="M 176.5,216.5 C 178.085,217.002 178.585,218.002 178,219.5C 176.961,218.756 176.461,217.756 176.5,216.5 Z"/></g>
<g><path style="opacity:1" fill="#1a1a1a" d="M 175.5,235.5 C 176.601,234.402 177.934,234.235 179.5,235C 185.542,241.373 191.208,248.04 196.5,255C 195.833,255.667 195.167,255.667 194.5,255C 187.937,248.605 181.603,242.105 175.5,235.5 Z"/></g>
<g><path style="opacity:1" fill="#e8e8e8" d="M 90.5,296.5 C 104.648,304.704 119.982,308.537 136.5,308C 189.676,308.417 242.676,308.584 295.5,308.5C 238.189,309.651 180.855,309.817 123.5,309C 111.134,308.051 100.134,303.884 90.5,296.5 Z"/></g>
</svg>
