<?xml version="1.0" encoding="UTF-8"?>
<svg version="1.1" xmlns="http://www.w3.org/2000/svg" width="500" height="500">
<path d="M0 0 C165 0 330 0 500 0 C500 165 500 330 500 500 C335 500 170 500 0 500 C0 335 0 170 0 0 Z " fill="#FEFEFE" transform="translate(0,0)"/>
<path d="M0 0 C2.34621164 2.14549091 3.74635414 4.14502169 5.12890625 7 C5.71285156 8.1902478 5.71285156 8.1902478 6.30859375 9.40454102 C6.92927734 10.68929321 6.92927734 10.68929321 7.5625 12 C8.46840958 13.84325607 9.3759985 15.68568762 10.28515625 17.52734375 C10.97182373 18.91928955 10.97182373 18.91928955 11.67236328 20.33935547 C13.55523082 24.11270789 15.5196158 27.83964864 17.5 31.5625 C22.307618 40.62655661 27.00096602 49.74797477 31.6875 58.875 C33.26033339 61.93754278 34.83324266 65.00004656 36.40625 68.0625 C36.79523972 68.8198494 37.18422943 69.57719879 37.58500671 70.35749817 C41.27339392 77.5364449 44.97732261 84.70729504 48.6875 91.875 C49.59761841 93.63336182 49.59761841 93.63336182 50.52612305 95.42724609 C51.74175528 97.77544587 52.95749352 100.12359076 54.17333984 102.47167969 C56.97026736 107.87413845 59.76485313 113.27780776 62.55947876 118.68145752 C64.12287661 121.70436151 65.68644682 124.72717635 67.25 127.75 C67.87500083 128.9583329 68.50000083 130.16666624 69.125 131.375 C69.434375 131.973125 69.74375 132.57125 70.0625 133.1875 C71 135 71.9375 136.8125 72.875 138.625 C73.18434982 139.22307465 73.49369965 139.82114929 73.81242371 140.43734741 C74.43768355 141.64618651 75.06293786 142.85502847 75.68818665 144.06387329 C77.24666568 147.0769919 78.80523961 150.09006135 80.36401367 153.10302734 C82.89571686 157.99678372 85.42735942 162.89056903 87.95556641 167.78613281 C88.28072739 168.41563843 88.60588837 169.04514404 88.94090271 169.69372559 C89.59582341 170.96239156 90.2501742 172.2313519 90.90394592 173.50061035 C92.50023206 176.59737793 94.10653631 179.68796478 95.73754883 182.76660156 C98.55229853 188.10928037 101.23039324 193.39286439 103.4609375 199.0078125 C106.22800862 206.1619827 106.22800862 206.1619827 111 212 C117.41954892 214.35758099 124.32001812 213.83524082 131 213 C131.40202637 213.80928955 131.80405273 214.6185791 132.21826172 215.45239258 C134.10156882 219.24023092 135.98752265 223.02673839 137.875 226.8125 C138.21469818 227.49417236 138.55439636 228.17584473 138.90438843 228.87817383 C143.48661558 238.06620804 148.12462174 247.21569566 153.02880859 256.23754883 C155.09755893 260.08488123 156.75578758 263.78679391 158 268 C104.86354817 269.52301932 49.7148307 255.05016824 3 230 C1.27330078 229.08347656 1.27330078 229.08347656 -0.48828125 228.1484375 C-26.55798615 213.7997664 -50.72654508 193.4815401 -69 170 C-69.63010986 169.20045898 -69.63010986 169.20045898 -70.27294922 168.38476562 C-94.89096112 136.94819425 -108.25571091 99.69471708 -115.47851562 60.80126953 C-115.81637335 58.98639146 -116.17698648 57.1755431 -116.56445312 55.37060547 C-117.14150585 52.22980843 -117.06245102 49.18500224 -117 46 C-116.67 46 -116.34 46 -116 46 C-115.82726562 47.00933594 -115.65453125 48.01867187 -115.4765625 49.05859375 C-110.14885163 77.37290681 -96.09785624 104.32650964 -79.6875 127.8125 C-79.27902832 128.40562988 -78.87055664 128.99875977 -78.44970703 129.60986328 C-76.22284795 132.72087604 -74.46850437 134.45231718 -71 136 C-70.74943848 135.49364014 -70.49887695 134.98728027 -70.24072266 134.46557617 C-65.75200317 125.40772703 -61.23782832 116.36805166 -56.5 107.4375 C-51.67120837 98.33191971 -46.95736432 89.16872042 -42.25 80 C-36.23685341 68.29018822 -30.21102064 56.58749687 -24.14013672 44.9074707 C-21.40835836 39.6505291 -18.68356327 34.39024499 -15.97886658 29.11932373 C-14.61114139 26.45407913 -13.24091736 23.79012216 -11.87069702 21.12615967 C-11.21576879 19.8509897 -10.56210683 18.57516844 -9.90982056 17.29864502 C-9.00303238 15.52425178 -8.09144395 13.75231421 -7.1796875 11.98046875 C-6.66132324 10.96879639 -6.14295898 9.95712402 -5.60888672 8.91479492 C-3.89245346 5.80515961 -2.00800279 2.92763432 0 0 Z " fill="#000101" transform="translate(257,100)"/>
<path d="M0 0 C0.33 0 0.66 0 1 0 C1.17273438 1.00933594 1.34546875 2.01867187 1.5234375 3.05859375 C6.84180075 31.3232285 20.8433684 58.35100004 37.3125 81.75 C37.92520752 82.62712646 37.92520752 82.62712646 38.55029297 83.52197266 C40.23659281 85.86394026 41.78687232 87.84025309 44.10546875 89.578125 C46.51124475 91.38369709 47.4835678 93.41069201 49 96 C61.76823913 111.24855586 77.1963401 124.94199759 95 134 C95.22558594 133.22398437 95.45117188 132.44796875 95.68359375 131.6484375 C97.44162194 126.77603889 99.73025954 122.24491329 102.0625 117.625 C102.5469458 116.65997559 103.0313916 115.69495117 103.53051758 114.70068359 C107.77026112 106.32103675 112.2875916 98.12163226 117 90 C119.29713458 92.90500083 121.06609772 95.84491637 122.7578125 99.13671875 C123.29301514 100.1736084 123.82821777 101.21049805 124.37963867 102.27880859 C124.95560791 103.40367676 125.53157715 104.52854492 126.125 105.6875 C127.04971686 107.48152739 127.97443383 109.27555473 128.89915466 111.06958008 C130.24351784 113.68025794 131.58429234 116.29277163 132.92498779 118.90533447 C135.96537981 124.82955032 139.01003792 130.75157209 142.05584717 136.67300415 C143.17251996 138.8458515 144.28683271 141.01989684 145.40087891 143.1940918 C146.09400853 144.54349144 146.78720206 145.89285827 147.48046875 147.2421875 C147.79242691 147.8525737 148.10438507 148.4629599 148.42579651 149.09184265 C149.27111604 150.73451818 150.13499816 152.36760304 151 154 C151.4242627 154.92796387 151.84852539 155.85592773 152.28564453 156.81201172 C154.77922987 159.99451127 157.01530509 160.08512634 160.94921875 160.765625 C161.63949661 160.88935486 162.32977448 161.01308472 163.04096985 161.14056396 C164.5077339 161.39913009 165.97636751 161.64727614 167.4465332 161.88574219 C169.63893344 162.24210575 171.82384684 162.62947098 174.00976562 163.0234375 C187.72778049 165.42688266 201.32125406 166.17423828 215.25 166 C226.20010219 165.92609794 237.07307387 166.31630406 248 167 C248.40202637 167.80928955 248.80405273 168.6185791 249.21826172 169.45239258 C251.10156882 173.24023092 252.98752265 177.02673839 254.875 180.8125 C255.21469818 181.49417236 255.55439636 182.17584473 255.90438843 182.87817383 C260.48661558 192.06620804 265.12462174 201.21569566 270.02880859 210.23754883 C272.09755893 214.08488123 273.75578758 217.78679391 275 222 C221.86354817 223.52301932 166.7148307 209.05016824 120 184 C118.27330078 183.08347656 118.27330078 183.08347656 116.51171875 182.1484375 C90.44201385 167.7997664 66.27345492 147.4815401 48 124 C47.57992676 123.46697266 47.15985352 122.93394531 46.72705078 122.38476562 C22.10903888 90.94819425 8.74428909 53.69471708 1.52148438 14.80126953 C1.18362665 12.98639146 0.82301352 11.1755431 0.43554688 9.37060547 C-0.14150585 6.22980843 -0.06245102 3.18500224 0 0 Z " fill="#C72C2F" transform="translate(140,146)"/>
<path d="M0 0 C4.48498754 3.73941191 8.69175158 7.61756583 12.75 11.8125 C18.17507682 17.31679368 23.89604803 22.2515578 30 27 C30.54366211 27.42587402 31.08732422 27.85174805 31.64746094 28.29052734 C37.30877756 32.72217127 42.9783164 37.06655346 49 41 C48.421945 44.5209156 47.51962246 47.28767015 45.83984375 50.4296875 C45.38327393 51.29319824 44.9267041 52.15670898 44.45629883 53.04638672 C43.95509521 53.9798291 43.4538916 54.91327148 42.9375 55.875 C41.85576334 57.91613305 40.77509542 59.95783273 39.6953125 62 C39.10782227 63.10859375 38.52033203 64.2171875 37.91503906 65.359375 C35.80890086 69.35035726 33.74250978 73.36149782 31.6796875 77.375 C31.31688187 78.08061066 30.95407623 78.78622131 30.58027649 79.51321411 C29.12892383 82.33709099 27.67833586 85.16135554 26.22994995 87.98675537 C25.21357549 89.9686022 24.19488537 91.94924329 23.17578125 93.9296875 C22.58708252 95.07679199 21.99838379 96.22389648 21.3918457 97.40576172 C20 100 20 100 19 101 C16.82194281 101.09429342 14.6407872 101.11742538 12.46069336 101.11352539 C11.77779739 101.11367142 11.09490143 101.11381744 10.39131165 101.1139679 C8.12412386 101.11326876 5.85701726 101.1054764 3.58984375 101.09765625 C2.02185613 101.09579207 0.45386793 101.09436817 -1.11412048 101.09336853 C-5.24876503 101.08954334 -9.38337466 101.07971306 -13.51800537 101.06866455 C-17.73400398 101.05845044 -21.95000822 101.05387091 -26.16601562 101.04882812 C-34.44402647 101.03809079 -42.7220089 101.02101436 -51 101 C-49.81727499 97.26915377 -48.51331351 93.7880764 -46.72851562 90.3059082 C-46.28044556 89.42671219 -45.83237549 88.54751617 -45.37072754 87.64167786 C-44.88744995 86.70418198 -44.40417236 85.7666861 -43.90625 84.80078125 C-43.40009155 83.81111862 -42.89393311 82.82145599 -42.37243652 81.80180359 C-40.75222943 78.63666656 -39.12608236 75.47462187 -37.5 72.3125 C-36.43713669 70.23651409 -35.37463333 68.16034385 -34.3125 66.08398438 C-29.09845158 55.90335829 -23.83894671 45.74839425 -18.49771118 35.63391113 C-14.58029077 28.21563242 -10.72207965 20.76743734 -6.875 13.3125 C-6.19798303 12.00191884 -5.52089971 10.69137195 -4.84375 9.38085938 C-3.22841076 6.25429623 -1.61393754 3.12728699 0 0 Z " fill="#C82E31" transform="translate(160,286)"/>
<path d="M0 0 C1.72037785 2.58056677 2.5348865 4.29759971 3.44140625 7.1796875 C12.12715374 34.07783618 25.48970338 58.60585282 44 80 C44.6703125 80.78117187 45.340625 81.56234375 46.03125 82.3671875 C79.00576828 119.89415793 122.59067667 144.9212942 170 160 C171.05912598 160.34442139 171.05912598 160.34442139 172.13964844 160.69580078 C184.29660012 164.59444618 196.72034453 167.42333778 209.1875 170.125 C209.99562134 170.30180298 210.80374268 170.47860596 211.63635254 170.6607666 C220.65692921 172.61143999 229.55764396 174.19577877 238.765625 174.90625 C239.93421806 175.00460648 239.93421806 175.00460648 241.12641907 175.10494995 C244.82919771 175.41073025 248.51154794 175.64548247 252.2253418 175.75439453 C261.5624535 176.42063725 261.5624535 176.42063725 264.31719971 179.44714355 C267.07333415 183.58040879 270 188.95592997 270 194 C216.86354817 195.52301932 161.7148307 181.05016824 115 156 C113.27330078 155.08347656 113.27330078 155.08347656 111.51171875 154.1484375 C85.44201385 139.7997664 61.27345492 119.4815401 43 96 C42.57992676 95.46697266 42.15985352 94.93394531 41.72705078 94.38476562 C23.68913817 71.35081271 -1.89601593 30.33625494 0 0 Z " fill="#9C2F37" transform="translate(145,174)"/>
<path d="M0 0 C2.29713458 2.90500083 4.06609772 5.84491637 5.7578125 9.13671875 C6.2930957 10.1736084 6.82837891 11.21049805 7.37988281 12.27880859 C8.24371582 13.96611084 8.24371582 13.96611084 9.125 15.6875 C10.04861641 17.4815519 10.97223653 19.27560189 11.89599609 21.06958008 C12.89116169 23.00362363 13.88459232 24.93855207 14.87792969 26.87353516 C17.11973045 31.23719471 19.37615202 35.59323094 21.6328125 39.94921875 C22.79244629 42.1903195 23.95172012 44.43160592 25.11077881 46.67300415 C25.86718678 48.13506195 26.62422116 49.59679585 27.38189697 51.05819702 C28.44953572 53.11838362 29.51417966 55.18009163 30.578125 57.2421875 C30.89524445 57.8525737 31.21236389 58.4629599 31.53909302 59.09184265 C33.20939329 62.33684052 34.70827387 65.58615237 36 69 C28.90916284 67.78380304 22.30495643 65.93314787 15.5625 63.4375 C14.14493408 62.91675903 14.14493408 62.91675903 12.69873047 62.38549805 C0.2394819 57.70937526 -11.83400678 52.27127368 -23 45 C-17.9212813 33.98954782 -12.59521982 23.13313448 -7 12.375 C-6.42419189 11.26648682 -5.84838379 10.15797363 -5.25512695 9.01586914 C-1.13324981 1.13324981 -1.13324981 1.13324981 0 0 Z " fill="#FCFBFB" transform="translate(257,236)"/>
<path d="M0 0 C3.07767309 1.34358632 4.83652142 2.70996154 6.9375 5.3125 C16.20443871 16.19622376 26.53248808 25.50234777 38 34 C38.55623047 34.41217773 39.11246094 34.82435547 39.68554688 35.24902344 C42.77155072 37.5259145 45.87629743 39.77515878 49 42 C47.85112887 45.61221644 46.61667691 49.00775797 44.875 52.375 C44.52179688 53.06335938 44.16859375 53.75171875 43.8046875 54.4609375 C43.53914063 54.96882813 43.27359375 55.47671875 43 56 C28.62442719 53.55309399 14.22308034 36.88208592 4 27 C3.49919922 26.5167627 2.99839844 26.03352539 2.48242188 25.53564453 C1.02668498 24.10790258 -0.39688273 22.65492972 -1.8125 21.1875 C-2.64394531 20.33542969 -3.47539062 19.48335937 -4.33203125 18.60546875 C-6 16 -6 16 -5.921875 13.01171875 C-5.00327253 10.01069118 -3.89968529 7.39940286 -2.4375 4.625 C-1.98246094 3.75101563 -1.52742187 2.87703125 -1.05859375 1.9765625 C-0.70925781 1.32429687 -0.35992187 0.67203125 0 0 Z " fill="#090D13" transform="translate(192,224)"/>
<path d="M0 0 C3.81252879 2.19924315 5.89071458 4.25736674 7.6875 8.375 C8.49196198 14.57952864 8.40120638 20.12458753 4.6875 25.375 C2.25 27.625 2.25 27.625 -0.3125 29.375 C-0.910625 29.7875 -1.50875 30.2 -2.125 30.625 C-6.20556171 32.02404973 -10.21752864 32.15796909 -14.24609375 30.65234375 C-19.25027192 27.9942104 -22.52140312 24.74829064 -24.3125 19.375 C-24.81173837 14.16164194 -24.93864705 9.75252351 -22.75 4.9375 C-16.17574259 -1.97389881 -8.8355008 -3.90864162 0 0 Z " fill="#C82E31" transform="translate(193.3125,178.625)"/>
<path d="M0 0 C5.627873 1.16203046 11.03154238 2.58814492 16.49536133 4.3605957 C34.93977282 10.31583731 54.39163391 15.19185469 73.81176758 16.2434082 C76.96957706 16.46604176 78.62482373 16.64276045 80.9609375 18.8671875 C82 21 82 21 82 24 C78.33335148 24.02985122 74.66673533 24.04707503 71 24.0625 C69.989375 24.07087891 68.97875 24.07925781 67.9375 24.08789062 C54.11324237 24.13109143 40.58215131 23.1515753 26.96850586 20.80053711 C25.51398805 20.55561943 24.05673997 20.32646417 22.59741211 20.11206055 C10.46648306 18.32735108 10.46648306 18.32735108 6.98510742 15.17626953 C5.6889571 13.14881705 4.80591198 11.26186112 4 9 C3.55011719 8.0925 3.10023438 7.185 2.63671875 6.25 C1.7578125 4.16666667 0.87890625 2.08333333 0 0 Z " fill="#090D13" transform="translate(285,289)"/>
<path d="M0 0 C7.32328238 0.71231927 14.53504255 1.87977109 21.78952026 3.0987854 C34.48970705 5.22522226 47.15757021 6.97688134 60 8 C60 8.33 60 8.66 60 9 C41.52 9 23.04 9 4 9 C2.68 6.03 1.36 3.06 0 0 Z " fill="#D04B4E" transform="translate(331,378)"/>
<path d="M0 0 C3 1 3 1 4.0625 2.53125 C6.1563246 6.92828167 7.88094757 11.31710347 9.33984375 15.96484375 C10.01267446 18.14750799 10.01267446 18.14750799 11.1875 20.75 C12.1052535 23.29147123 12.15324355 25.31823783 12 28 C11.67 27.525625 11.34 27.05125 11 26.5625 C7.90186733 24.14208385 4.87973208 24.31801083 1 24 C0.34 25.98 -0.32 27.96 -1 30 C-1.33 30 -1.66 30 -2 30 C-2.19477739 28.37585622 -2.38059458 26.75063577 -2.5625 25.125 C-2.66691406 24.22007812 -2.77132812 23.31515625 -2.87890625 22.3828125 C-3 20 -3 20 -2 18 C-1.97426114 14.82676687 -2.02794706 11.66924109 -2.12695312 8.49804688 C-2.18946616 4.74358749 -2.14164494 3.2124674 0 0 Z " fill="#070707" transform="translate(135,117)"/>
<path d="M0 0 C2 1 2 1 3 3 C3.75471698 9.79245283 3.75471698 9.79245283 1.4375 13.5 C-1.97532932 15.60020266 -4.06688873 15.63210717 -8 15 C-10.96135546 12.41830549 -11.86756104 10.81118865 -12.5 6.9375 C-12 4 -12 4 -10.5 1.625 C-6.75900771 -0.80664499 -4.42573582 -0.49174842 0 0 Z " fill="#C93033" transform="translate(165,250)"/>
<path d="M0 0 C2.98093122 2.5550839 4.52359755 5.38281401 6 9 C5.875 11.25 5.875 11.25 5 13 C4.01 13.66 3.02 14.32 2 15 C0.68 14.01 -0.64 13.02 -2 12 C-1.42415568 9.61435923 -0.77772405 7.33317216 0 5 C0.03874921 3.33378384 0.0450286 1.66605828 0 0 Z " fill="#2C3138" transform="translate(136,117)"/>
<path d="M0 0 C0.33 0 0.66 0 1 0 C1.64783124 2.87456281 2.29332518 5.74961759 2.9375 8.625 C3.11990234 9.43324219 3.30230469 10.24148437 3.49023438 11.07421875 C4.00582348 13.38030822 4.50388549 15.68965773 5 18 C5.24878906 19.10085937 5.49757812 20.20171875 5.75390625 21.3359375 C6.03215252 24.34806378 5.42956729 25.41859813 4 28 C3.32246925 24.64793462 2.6599648 21.29306425 2 17.9375 C1.80921875 16.99455078 1.6184375 16.05160156 1.421875 15.08007812 C0.42152862 9.95330295 -0.231817 5.22312681 0 0 Z " fill="#D26568" transform="translate(140,146)"/>
<path d="M0 0 C2.125 0.375 2.125 0.375 4 1 C4.625 3.375 4.625 3.375 5 6 C4.34 6.66 3.68 7.32 3 8 C0.875 7.625 0.875 7.625 -1 7 C-1.625 4.625 -1.625 4.625 -2 2 C-1.34 1.34 -0.68 0.68 0 0 Z " fill="#CA3639" transform="translate(171,152)"/>
<path d="M0 0 C0.33 0 0.66 0 1 0 C1.28875 0.886875 1.5775 1.77375 1.875 2.6875 C2.9156135 5.90778331 2.9156135 5.90778331 4.125 8.5625 C5.07117939 11.19828544 5.15876134 13.22167661 5 16 C4.62875 15.525625 4.2575 15.05125 3.875 14.5625 C1.37353038 12.47794198 -0.81593418 12.35378509 -4 12 C-2.68 11.67 -1.36 11.34 0 11 C0 7.37 0 3.74 0 0 Z " fill="#53585D" transform="translate(142,129)"/>
<path d="M0 0 C0 3.63 0 7.26 0 11 C-0.99 11 -1.98 11 -3 11 C-4.35064935 3.51003542 -4.35064935 3.51003542 -2.625 1 C-1 0 -1 0 0 0 Z " fill="#080F17" transform="translate(142,129)"/>
<path d="M0 0 C0.33 0 0.66 0 1 0 C1.625 3.375 1.625 3.375 2 7 C1.34 7.66 0.68 8.32 0 9 C0 10.32 0 11.64 0 13 C-0.66 13 -1.32 13 -2 13 C-2.05416188 11.39620659 -2.09286638 9.79188594 -2.125 8.1875 C-2.14820313 7.29417969 -2.17140625 6.40085937 -2.1953125 5.48046875 C-2 3 -2 3 0 0 Z " fill="#111112" transform="translate(135,117)"/>
<path d="M0 0 C1.32 0.66 2.64 1.32 4 2 C3.67 3.32 3.34 4.64 3 6 C1.35 5.67 -0.3 5.34 -2 5 C-1.125 1.125 -1.125 1.125 0 0 Z " fill="#F5F6F6" transform="translate(136,124)"/>
<path d="M0 0 C0.66 0 1.32 0 2 0 C3.60080151 4.00200378 2.29279692 7.04556236 1 11 C0.67 11 0.34 11 0 11 C-0.19406478 9.35492782 -0.38007935 7.70890406 -0.5625 6.0625 C-0.66691406 5.14597656 -0.77132812 4.22945312 -0.87890625 3.28515625 C-0.91886719 2.53105469 -0.95882812 1.77695313 -1 1 C-0.67 0.67 -0.34 0.34 0 0 Z " fill="#323232" transform="translate(133,136)"/>
</svg>
