<svg width="56" height="56" viewBox="0 0 56 56" fill="none" xmlns="http://www.w3.org/2000/svg">
<path fill-rule="evenodd" clip-rule="evenodd" d="M35.9755 13.167C35.6537 12.6528 35.1796 12.2518 34.6192 12.0197C34.0588 11.7875 33.44 11.7359 32.8489 11.872L28.6535 12.8357C28.2236 12.9345 27.7768 12.9345 27.3469 12.8357L23.1515 11.872C22.5604 11.7359 21.9416 11.7875 21.3812 12.0197C20.8208 12.2518 20.3467 12.6528 20.0249 13.167L17.7382 16.8163C17.5049 17.1897 17.1899 17.5047 16.8165 17.7403L13.1672 20.027C12.6539 20.3485 12.2534 20.8218 12.0214 21.3813C11.7893 21.9408 11.7372 22.5586 11.8722 23.149L12.8359 27.349C12.9343 27.7782 12.9343 28.2241 12.8359 28.6533L11.8722 32.851C11.7367 33.4418 11.7885 34.0601 12.0206 34.62C12.2527 35.18 12.6535 35.6537 13.1672 35.9753L16.8165 38.262C17.1899 38.4953 17.5049 38.8103 17.7405 39.1837L20.0272 42.833C20.6852 43.8853 21.9405 44.4057 23.1515 44.128L27.3469 43.1643C27.7768 43.0655 28.2236 43.0655 28.6535 43.1643L32.8512 44.128C33.442 44.2635 34.0603 44.2117 34.6202 43.9796C35.1802 43.7475 35.6539 43.3467 35.9755 42.833L38.2622 39.1837C38.4955 38.8103 38.8105 38.4953 39.1839 38.262L42.8355 35.9753C43.3493 35.6532 43.7499 35.179 43.9816 34.6186C44.2132 34.0582 44.2645 33.4395 44.1282 32.8487L43.1669 28.6533C43.068 28.2234 43.068 27.7766 43.1669 27.3467L44.1305 23.149C44.2663 22.5585 44.2148 21.9403 43.9831 21.3804C43.7515 20.8205 43.3512 20.3466 42.8379 20.0247L39.1862 17.738C38.8134 17.5042 38.4983 17.1892 38.2645 16.8163L35.9755 13.167ZM34.8019 22.7967C34.9462 22.5313 34.9819 22.2203 34.9016 21.9291C34.8213 21.6379 34.6311 21.3892 34.3712 21.2353C34.1112 21.0814 33.8017 21.0344 33.5078 21.1041C33.2138 21.1738 32.9584 21.3548 32.7952 21.609L26.6935 31.9363L23.0092 28.4083C22.8999 28.2961 22.7691 28.207 22.6246 28.1464C22.4802 28.0859 22.325 28.055 22.1683 28.0557C22.0117 28.0563 21.8568 28.0886 21.7128 28.1504C21.5689 28.2123 21.4389 28.3025 21.3306 28.4157C21.2222 28.5288 21.1378 28.6627 21.0824 28.8092C21.0269 28.9557 21.0015 29.1119 21.0077 29.2684C21.0138 29.4249 21.0515 29.5786 21.1184 29.7203C21.1852 29.862 21.28 29.9887 21.3969 30.093L26.1429 34.6407C26.2699 34.7621 26.4227 34.8533 26.5899 34.9074C26.7571 34.9615 26.9344 34.9772 27.1085 34.9532C27.2826 34.9292 27.449 34.8661 27.5954 34.7688C27.7417 34.6715 27.8641 34.5423 27.9535 34.391L34.8019 22.7967Z" fill="#011B78"/>
</svg>
